<svg width="316" height="120" viewBox="0 0 316 120" fill="none" xmlns="http://www.w3.org/2000/svg">
<path d="M107.659 25.5423C107.659 22.5465 108.607 20.0148 110.506 17.9471C112.3 15.9823 114.573 14.8457 117.324 14.5373C117.78 14.4932 118.237 14.4697 118.693 14.4697C121.429 14.4697 123.819 15.3538 125.862 17.1277C126.14 17.3656 126.406 17.6153 126.655 17.8796C127.199 18.4553 127.345 19.1278 127.096 19.8944C126.935 20.3672 126.655 20.7373 126.257 21.0016H126.233C125.572 21.4304 124.896 21.4598 124.203 21.0898C123.966 20.9576 123.77 20.8019 123.606 20.6228C122.327 19.1631 120.686 18.4288 118.687 18.4288C116.583 18.4288 114.857 19.1513 113.502 20.5993C112.25 21.9591 111.627 23.6038 111.627 25.5364C111.627 27.4689 112.312 29.2488 113.678 30.6057C115.03 31.9185 116.671 32.5764 118.597 32.5764C120.803 32.5764 122.567 31.7071 123.892 29.9625C124.364 29.3574 124.981 29.1078 125.745 29.2106C125.996 29.24 126.23 29.3134 126.45 29.4309C126.611 29.5043 126.754 29.6042 126.88 29.7304C127.006 29.8567 127.111 29.9889 127.199 30.1299C127.287 30.2709 127.36 30.4207 127.418 30.5822C127.477 30.7437 127.509 30.9111 127.518 31.0815C127.526 31.2518 127.518 31.4163 127.494 31.5808C127.471 31.7423 127.424 31.9038 127.351 32.0683C127.278 32.2328 127.181 32.3855 127.064 32.5353C125.358 34.6323 123.234 35.9217 120.689 36.4122C120.027 36.5443 119.357 36.6119 118.681 36.6119C115.562 36.6119 112.976 35.6162 110.916 33.622C109.02 31.7629 107.943 29.4309 107.695 26.626C107.665 26.256 107.651 25.8947 107.651 25.5423H107.654H107.659Z" fill="white" style="fill:white;fill-opacity:1;"/>
<path d="M132.951 14.4902C133.656 14.4902 134.186 14.7927 134.54 15.3978C134.715 15.7062 134.806 16.0263 134.806 16.3494V34.7527C134.806 35.4605 134.505 35.995 133.902 36.3475C133.606 36.5237 133.29 36.6148 132.954 36.6148C132.26 36.6148 131.734 36.3122 131.365 35.7072C131.204 35.4106 131.122 35.0934 131.122 34.7556V16.3523C131.122 15.6445 131.424 15.1129 132.026 14.7575C132.319 14.596 132.629 14.5049 132.954 14.4902H132.951Z" fill="white" style="fill:white;fill-opacity:1;"/>
<path d="M150.79 36.2353C150.469 36.2353 150.261 36.0885 150.173 35.7918C150.144 35.7184 150.129 35.645 150.129 35.5716V34.8843C150.129 34.7374 150.056 34.664 149.91 34.664C149.837 34.6493 149.769 34.6728 149.711 34.7316C148.535 35.9739 146.995 36.5995 145.099 36.6142C142.481 36.6142 140.591 35.6332 139.429 33.6684C138.709 32.4289 138.349 30.8988 138.349 29.0837V20.6691C138.349 19.9173 138.671 19.3416 139.321 18.9422C139.643 18.7513 139.997 18.6485 140.38 18.6338H140.424C141.188 18.6338 141.77 18.9569 142.168 19.6089C142.358 19.9496 142.454 20.305 142.454 20.6721V28.6666C142.454 31.1014 143.329 32.5347 145.079 32.9635C145.433 33.0516 145.808 33.0957 146.203 33.0957C147.689 33.0957 148.774 32.4524 149.468 31.169C149.895 30.3848 150.109 29.4332 150.109 28.3113V20.6721C150.109 19.9202 150.425 19.3445 151.057 18.9451C151.396 18.7542 151.747 18.6514 152.116 18.6367C152.88 18.6367 153.462 18.9598 153.86 19.6118C154.05 19.9525 154.146 20.3079 154.146 20.675V32.8754C154.146 33.9826 153.713 34.8755 152.844 35.5539C152.227 36.0121 151.542 36.2412 150.793 36.2412L150.79 36.2353Z" fill="white" style="fill:white;fill-opacity:1;"/>
<path d="M161.795 34.7087C161.795 35.3137 161.529 35.7631 160.999 36.0597C160.762 36.1772 160.513 36.2447 160.25 36.2594H159.41C158.793 36.2594 158.342 35.9863 158.064 35.44C157.933 35.2021 157.865 34.9583 157.865 34.7087V16.461C157.865 15.7238 158.181 15.1629 158.813 14.7781C159.135 14.5872 159.481 14.4844 159.852 14.4697C160.587 14.4697 161.145 14.7869 161.529 15.4213C161.719 15.7444 161.815 16.0939 161.815 16.464V20.5405C161.815 20.7021 161.894 20.7931 162.058 20.8078C162.146 20.7931 162.213 20.7637 162.257 20.7197C163.507 19.4509 165.095 18.7783 167.024 18.7049C167.141 18.6902 167.261 18.6814 167.378 18.6814C169.525 18.6814 171.386 19.3892 172.96 20.8078C174.812 22.6082 175.76 24.8991 175.807 27.6716C175.807 30.3883 174.903 32.6028 173.092 34.3151C171.591 35.7337 169.835 36.4944 167.819 36.5972C167.688 36.6119 167.553 36.6207 167.422 36.6207C165.289 36.606 163.559 35.9129 162.237 34.5383C162.105 34.4062 161.979 34.4062 161.862 34.5383C161.818 34.5971 161.795 34.6558 161.795 34.7146V34.7087ZM171.898 27.6011C171.898 25.9769 171.316 24.6406 170.154 23.5921C169.168 22.708 167.992 22.2792 166.623 22.3086C165.122 22.338 163.872 22.9518 162.872 24.1472C162.061 25.1516 161.652 26.2883 161.637 27.5571C161.637 29.2106 162.205 30.5675 163.337 31.6336C164.294 32.503 165.432 32.9465 166.757 32.9612C168.197 32.9612 169.417 32.4442 170.409 31.4104C171.401 30.3766 171.898 29.1078 171.898 27.6011Z" fill="white" style="fill:white;fill-opacity:1;"/>
<path d="M108.406 64.6564L108.78 64.348C109.383 63.8752 110.029 63.7959 110.723 64.1043C110.975 64.21 111.188 64.348 111.364 64.5242C112.394 65.5434 113.614 66.0515 115.027 66.0515C116.44 66.0515 117.336 65.5698 117.894 64.6124C118.161 64.1689 118.292 63.6901 118.292 63.1732C118.292 62.2422 117.646 61.4991 116.349 60.9381C115.908 60.7472 115.062 60.4594 113.813 60.0747C111.931 59.455 110.6 58.8558 109.819 58.2802C108.435 57.2463 107.738 55.8013 107.724 53.9392C107.724 52.1535 108.423 50.6674 109.819 49.4867C111.188 48.3354 112.865 47.7598 114.848 47.7598C116.862 47.7745 118.6 48.2561 120.057 49.1989C120.674 49.5983 120.961 50.174 120.917 50.9259C120.858 51.5162 120.601 51.9891 120.144 52.3444C119.542 52.8026 118.892 52.876 118.202 52.5647C118.041 52.4766 117.9 52.3885 117.783 52.2975C116.987 51.6631 116.019 51.337 114.872 51.3224C113.459 51.3224 112.534 51.804 112.092 52.7615C111.961 53.0699 111.887 53.4106 111.873 53.7806C111.873 54.6236 112.423 55.302 113.526 55.8189C113.88 55.9952 114.79 56.327 116.262 56.8146C118.336 57.493 119.814 58.2243 120.697 59.0085C121.874 60.0864 122.462 61.4815 122.462 63.1938C122.462 64.906 121.83 66.5097 120.566 67.7784C119.153 69.1823 117.315 69.8902 115.05 69.9049C112.505 69.8902 110.293 69.153 108.411 67.6903C107.823 67.2175 107.586 66.6125 107.706 65.8753C107.794 65.373 108.028 64.9677 108.411 64.6564H108.406Z" fill="white" style="fill:white;fill-opacity:1;"/>
<path d="M126.739 59.3437C127.093 57.1586 128.138 55.3582 129.873 53.9396C131.593 52.5504 133.542 51.8719 135.719 51.9013C138.206 51.9454 140.278 52.8235 141.94 54.5358C142.13 54.7267 142.308 54.9264 142.469 55.135C142.955 55.7253 143.051 56.3744 142.756 57.0851C142.551 57.558 142.22 57.8899 141.764 58.0808L141.697 58.1248C141.006 58.4215 140.36 58.3157 139.754 57.8165C139.637 57.7137 139.534 57.6109 139.447 57.5081C138.461 56.2833 137.173 55.6695 135.584 55.6695C134.113 55.6548 132.869 56.2011 131.857 57.3084C131.181 58.0602 130.754 58.9267 130.578 59.8988C130.283 61.5523 130.637 63.0003 131.637 64.2397C132.697 65.4644 134.019 66.093 135.608 66.1223C137.226 66.1223 138.519 65.4879 139.491 64.2191C139.962 63.6141 140.556 63.3557 141.278 63.4438C141.454 63.4732 141.624 63.5172 141.784 63.5759L141.852 63.62C142.513 63.9019 142.89 64.3954 142.975 65.1032C143.048 65.6201 142.931 66.0841 142.621 66.4983C141.091 68.5042 139.034 69.6203 136.445 69.8435C136.137 69.8729 135.833 69.8876 135.541 69.8876C133.144 69.8876 131.09 69.074 129.384 67.4528C127.737 65.8874 126.818 63.9607 126.625 61.6728C126.567 60.9062 126.602 60.1308 126.734 59.3466H126.736L126.739 59.3437Z" fill="white" style="fill:white;fill-opacity:1;"/>
<path d="M148.382 53.769C149.088 53.769 149.62 54.0715 149.971 54.6765C150.147 54.9849 150.237 55.305 150.237 55.6281V68.0282C150.237 68.736 149.936 69.2676 149.333 69.623C149.038 69.7992 148.722 69.8903 148.385 69.8903C147.695 69.8903 147.165 69.5877 146.797 68.9827C146.636 68.6861 146.554 68.3689 146.554 68.0311V55.6311C146.554 54.9232 146.855 54.3916 147.458 54.0363C147.75 53.8747 148.061 53.7837 148.385 53.769H148.382ZM146.618 49.5838C146.618 48.8906 146.911 48.359 147.499 47.9889C147.806 47.8127 148.131 47.7217 148.47 47.7217C149.161 47.7217 149.69 48.0183 150.059 48.6057C150.235 48.9141 150.325 49.2401 150.325 49.5808C150.325 50.2769 150.03 50.8055 149.445 51.1756C149.137 51.3518 148.813 51.4429 148.473 51.4429C147.78 51.4429 147.253 51.1492 146.884 50.5588C146.709 50.2504 146.618 49.9244 146.618 49.5838Z" fill="white" style="fill:white;fill-opacity:1;"/>
<path d="M153.807 60.6452C153.866 58.2398 154.72 56.1868 156.367 54.4892C157.971 52.8357 159.934 51.934 162.257 51.7872C162.579 51.7725 162.904 51.7637 163.229 51.7637C165.73 51.8665 167.781 52.774 169.385 54.4892C170.959 56.1868 171.746 58.2692 171.746 60.7333V60.9095C171.746 61.4705 171.494 61.8699 170.997 62.1049C170.807 62.193 170.614 62.2371 170.423 62.2371H158.202C157.965 62.2371 157.827 62.3575 157.783 62.5924C157.769 62.6805 157.775 62.754 157.807 62.8127C158.336 64.4075 159.366 65.4766 160.897 66.0229C161.543 66.2431 162.234 66.3548 162.971 66.3548C164.662 66.3401 166.008 65.7409 167.009 64.5602C167.451 64.014 168.033 63.8142 168.753 63.9611C168.972 64.0051 169.165 64.0815 169.326 64.1814C169.958 64.5367 170.268 65.0742 170.254 65.7997C170.239 66.2872 170.084 66.7072 169.789 67.0626C168.068 68.9364 165.795 69.8821 162.971 69.8968C161.163 69.8968 159.548 69.4827 158.129 68.6544C156.71 67.8262 155.624 66.7072 154.875 65.3004C154.126 63.8906 153.772 62.3369 153.816 60.6393H153.813L153.807 60.6452ZM158.483 58.8742H167.088C167.34 58.8742 167.486 58.7567 167.53 58.5188C167.53 58.4454 167.521 58.372 167.506 58.2985C166.86 56.5422 165.549 55.5583 163.58 55.3527C163.328 55.3233 163.079 55.3086 162.831 55.3086C161.11 55.3086 159.741 55.9519 158.726 57.2353C158.474 57.5584 158.26 57.9079 158.085 58.278C157.968 58.5159 158.026 58.698 158.26 58.8301C158.334 58.8595 158.407 58.8742 158.48 58.8742H158.483Z" fill="white" style="fill:white;fill-opacity:1;"/>
<path d="M178.116 52.2802H178.514C178.912 52.2802 179.175 52.4653 179.307 52.8324C179.336 52.9205 179.351 53.0086 179.351 53.0997V53.875C179.351 54.0219 179.424 54.0894 179.57 54.0748C179.629 54.0601 179.672 54.0366 179.702 54.0072C180.98 52.618 182.613 51.919 184.6 51.9043C187.438 51.9043 189.43 52.9616 190.577 55.0704C191.224 56.2658 191.549 57.7196 191.549 59.4319V67.8464C191.549 68.5983 191.233 69.1739 190.601 69.5734C190.264 69.7643 189.91 69.8671 189.542 69.8818H189.474C188.725 69.8818 188.152 69.5587 187.754 68.9067C187.549 68.5689 187.447 68.2135 187.447 67.8435V59.8489C187.447 57.6344 186.654 56.2481 185.065 55.6872C184.594 55.511 184.073 55.4199 183.5 55.4199C182.013 55.4199 180.895 56.0249 180.146 57.2379C179.646 58.0515 179.389 59.0383 179.374 60.2072V67.8464C179.374 68.5983 179.058 69.1739 178.426 69.5734C178.089 69.7643 177.733 69.8671 177.367 69.8818C176.618 69.8818 176.044 69.5587 175.646 68.9067C175.442 68.566 175.339 68.2135 175.339 67.8435V55.0645C175.339 54.0894 175.737 53.3287 176.53 52.7825C177.016 52.4418 177.545 52.2744 178.119 52.2744H178.113L178.116 52.2802Z" fill="white" style="fill:white;fill-opacity:1;"/>
<path d="M197.044 52.5185H197.86C198.065 52.4597 198.182 52.3423 198.214 52.1631V50.6359C198.229 50.1189 198.442 49.7136 198.855 49.417L201.061 47.9103C201.386 47.69 201.693 47.7106 201.988 47.9779C202.149 48.1394 202.237 48.3332 202.252 48.5535V52.1631C202.252 52.354 202.342 52.4656 202.518 52.495C202.547 52.495 202.577 52.5038 202.606 52.5185H203.975C204.666 52.5185 205.189 52.8151 205.54 53.4025C205.687 53.6845 205.769 53.987 205.786 54.3101C205.786 54.9885 205.485 55.5054 204.879 55.8608C204.601 56.0223 204.3 56.1046 203.975 56.1046H202.609C202.401 56.1486 202.284 56.2661 202.258 56.46V62.6159C202.258 64.0639 202.433 64.992 202.787 65.4061C202.995 65.6587 203.279 65.8349 203.647 65.9377C204.543 66.1903 205.178 66.7571 205.543 67.6441C205.69 68.0142 205.772 68.396 205.789 68.7954V69.9027H205.213C202.612 69.9027 200.809 69.4181 199.806 68.4518C198.805 67.4855 198.275 65.7321 198.217 63.1916V56.46C198.173 56.2691 198.056 56.1516 197.863 56.1046H197.047C196.371 56.1046 195.856 55.8109 195.502 55.2205C195.341 54.9268 195.259 54.6214 195.259 54.313C195.259 53.6199 195.551 53.1029 196.139 52.7622C196.432 52.6007 196.736 52.5185 197.044 52.5185Z" fill="white" style="fill:white;fill-opacity:1;"/>
<path d="M211.369 53.769C212.074 53.769 212.606 54.0715 212.958 54.6765C213.133 54.9849 213.224 55.305 213.224 55.6281V68.0282C213.224 68.736 212.922 69.2676 212.32 69.623C212.024 69.7992 211.708 69.8903 211.372 69.8903C210.681 69.8903 210.149 69.5877 209.783 68.9827C209.622 68.6861 209.54 68.3689 209.54 68.0311V55.6311C209.54 54.9232 209.841 54.3916 210.444 54.0363C210.737 53.8747 211.047 53.7837 211.369 53.769ZM209.601 49.5838C209.601 48.8906 209.894 48.359 210.485 47.9889C210.792 47.8127 211.117 47.7217 211.457 47.7217C212.147 47.7217 212.677 48.0183 213.045 48.6057C213.221 48.9141 213.312 49.2401 213.312 49.5808C213.312 50.2769 213.016 50.8055 212.428 51.1756C212.118 51.3518 211.796 51.4429 211.457 51.4429C210.766 51.4429 210.233 51.1492 209.868 50.5588C209.689 50.2504 209.601 49.9244 209.601 49.5838Z" fill="white" style="fill:white;fill-opacity:1;"/>
<path d="M216.764 55.3082C216.764 54.6591 217.051 54.1804 217.625 53.869C217.876 53.7516 218.131 53.6928 218.397 53.6928H219.433V53.6488C219.433 51.0348 220.109 49.2579 221.461 48.3122C222.49 47.6044 224.012 47.249 226.028 47.249H226.338V49.6838C226.338 50.1273 226.139 50.4298 225.741 50.5913C225.639 50.6207 225.536 50.6442 225.434 50.6589C224.345 50.7323 223.661 51.073 223.383 51.678C223.222 52.0481 223.134 52.5768 223.12 53.2728C223.12 53.5107 223.228 53.6429 223.45 53.6723C223.479 53.687 223.5 53.6958 223.517 53.6958H224.708C225.355 53.6958 225.832 53.9777 226.142 54.5387C226.274 54.7913 226.341 55.0468 226.341 55.3141C226.341 55.9631 226.054 56.4419 225.481 56.7532C225.247 56.8854 224.989 56.9529 224.711 56.9529H223.52C223.283 56.997 223.152 57.1291 223.122 57.3523V68.049C223.122 68.7568 222.821 69.2913 222.215 69.6438C221.908 69.82 221.589 69.911 221.267 69.911C220.577 69.911 220.044 69.6085 219.676 69.0035C219.515 68.7068 219.433 68.3897 219.433 68.0519V57.3553C219.389 57.135 219.257 56.9999 219.035 56.9558H218.394C217.745 56.9558 217.271 56.668 216.958 56.0924C216.826 55.8545 216.759 55.5989 216.759 55.317L216.764 55.3082Z" fill="white" style="fill:white;fill-opacity:1;"/>
<path d="M232.049 53.769C232.754 53.769 233.287 54.0715 233.638 54.6765C233.813 54.9849 233.904 55.305 233.904 55.6281V68.0282C233.904 68.736 233.603 69.2676 233 69.623C232.705 69.7992 232.389 69.8903 232.052 69.8903C231.362 69.8903 230.829 69.5877 230.463 68.9827C230.302 68.6861 230.218 68.3689 230.218 68.0311V55.6311C230.218 54.9232 230.519 54.3916 231.122 54.0363C231.417 53.8747 231.724 53.7837 232.049 53.769ZM230.285 49.5838C230.285 48.8906 230.577 48.359 231.166 47.9889C231.476 47.8127 231.798 47.7217 232.137 47.7217C232.827 47.7217 233.36 48.0183 233.729 48.6057C233.904 48.9141 233.992 49.2401 233.992 49.5808C233.992 50.2769 233.696 50.8055 233.111 51.1756C232.801 51.3518 232.476 51.4429 232.14 51.4429C231.449 51.4429 230.92 51.1492 230.551 50.5588C230.376 50.2504 230.288 49.9244 230.288 49.5838H230.285Z" fill="white" style="fill:white;fill-opacity:1;"/>
<path d="M251.507 53.8192C251.507 53.2142 251.773 52.7648 252.3 52.4682C252.549 52.3507 252.8 52.2831 253.049 52.2685H253.889C254.506 52.2685 254.962 52.5416 255.255 53.0879C255.375 53.3258 255.433 53.5696 255.433 53.8192V73.1741C255.433 73.9113 255.115 74.4811 254.485 74.8805C254.161 75.0568 253.815 75.1537 253.447 75.1684C252.712 75.1684 252.154 74.8512 251.773 74.2168C251.58 73.8937 251.486 73.5442 251.486 73.1741V67.9932C251.486 67.8317 251.404 67.7406 251.244 67.726C251.156 67.7406 251.088 67.77 251.045 67.8141C249.795 69.0829 248.206 69.7554 246.278 69.8289C246.161 69.8436 246.05 69.8524 245.948 69.8524C243.785 69.8524 241.919 69.1445 240.344 67.726C238.492 65.9403 237.541 63.6494 237.498 60.8622C237.498 58.1454 238.402 55.9309 240.21 54.2186C241.711 52.8001 243.469 52.0394 245.482 51.9366C245.614 51.9219 245.749 51.9131 245.88 51.9131C248.028 51.9278 249.757 52.6209 251.065 53.9954C251.197 54.1276 251.323 54.1276 251.44 53.9954C251.483 53.9367 251.507 53.8779 251.507 53.8192ZM241.404 60.9297C241.404 62.5686 241.983 63.9049 243.148 64.9387C244.145 65.8228 245.321 66.2516 246.676 66.2222C248.177 66.1928 249.427 65.579 250.427 64.3836C251.235 63.3792 251.65 62.2426 251.665 60.9738C251.665 59.3202 251.1 57.9633 249.968 56.8972C249.011 56.0278 247.879 55.5844 246.571 55.5697C244.982 55.5697 243.68 56.1688 242.665 57.3642C241.825 58.3833 241.41 59.5728 241.41 60.9297H241.404Z" fill="white" style="fill:white;fill-opacity:1;"/>
<path d="M271.675 69.5087C271.35 69.5087 271.146 69.3619 271.058 69.0653C271.029 68.9918 271.014 68.9184 271.014 68.845V68.1577C271.014 68.0109 270.941 67.9375 270.792 67.9375C270.718 67.9228 270.654 67.9463 270.593 68.005C269.416 69.2474 267.88 69.8729 265.981 69.8876C263.363 69.8876 261.472 68.9067 260.311 66.9418C259.591 65.7024 259.231 64.1722 259.231 62.3571V53.9426C259.231 53.1907 259.556 52.615 260.203 52.2156C260.527 52.0247 260.878 51.9219 261.262 51.9072H261.306C262.069 51.9072 262.652 52.2303 263.05 52.8823C263.24 53.2201 263.336 53.5784 263.336 53.9455V61.9401C263.336 64.3748 264.211 65.8081 265.961 66.2369C266.315 66.325 266.689 66.3691 267.084 66.3691C268.571 66.3691 269.659 65.7259 270.35 64.4424C270.777 63.6612 270.99 62.7066 270.99 61.5847V53.9455C270.99 53.1936 271.304 52.618 271.938 52.2185C272.275 52.0276 272.629 51.9249 272.995 51.9102C273.761 51.9102 274.341 52.2332 274.739 52.8853C274.932 53.223 275.025 53.5813 275.025 53.9485V66.1488C275.025 67.2561 274.589 68.1489 273.723 68.8274C273.106 69.2855 272.421 69.5146 271.672 69.5146L271.675 69.5087Z" fill="white" style="fill:white;fill-opacity:1;"/>
<path d="M278.803 60.6452C278.861 58.2398 279.713 56.1868 281.363 54.4892C282.966 52.8357 284.93 51.934 287.253 51.7872C287.575 51.7725 287.899 51.7637 288.224 51.7637C290.723 51.8665 292.777 52.774 294.38 54.4892C295.954 56.1868 296.742 58.2692 296.742 60.7333V60.9095C296.742 61.4705 296.493 61.8699 295.993 62.1049C295.799 62.193 295.609 62.2371 295.416 62.2371H283.195C282.96 62.2371 282.82 62.3575 282.776 62.5924C282.761 62.6805 282.77 62.754 282.797 62.8127C283.326 64.4075 284.356 65.4766 285.886 66.0229C286.536 66.2431 287.226 66.3548 287.961 66.3548C289.652 66.3401 290.998 65.7409 291.999 64.5602C292.438 64.014 293.02 63.8142 293.742 63.9611C293.962 64.0051 294.155 64.0815 294.316 64.1814C294.948 64.5367 295.258 65.0742 295.241 65.7997C295.226 66.2872 295.071 66.7072 294.778 67.0626C293.058 68.9364 290.784 69.8821 287.961 69.8968C286.153 69.8968 284.538 69.4827 283.118 68.6544C281.696 67.8262 280.614 66.7072 279.865 65.3004C279.116 63.8906 278.762 62.3369 278.806 60.6393L278.803 60.6452ZM283.478 58.8742H292.083C292.332 58.8742 292.481 58.7567 292.522 58.5188C292.522 58.4454 292.517 58.372 292.502 58.2985C291.855 56.5422 290.544 55.5583 288.575 55.3527C288.327 55.3233 288.075 55.3086 287.826 55.3086C286.106 55.3086 284.736 55.9519 283.721 57.2353C283.472 57.5584 283.259 57.9079 283.08 58.278C282.963 58.5159 283.022 58.698 283.256 58.8301C283.329 58.8595 283.402 58.8742 283.478 58.8742Z" fill="white" style="fill:white;fill-opacity:1;"/>
<path d="M107.656 94.2115C107.656 91.4067 108.584 89.154 110.436 87.4564C112.083 86.0114 113.988 85.2713 116.15 85.2419C118.181 85.2566 119.858 85.891 121.18 87.1451C121.312 87.2772 121.438 87.2714 121.555 87.1216C121.599 87.0629 121.622 87.01 121.622 86.9659V83.0245C121.622 82.2873 121.938 81.7263 122.57 81.3416C122.892 81.1506 123.237 81.0537 123.609 81.0537H123.632C124.366 81.0537 124.934 81.3621 125.329 81.9847C125.505 82.3225 125.601 82.672 125.616 83.0274V100.811C125.616 101.548 125.3 102.118 124.668 102.517C124.346 102.708 123.998 102.805 123.629 102.805C122.895 102.805 122.336 102.488 121.953 101.854C121.762 101.531 121.666 101.181 121.666 100.811C121.666 100.738 121.628 100.708 121.558 100.723C121.528 100.738 121.505 100.752 121.49 100.767C120.343 102.127 118.822 102.908 116.923 103.114C116.642 103.143 116.364 103.158 116.083 103.158C114.067 103.158 112.274 102.485 110.699 101.143C108.847 99.5628 107.838 97.4746 107.677 94.8753C107.662 94.655 107.654 94.4318 107.654 94.2115H107.656ZM121.868 94.3231C121.912 92.6843 121.373 91.3274 120.256 90.2466C119.269 89.3302 118.093 88.872 116.724 88.872C115.135 88.872 113.833 89.4712 112.818 90.6666C111.978 91.6563 111.56 92.8223 111.56 94.1645C111.56 95.8034 112.133 97.1456 113.28 98.1941C114.266 99.0635 115.428 99.5011 116.765 99.5011C118.266 99.5011 119.524 98.9108 120.536 97.7301C121.376 96.7403 121.815 95.6037 121.859 94.3202L121.868 94.3231Z" fill="white" style="fill:white;fill-opacity:1;"/>
<path d="M129.39 93.9245C129.449 91.5191 130.303 89.4661 131.951 87.7685C133.554 86.115 135.517 85.2133 137.84 85.0665C138.162 85.0518 138.487 85.043 138.812 85.043C141.314 85.1487 143.365 86.0562 144.968 87.7685C146.542 89.4661 147.329 91.5484 147.329 94.0126V94.1888C147.329 94.7498 147.078 95.1492 146.58 95.3842C146.39 95.4723 146.197 95.5164 146.007 95.5164H133.785C133.548 95.5164 133.411 95.6368 133.367 95.8717C133.352 95.9598 133.358 96.0333 133.39 96.092C133.92 97.6868 134.95 98.7559 136.48 99.3022C137.127 99.5224 137.817 99.634 138.554 99.634C140.246 99.6194 141.591 99.0202 142.592 97.8395C143.034 97.2933 143.616 97.0935 144.336 97.2404C144.555 97.2844 144.749 97.3579 144.909 97.4607C145.541 97.816 145.852 98.3535 145.837 99.0789C145.822 99.5665 145.667 99.9865 145.372 100.342C143.651 102.216 141.378 103.161 138.554 103.176C136.743 103.176 135.131 102.762 133.712 101.937C132.293 101.108 131.207 99.9894 130.458 98.5826C129.709 97.1728 129.355 95.6191 129.399 93.9216L129.39 93.9245ZM134.069 92.1535H142.674C142.926 92.1535 143.072 92.036 143.116 91.7981C143.116 91.7247 143.107 91.6512 143.092 91.5778C142.446 89.8215 141.135 88.8405 139.166 88.632C138.914 88.6026 138.666 88.5879 138.417 88.5879C136.696 88.5879 135.327 89.2312 134.315 90.5146C134.063 90.8377 133.849 91.1872 133.674 91.5573C133.554 91.7952 133.615 91.9773 133.849 92.1094C133.923 92.1388 133.996 92.1535 134.069 92.1535Z" fill="white" style="fill:white;fill-opacity:1;"/>
<path d="M159.697 81.0449C160.402 81.0449 160.932 81.3474 161.286 81.9524C161.461 82.2608 161.552 82.581 161.552 82.904V101.307C161.552 102.015 161.251 102.547 160.648 102.902C160.353 103.078 160.037 103.169 159.7 103.169C159.01 103.169 158.48 102.867 158.111 102.262C157.95 101.965 157.868 101.648 157.868 101.31V82.907C157.868 82.1992 158.17 81.6646 158.773 81.3122C159.065 81.1506 159.375 81.0596 159.7 81.0449H159.697Z" fill="white" style="fill:white;fill-opacity:1;"/>
<path d="M165.54 86.6435C165.467 84.6375 165.408 83.0427 165.364 81.859C165.35 81.2981 165.569 81.0249 166.026 81.0396L167.48 81.0631C167.758 81.0925 168.01 81.2393 168.229 81.5066C168.434 81.7886 168.522 82.0911 168.495 82.4141L168.472 82.4376V82.6139L168.448 82.6374V82.8136L168.425 82.8371V83.0368L168.402 83.0603V83.2365L168.378 83.26V83.4362L168.355 83.4597V83.636L168.331 83.6594V83.8357L168.308 83.8591V84.0589L168.285 84.0824V84.2586L168.261 84.2821V84.3056C168.1 85.7653 167.995 86.7286 167.954 87.1839C167.91 87.5686 167.726 87.783 167.404 87.8271C167.36 87.8417 167.322 87.8506 167.296 87.8506L166.567 87.8271C166.301 87.8124 166.067 87.6949 165.862 87.4717C165.672 87.2191 165.56 86.9489 165.531 86.6523L165.54 86.6435Z" fill="white" style="fill:white;fill-opacity:1;"/>
<path d="M172.788 81.04H182.938C183.672 81.04 184.231 81.3484 184.614 81.9711C184.804 82.2941 184.901 82.6436 184.901 83.0137C184.901 83.7509 184.594 84.3119 183.973 84.6966C183.652 84.8875 183.303 84.9844 182.935 84.9844H176.802C176.404 84.9844 176.132 85.1695 175.986 85.5366C175.942 85.657 175.918 85.7657 175.918 85.8685V89.2138C175.918 89.6132 176.108 89.8863 176.492 90.0332C176.594 90.0625 176.697 90.0772 176.799 90.0772H182.932C183.666 90.0772 184.225 90.3856 184.608 91.0083C184.798 91.3313 184.895 91.6808 184.895 92.048C184.895 92.7852 184.588 93.3461 183.968 93.7309C183.646 93.9218 183.297 94.0187 182.929 94.0187H176.796C176.398 94.0187 176.126 94.2096 175.98 94.5944C175.936 94.6972 175.912 94.8 175.912 94.9027V98.3567C175.912 98.7561 176.103 99.0263 176.486 99.1761C176.588 99.2202 176.691 99.2436 176.793 99.2436H182.926C183.66 99.2436 184.219 99.552 184.602 100.175C184.793 100.498 184.889 100.844 184.889 101.217C184.889 101.94 184.582 102.501 183.962 102.9C183.64 103.076 183.292 103.173 182.923 103.188H172.773C172.346 103.188 172.044 102.988 171.869 102.589C171.825 102.457 171.802 102.33 171.802 102.213V82.0151C171.802 81.5863 172 81.2838 172.398 81.1076C172.515 81.0635 172.641 81.04 172.773 81.04H172.776H172.788Z" fill="white" style="fill:white;fill-opacity:1;"/>
<path d="M189.299 97.9367L189.673 97.6283C190.276 97.1554 190.923 97.0761 191.616 97.3845C191.868 97.4873 192.081 97.6283 192.257 97.8045C193.287 98.8237 194.507 99.3318 195.92 99.3318C197.333 99.3318 198.229 98.8501 198.787 97.8926C199.054 97.4491 199.182 96.9704 199.182 96.4535C199.182 95.5224 198.536 94.7794 197.243 94.2184C196.801 94.0275 195.955 93.7397 194.706 93.3549C192.824 92.7352 191.493 92.1361 190.712 91.5604C189.328 90.5266 188.632 89.0816 188.617 87.2195C188.617 85.4338 189.316 83.9506 190.712 82.767C192.081 81.6157 193.758 81.04 195.742 81.04C197.755 81.0547 199.493 81.5364 200.95 82.4792C201.567 82.8786 201.854 83.4543 201.81 84.2061C201.751 84.7965 201.491 85.2693 201.037 85.6247C200.435 86.0829 199.788 86.1563 199.098 85.845C198.937 85.7569 198.796 85.6688 198.679 85.5777C197.883 84.9433 196.915 84.6173 195.768 84.6026C194.355 84.6026 193.43 85.0843 192.988 86.0418C192.857 86.3502 192.783 86.6909 192.769 87.0609C192.769 87.9038 193.319 88.5823 194.422 89.0992C194.776 89.2754 195.686 89.6073 197.158 90.0949C199.232 90.7733 200.707 91.5046 201.593 92.2888C202.77 93.3667 203.358 94.7618 203.358 96.474C203.358 98.1863 202.726 99.7899 201.462 101.059C200.048 102.463 198.211 103.17 195.946 103.185C193.401 103.17 191.189 102.433 189.307 100.971C188.719 100.498 188.482 99.8927 188.602 99.1555C188.69 98.6533 188.924 98.248 189.307 97.9367H189.304H189.299Z" fill="white" style="fill:white;fill-opacity:1;"/>
<path d="M209.549 81.04C210.316 81.04 210.895 81.3631 211.293 82.0151C211.501 82.3558 211.603 82.7171 211.603 83.0989V101.126C211.603 101.878 211.287 102.463 210.655 102.877C210.304 103.068 209.935 103.17 209.552 103.185C208.803 103.185 208.221 102.862 207.808 102.21C207.603 101.869 207.501 101.508 207.501 101.126V83.0989C207.501 82.347 207.826 81.7625 208.472 81.3484C208.809 81.1428 209.169 81.04 209.552 81.04H209.549Z" fill="white" style="fill:white;fill-opacity:1;"/>
<path d="M87.2423 50.7174C87.2072 51.3694 87.0579 51.9891 86.8151 52.556L86.6688 52.8702L86.2914 53.6838L85.9519 54.418L80.0474 67.1823L80.0123 67.2587L80.0065 67.2733C79.9333 67.4525 79.8865 67.6463 79.8777 67.849C79.8777 67.8813 79.8777 67.9107 79.8777 67.943V75.168C79.8777 75.2415 79.8777 75.3178 79.8719 75.3912C79.8602 75.6115 79.8309 75.8259 79.787 76.0344C79.5061 77.3649 78.5903 78.4516 77.3819 78.9861C76.7938 79.2446 76.1355 79.3738 75.4508 79.3386C74.8978 79.3092 74.377 79.1741 73.9059 78.9568C72.8526 78.4722 72.0392 77.5646 71.6734 76.4691C71.5564 76.1137 71.4862 75.7407 71.4686 75.3501V67.6228C71.4686 67.3732 71.4745 67.1265 71.4891 66.8739C71.5154 66.404 71.5622 65.9429 71.6325 65.4876C71.8197 64.2688 72.165 63.1028 72.6478 62.0102L72.8409 61.5961L75.837 55.1229C75.9189 54.9496 75.9687 54.7587 75.9804 54.559C76.0213 53.7748 75.4537 53.0993 74.6871 52.9818L74.6111 52.9701L74.1429 52.9113L45.1558 49.2078L39.2132 48.45L39.1459 48.4412C36.4248 48.08 34.3298 45.8978 34.0665 43.2251C33.9875 42.388 33.9465 41.5392 33.9465 40.6816C33.9465 25.7675 46.0306 13.6758 60.9353 13.6758C73.3763 13.6758 83.8482 22.0962 86.9731 33.5505C87.0375 33.7884 87.0989 34.0293 87.1604 34.2701C87.2013 34.511 87.2218 34.7577 87.2218 35.0102C87.2218 37.4274 85.2643 39.3893 82.8475 39.3893C80.8199 39.3893 79.1111 38.006 78.6166 36.1322C78.6049 36.0823 78.5903 36.0294 78.5786 35.9795C76.5978 28.1141 69.4819 22.293 61.0084 22.293C51.9205 22.293 44.3921 28.9894 43.0901 37.724C43.0813 37.7769 43.0725 37.8298 43.0666 37.8826C43.0608 37.9179 43.0549 37.9531 43.052 37.9884C43.052 38.0236 43.0462 38.0559 43.0432 38.0912C42.9906 39.0721 43.646 39.9239 44.5647 40.1676L45.1031 40.2352L45.2962 40.2616L78.6605 44.5232L82.4262 45.0049L82.473 45.0108C84.4597 45.2722 86.0895 46.5733 86.8268 48.3208C87.1399 49.055 87.292 49.8715 87.2481 50.7233H87.2423V50.7174Z" fill="white" style="fill:white;fill-opacity:1;"/>
<path d="M62.6325 8.57165C62.6237 8.7185 62.4979 8.83304 62.3487 8.82423C61.8366 8.80073 61.3187 8.79193 60.7979 8.79193C40.7641 8.79193 24.5252 25.0424 24.5252 45.0875C24.5252 60.2719 33.8414 73.277 47.0665 78.6928C47.166 78.7369 47.2333 78.8368 47.2245 78.9513C47.2158 79.0982 47.0899 79.2127 46.9407 79.2039C46.9319 79.2039 46.9232 79.2039 46.9144 79.2039C46.8998 79.2039 46.8851 79.198 46.8734 79.1951C46.8734 79.1951 46.8676 79.1951 46.8647 79.1921C31.0178 75.3065 19.2585 60.9973 19.2585 43.9392C19.2585 23.894 35.4974 7.64355 55.5312 7.64355C57.8808 7.64355 60.1776 7.86971 62.4013 8.29557C62.5301 8.31613 62.6295 8.44242 62.6295 8.57458L62.6325 8.57165Z" fill="white" style="fill:white;fill-opacity:1;"/>
<path d="M55.1449 88.8522C54.0593 88.8522 53.0411 88.1825 52.649 87.1047C52.1487 85.7243 52.8568 84.1999 54.2349 83.6977L66.5501 79.2129C67.9282 78.7107 69.4526 79.4214 69.953 80.8018C70.4533 82.1822 69.7452 83.7065 68.3671 84.2088L56.0519 88.6936C55.7534 88.8022 55.4462 88.8551 55.1449 88.8551V88.8522Z" fill="white" style="fill:white;fill-opacity:1;"/>
<path d="M61.5264 103.178C60.4409 103.178 59.4227 102.509 59.0306 101.431C58.5303 100.05 59.2384 98.5261 60.6165 98.0239L72.9317 93.5391C74.3098 93.0369 75.8342 93.7476 76.3346 95.128C76.8349 96.5084 76.1268 98.0327 74.7487 98.5349L62.4335 103.02C62.135 103.128 61.8278 103.181 61.5264 103.181V103.178Z" fill="white" style="fill:white;fill-opacity:1;"/>
<path d="M56.5054 96.6705C55.4199 96.6705 54.4017 96.0009 54.0096 94.923C53.5093 93.5426 54.2174 92.0183 55.5955 91.516L74.3214 84.6963C75.6995 84.1941 77.2239 84.9048 77.7243 86.2852C78.2246 87.6656 77.5165 89.1899 76.1384 89.6922L57.4125 96.5119C57.114 96.6206 56.8068 96.6734 56.5054 96.6734V96.6705Z" fill="white" style="fill:white;fill-opacity:1;"/>
</svg>
