<svg width="423" height="145" viewBox="0 0 423 145" fill="none" xmlns="http://www.w3.org/2000/svg">
<path d="M134.56 27.1461C134.56 22.6025 136.003 18.7628 138.893 15.6268C141.623 12.6468 145.084 10.9229 149.27 10.4552C149.965 10.3884 150.66 10.3527 151.355 10.3527C155.519 10.3527 159.158 11.6935 162.266 14.384C162.689 14.7449 163.095 15.1235 163.473 15.5244C164.302 16.3975 164.524 17.4175 164.146 18.5802C163.901 19.2973 163.473 19.8586 162.867 20.2595H162.832C161.825 20.9098 160.797 20.9544 159.741 20.3931C159.38 20.1927 159.082 19.9566 158.832 19.6849C156.886 17.471 154.388 16.3574 151.346 16.3574C148.144 16.3574 145.516 17.4532 143.454 19.6492C141.548 21.7116 140.599 24.2061 140.599 27.1372C140.599 30.0682 141.641 32.7676 143.721 34.8256C145.779 36.8168 148.277 37.8146 151.208 37.8146C154.566 37.8146 157.251 36.496 159.269 33.8501C159.986 32.9325 160.926 32.5538 162.088 32.7097C162.471 32.7543 162.827 32.8656 163.161 33.0438C163.406 33.1552 163.625 33.3066 163.816 33.4982C164.008 33.6897 164.168 33.8902 164.302 34.104C164.435 34.3178 164.547 34.545 164.636 34.79C164.725 35.035 164.774 35.2889 164.787 35.5472C164.8 35.8056 164.787 36.055 164.751 36.3045C164.716 36.5495 164.645 36.7945 164.533 37.0439C164.422 37.2934 164.275 37.525 164.097 37.7522C161.5 40.9327 158.267 42.8882 154.392 43.6321C153.386 43.8325 152.366 43.935 151.337 43.935C146.589 43.935 142.652 42.4249 139.517 39.4003C136.631 36.5807 134.992 33.0438 134.613 28.7898C134.569 28.2285 134.546 27.6806 134.546 27.1461H134.551H134.56Z" fill="#0A69BD"/>
<path d="M173.057 10.3839C174.131 10.3839 174.937 10.8427 175.476 11.7603C175.743 12.228 175.881 12.7136 175.881 13.2036V41.1153C175.881 42.1888 175.422 42.9995 174.505 43.534C174.055 43.8013 173.574 43.9394 173.062 43.9394C172.006 43.9394 171.205 43.4806 170.644 42.563C170.399 42.1131 170.274 41.632 170.274 41.1197V13.208C170.274 12.1345 170.733 11.3282 171.65 10.7892C172.095 10.5442 172.568 10.4062 173.062 10.3839H173.057Z" fill="#0A69BD"/>
<path d="M200.212 43.3648C199.722 43.3648 199.406 43.142 199.272 42.6921C199.227 42.5808 199.205 42.4694 199.205 42.358V41.3157C199.205 41.093 199.094 40.9816 198.871 40.9816C198.76 40.9593 198.657 40.995 198.568 41.0841C196.778 42.9683 194.435 43.9171 191.549 43.9394C187.563 43.9394 184.686 42.4516 182.918 39.4715C181.822 37.5918 181.275 35.271 181.275 32.5181V19.7561C181.275 18.6157 181.764 17.7426 182.753 17.1368C183.243 16.8473 183.782 16.6914 184.365 16.6691H184.432C185.595 16.6691 186.481 17.1591 187.087 18.148C187.376 18.6647 187.523 19.2037 187.523 19.7605V31.8856C187.523 35.5783 188.855 37.7521 191.518 38.4025C192.057 38.5361 192.627 38.6029 193.228 38.6029C195.491 38.6029 197.143 37.6274 198.199 35.6808C198.849 34.4915 199.174 33.0482 199.174 31.3466V19.7605C199.174 18.6202 199.655 17.7471 200.617 17.1413C201.134 16.8517 201.668 16.6958 202.229 16.6736C203.392 16.6736 204.278 17.1636 204.884 18.1525C205.173 18.6692 205.32 19.2082 205.32 19.765V38.2688C205.32 39.9482 204.661 41.3023 203.338 42.3313C202.398 43.0262 201.356 43.3737 200.216 43.3737L200.212 43.3648Z" fill="#0A69BD"/>
<path d="M216.962 41.0485C216.962 41.9661 216.557 42.6477 215.751 43.0976C215.39 43.2757 215.011 43.3782 214.611 43.4005H213.332C212.393 43.4005 211.707 42.9862 211.284 42.1577C211.083 41.7969 210.981 41.4271 210.981 41.0485V13.3729C210.981 12.2548 211.462 11.404 212.424 10.8205C212.914 10.5309 213.439 10.375 214.005 10.3527C215.123 10.3527 215.973 10.8338 216.557 11.796C216.846 12.286 216.993 12.8161 216.993 13.3773V19.5601C216.993 19.8051 217.114 19.9432 217.363 19.9655C217.497 19.9432 217.599 19.8987 217.666 19.8319C219.568 17.9075 221.986 16.8875 224.921 16.7761C225.099 16.7538 225.282 16.7405 225.46 16.7405C228.729 16.7405 231.561 17.814 233.957 19.9655C236.777 22.6961 238.22 26.1706 238.291 30.3756C238.291 34.496 236.915 37.8546 234.158 40.4516C231.873 42.6031 229.201 43.7568 226.132 43.9127C225.932 43.935 225.727 43.9484 225.527 43.9484C222.28 43.9261 219.648 42.8748 217.635 40.7902C217.434 40.5897 217.243 40.5897 217.065 40.7902C216.998 40.8792 216.962 40.9683 216.962 41.0574V41.0485ZM232.341 30.2687C232.341 27.8054 231.454 25.7786 229.686 24.1883C228.185 22.8475 226.395 22.1972 224.311 22.2417C222.026 22.2863 220.124 23.2173 218.601 25.0302C217.367 26.5537 216.744 28.2775 216.722 30.2019C216.722 32.7097 217.586 34.7677 219.309 36.3847C220.766 37.7032 222.498 38.3758 224.516 38.3981C226.707 38.3981 228.564 37.6141 230.074 36.0461C231.584 34.4782 232.341 32.5538 232.341 30.2687Z" fill="#0A69BD"/>
<path d="M135.695 86.4706L136.265 86.0029C137.183 85.2857 138.167 85.1654 139.223 85.6332C139.606 85.7935 139.931 86.0029 140.198 86.2701C141.766 87.8158 143.623 88.5864 145.774 88.5864C147.925 88.5864 149.288 87.8559 150.139 86.4038C150.544 85.7311 150.744 85.0051 150.744 84.2211C150.744 82.809 149.76 81.682 147.787 80.8312C147.115 80.5417 145.828 80.1051 143.926 79.5216C141.062 78.5817 139.036 77.673 137.847 76.7999C135.74 75.232 134.68 73.0403 134.658 70.2162C134.658 67.5079 135.722 65.2539 137.847 63.4632C139.931 61.7171 142.483 60.844 145.502 60.844C148.567 60.8663 151.212 61.5968 153.43 63.0267C154.37 63.6325 154.806 64.5056 154.739 65.6459C154.65 66.5413 154.258 67.2584 153.564 67.7974C152.646 68.4923 151.657 68.6037 150.606 68.1315C150.361 67.9979 150.148 67.8643 149.969 67.7262C148.758 66.764 147.284 66.2696 145.538 66.2473C143.387 66.2473 141.98 66.9778 141.307 68.43C141.107 68.8977 140.995 69.4144 140.973 69.9757C140.973 71.2541 141.81 72.2831 143.489 73.0671C144.028 73.3344 145.413 73.8377 147.654 74.5772C150.811 75.6061 153.06 76.7153 154.405 77.9046C156.196 79.5394 157.091 81.6553 157.091 84.2523C157.091 86.8492 156.129 89.2813 154.205 91.2057C152.054 93.3349 149.257 94.4085 145.81 94.4307C141.935 94.4085 138.568 93.2904 135.704 91.072C134.809 90.3549 134.448 89.4373 134.631 88.3192C134.765 87.5575 135.121 86.9427 135.704 86.4706H135.695Z" fill="#0A69BD"/>
<path d="M163.602 78.4121C164.141 75.0979 165.731 72.3673 168.372 70.2158C170.991 68.1089 173.957 67.0799 177.271 67.1244C181.056 67.1912 184.21 68.5231 186.739 71.1201C187.029 71.4096 187.301 71.7125 187.545 72.0288C188.285 72.9242 188.432 73.9086 187.982 74.9866C187.67 75.7037 187.167 76.2071 186.472 76.4966L186.37 76.5634C185.319 77.0134 184.334 76.853 183.412 76.0957C183.234 75.9398 183.078 75.7839 182.945 75.628C181.444 73.7705 179.484 72.8395 177.066 72.8395C174.826 72.8172 172.933 73.6458 171.392 75.3251C170.363 76.4655 169.713 77.7795 169.446 79.254C168.996 81.7618 169.535 83.9579 171.058 85.8377C172.67 87.6952 174.683 88.6484 177.102 88.693C179.564 88.693 181.533 87.7308 183.012 85.8065C183.729 84.8889 184.633 84.4969 185.733 84.6305C186 84.6751 186.258 84.7419 186.503 84.8309L186.606 84.8978C187.612 85.3254 188.187 86.0737 188.316 87.1473C188.427 87.9313 188.249 88.6351 187.777 89.2631C185.448 92.3056 182.317 93.9983 178.375 94.3368C177.908 94.3813 177.444 94.4036 176.999 94.4036C173.351 94.4036 170.225 93.1697 167.628 90.7109C165.121 88.3366 163.723 85.4145 163.429 81.9445C163.34 80.7818 163.393 79.6059 163.593 78.4165H163.598L163.602 78.4121Z" fill="#0A69BD"/>
<path d="M196.546 69.9575C197.62 69.9575 198.43 70.4163 198.965 71.3339C199.232 71.8016 199.37 72.2872 199.37 72.7772V91.5839C199.37 92.6575 198.911 93.4637 197.994 94.0027C197.544 94.27 197.063 94.4081 196.551 94.4081C195.5 94.4081 194.694 93.9493 194.132 93.0316C193.887 92.5817 193.763 92.1007 193.763 91.5884V72.7816C193.763 71.7081 194.221 70.9018 195.139 70.3628C195.584 70.1178 196.056 69.9798 196.551 69.9575H196.546ZM193.861 63.6099C193.861 62.5586 194.306 61.7523 195.201 61.1911C195.669 60.9238 196.163 60.7857 196.68 60.7857C197.731 60.7857 198.537 61.2356 199.098 62.1265C199.366 62.5942 199.504 63.0887 199.504 63.6054C199.504 64.6611 199.054 65.4629 198.163 66.0242C197.695 66.2915 197.201 66.4295 196.684 66.4295C195.629 66.4295 194.827 65.9841 194.266 65.0887C193.999 64.621 193.861 64.1266 193.861 63.6099Z" fill="#0A69BD"/>
<path d="M204.804 80.3856C204.893 76.7374 206.193 73.6237 208.701 71.049C211.141 68.5412 214.13 67.1737 217.666 66.9509C218.156 66.9287 218.65 66.9153 219.145 66.9153C222.952 67.0712 226.075 68.4476 228.515 71.049C230.911 73.6237 232.109 76.7819 232.109 80.5192V80.7865C232.109 81.6373 231.726 82.2431 230.969 82.5995C230.68 82.7331 230.386 82.7999 230.096 82.7999H211.493C211.132 82.7999 210.923 82.9826 210.856 83.3389C210.834 83.4726 210.843 83.5839 210.892 83.673C211.698 86.0918 213.266 87.7132 215.595 88.5418C216.579 88.8758 217.63 89.0451 218.753 89.0451C221.327 89.0228 223.376 88.1141 224.899 86.3234C225.571 85.4949 226.458 85.192 227.553 85.4147C227.887 85.4815 228.181 85.5973 228.426 85.7488C229.388 86.2878 229.86 87.103 229.838 88.2032C229.816 88.9427 229.58 89.5796 229.13 90.1186C226.511 92.9606 223.05 94.3949 218.753 94.4172C216 94.4172 213.542 93.7891 211.382 92.533C209.222 91.2768 207.569 89.5796 206.429 87.4459C205.289 85.3078 204.75 82.9514 204.817 80.3767H204.813L204.804 80.3856ZM211.921 77.6996H225.019C225.402 77.6996 225.625 77.5214 225.692 77.1606C225.692 77.0492 225.678 76.9379 225.656 76.8265C224.672 74.1627 222.676 72.6705 219.679 72.3587C219.296 72.3141 218.917 72.2919 218.539 72.2919C215.92 72.2919 213.836 73.2674 212.29 75.214C211.907 75.704 211.582 76.2341 211.315 76.7953C211.137 77.1561 211.226 77.4323 211.582 77.6328C211.694 77.6773 211.805 77.6996 211.916 77.6996H211.921Z" fill="#0A69BD"/>
<path d="M241.805 67.6995H242.411C243.016 67.6995 243.417 67.9801 243.618 68.5369C243.662 68.6705 243.684 68.8041 243.684 68.9422V70.1182C243.684 70.3409 243.796 70.4434 244.018 70.4211C244.107 70.3989 244.174 70.3632 244.219 70.3187C246.165 68.2117 248.65 67.1515 251.674 67.1293C255.994 67.1293 259.027 68.7329 260.773 71.9312C261.758 73.7442 262.252 75.9491 262.252 78.5461V91.3081C262.252 92.4485 261.771 93.3216 260.809 93.9274C260.297 94.2169 259.758 94.3728 259.197 94.3951H259.094C257.954 94.3951 257.081 93.9051 256.475 92.9162C256.164 92.4039 256.008 91.8649 256.008 91.3037V79.1786C256.008 75.8199 254.801 73.7174 252.382 72.8666C251.665 72.5994 250.873 72.4613 250 72.4613C247.737 72.4613 246.036 73.3789 244.896 75.2186C244.134 76.4525 243.742 77.9492 243.72 79.7221V91.3081C243.72 92.4485 243.239 93.3216 242.277 93.9274C241.765 94.2169 241.221 94.3728 240.665 94.3951C239.525 94.3951 238.652 93.9051 238.046 92.9162C237.734 92.3995 237.578 91.8649 237.578 91.3037V71.9223C237.578 70.4434 238.184 69.2897 239.391 68.4611C240.13 67.9444 240.936 67.6905 241.809 67.6905H241.8L241.805 67.6995Z" fill="#0A69BD"/>
<path d="M270.616 68.0603H271.859C272.17 67.9712 272.348 67.793 272.397 67.5213V65.205C272.42 64.421 272.745 63.8063 273.373 63.3564L276.731 61.0712C277.225 60.7371 277.693 60.7683 278.143 61.1737C278.388 61.4187 278.521 61.7127 278.544 62.0468V67.5213C278.544 67.8108 278.682 67.9801 278.949 68.0246C278.993 68.0246 279.038 68.038 279.082 68.0603H281.167C282.218 68.0603 283.015 68.5102 283.549 69.4011C283.772 69.8287 283.897 70.2875 283.924 70.7775C283.924 71.8065 283.465 72.5905 282.543 73.1295C282.12 73.3745 281.661 73.4992 281.167 73.4992H279.087C278.771 73.566 278.593 73.7442 278.552 74.0382V83.3748C278.552 85.5708 278.82 86.9784 279.359 87.6065C279.675 87.9896 280.107 88.2569 280.668 88.4128C282.031 88.7958 282.997 89.6556 283.554 91.0008C283.777 91.5621 283.901 92.1411 283.928 92.747V94.4263H283.051C279.091 94.4263 276.348 93.6913 274.82 92.2258C273.297 90.7603 272.491 88.1009 272.402 84.2478V74.0382C272.335 73.7486 272.157 73.5704 271.863 73.4992H270.62C269.592 73.4992 268.808 73.0538 268.269 72.1584C268.024 71.713 267.899 71.2497 267.899 70.782C267.899 69.7307 268.345 68.9467 269.24 68.43C269.685 68.185 270.148 68.0603 270.616 68.0603Z" fill="#0A69BD"/>
<path d="M292.421 69.9575C293.495 69.9575 294.305 70.4163 294.84 71.3339C295.107 71.8016 295.245 72.2872 295.245 72.7772V91.5839C295.245 92.6575 294.786 93.4637 293.869 94.0027C293.419 94.27 292.938 94.4081 292.426 94.4081C291.375 94.4081 290.564 93.9493 290.007 93.0316C289.762 92.5817 289.638 92.1007 289.638 91.5884V72.7816C289.638 71.7081 290.096 70.9018 291.014 70.3628C291.459 70.1178 291.931 69.9798 292.421 69.9575ZM289.731 63.6099C289.731 62.5586 290.177 61.7523 291.076 61.1911C291.544 60.9238 292.038 60.7857 292.555 60.7857C293.606 60.7857 294.412 61.2356 294.973 62.1265C295.24 62.5942 295.378 63.0887 295.378 63.6054C295.378 64.6611 294.929 65.4629 294.033 66.0242C293.561 66.2915 293.071 66.4295 292.555 66.4295C291.504 66.4295 290.693 65.9841 290.136 65.0887C289.865 64.621 289.731 64.1266 289.731 63.6099Z" fill="#0A69BD"/>
<path d="M300.634 72.2916C300.634 71.3072 301.07 70.5811 301.943 70.1089C302.326 69.9308 302.714 69.8417 303.119 69.8417H304.696V69.7748C304.696 65.8104 305.724 63.1154 307.782 61.6811C309.35 60.6076 311.666 60.0686 314.734 60.0686H315.206V63.7613C315.206 64.4339 314.904 64.8928 314.298 65.1378C314.142 65.1823 313.986 65.2179 313.83 65.2402C312.173 65.3516 311.131 65.8683 310.708 66.7859C310.463 67.3472 310.33 68.149 310.307 69.2047C310.307 69.5655 310.472 69.7659 310.811 69.8105C310.855 69.8328 310.886 69.8461 310.913 69.8461H312.726C313.71 69.8461 314.436 70.2738 314.908 71.1246C315.108 71.5076 315.211 71.8952 315.211 72.3005C315.211 73.285 314.774 74.0111 313.901 74.4832C313.545 74.6837 313.153 74.7861 312.73 74.7861H310.918C310.557 74.8529 310.356 75.0534 310.312 75.3919V91.6151C310.312 92.6887 309.853 93.4994 308.931 94.0339C308.464 94.3012 307.978 94.4392 307.488 94.4392C306.437 94.4392 305.626 93.9805 305.065 93.0628C304.82 92.6129 304.696 92.1319 304.696 91.6196V75.3964C304.629 75.0623 304.428 74.8574 304.09 74.7906H303.115C302.126 74.7906 301.404 74.354 300.928 73.481C300.727 73.1202 300.625 72.7326 300.625 72.305L300.634 72.2916Z" fill="#0A69BD"/>
<path d="M323.9 69.9575C324.973 69.9575 325.784 70.4163 326.318 71.3339C326.585 71.8016 326.724 72.2872 326.724 72.7772V91.5839C326.724 92.6575 326.265 93.4637 325.347 94.0027C324.898 94.27 324.417 94.4081 323.904 94.4081C322.853 94.4081 322.043 93.9493 321.486 93.0316C321.241 92.5817 321.112 92.1007 321.112 91.5884V72.7816C321.112 71.7081 321.571 70.9018 322.488 70.3628C322.938 70.1178 323.406 69.9798 323.9 69.9575ZM321.214 63.6099C321.214 62.5586 321.66 61.7523 322.555 61.1911C323.027 60.9238 323.517 60.7857 324.034 60.7857C325.085 60.7857 325.895 61.2356 326.456 62.1265C326.724 62.5942 326.857 63.0887 326.857 63.6054C326.857 64.6611 326.407 65.4629 325.517 66.0242C325.045 66.2915 324.55 66.4295 324.038 66.4295C322.987 66.4295 322.181 65.9841 321.62 65.0887C321.352 64.621 321.219 64.1266 321.219 63.6099H321.214Z" fill="#0A69BD"/>
<path d="M353.517 70.0332C353.517 69.1156 353.923 68.434 354.724 67.9841C355.103 67.806 355.486 67.7035 355.864 67.6812H357.143C358.082 67.6812 358.777 68.0955 359.222 68.9241C359.405 69.2849 359.494 69.6546 359.494 70.0332V99.3882C359.494 100.506 359.009 101.37 358.051 101.976C357.557 102.243 357.031 102.39 356.47 102.413C355.352 102.413 354.501 101.932 353.923 100.97C353.629 100.48 353.486 99.9494 353.486 99.3882V91.5305C353.486 91.2855 353.361 91.1474 353.116 91.1251C352.983 91.1474 352.88 91.1919 352.814 91.2587C350.912 93.1831 348.493 94.2032 345.558 94.3145C345.38 94.3368 345.211 94.3502 345.055 94.3502C341.764 94.3502 338.922 93.2766 336.526 91.1251C333.707 88.4168 332.26 84.9423 332.193 80.715C332.193 76.5946 333.569 73.236 336.321 70.639C338.606 68.4875 341.283 67.3338 344.347 67.1779C344.547 67.1556 344.752 67.1423 344.953 67.1423C348.222 67.1645 350.854 68.2158 352.845 70.3005C353.045 70.5009 353.237 70.5009 353.415 70.3005C353.482 70.2114 353.517 70.1223 353.517 70.0332ZM338.139 80.8175C338.139 83.3031 339.02 85.3299 340.793 86.8978C342.312 88.2386 344.102 88.889 346.164 88.8444C348.449 88.7999 350.351 87.8689 351.874 86.0559C353.103 84.5325 353.735 82.8086 353.758 80.8843C353.758 78.3764 352.898 76.3185 351.175 74.7015C349.718 73.383 347.995 72.7104 346.004 72.6881C343.585 72.6881 341.604 73.5968 340.058 75.4098C338.78 76.9555 338.148 78.7595 338.148 80.8175H338.139Z" fill="#0A69BD"/>
<path d="M384.217 93.8294C383.722 93.8294 383.41 93.6067 383.277 93.1568C383.232 93.0454 383.21 92.9341 383.21 92.8227V91.7804C383.21 91.5577 383.099 91.4463 382.872 91.4463C382.76 91.424 382.662 91.4596 382.569 91.5487C380.778 93.433 378.44 94.3818 375.55 94.4041C371.564 94.4041 368.686 92.9163 366.918 89.9362C365.823 88.0564 365.275 85.7357 365.275 82.9828V70.2207C365.275 69.0804 365.769 68.2073 366.754 67.6015C367.248 67.312 367.782 67.1561 368.366 67.1338H368.433C369.595 67.1338 370.481 67.6238 371.087 68.6127C371.377 69.1249 371.523 69.6684 371.523 70.2252V82.3502C371.523 86.043 372.855 88.2168 375.518 88.8671C376.057 89.0008 376.627 89.0676 377.229 89.0676C379.491 89.0676 381.148 88.0921 382.199 86.1455C382.849 84.9606 383.174 83.5129 383.174 81.8113V70.2252C383.174 69.0848 383.651 68.2118 384.617 67.606C385.13 67.3164 385.668 67.1605 386.225 67.1382C387.392 67.1382 388.274 67.6282 388.88 68.6171C389.174 69.1294 389.316 69.6728 389.316 70.2296V88.7335C389.316 90.4128 388.652 91.767 387.334 92.796C386.394 93.4909 385.352 93.8383 384.212 93.8383L384.217 93.8294Z" fill="#0A69BD"/>
<path d="M395.066 80.3856C395.155 76.7374 396.451 73.6237 398.963 71.049C401.403 68.5412 404.392 67.1737 407.928 66.9509C408.418 66.9287 408.912 66.9153 409.407 66.9153C413.21 67.0712 416.337 68.4476 418.777 71.049C421.173 73.6237 422.371 76.7819 422.371 80.5192V80.7865C422.371 81.6373 421.993 82.2431 421.231 82.5995C420.937 82.7331 420.648 82.7999 420.354 82.7999H401.751C401.394 82.7999 401.181 82.9826 401.114 83.3389C401.092 83.4726 401.105 83.5839 401.145 83.673C401.951 86.0918 403.519 87.7132 405.848 88.5418C406.837 88.8758 407.888 89.0451 409.006 89.0451C411.58 89.0228 413.629 88.1141 415.152 86.3234C415.82 85.4949 416.706 85.192 417.806 85.4147C418.14 85.4815 418.434 85.5973 418.679 85.7488C419.641 86.2878 420.113 87.103 420.087 88.2032C420.064 88.9427 419.828 89.5796 419.383 90.1186C416.764 92.9606 413.304 94.3949 409.006 94.4172C406.253 94.4172 403.795 93.7891 401.635 92.533C399.47 91.2768 397.823 89.5796 396.682 87.4459C395.542 85.3078 395.003 82.9514 395.07 80.3767L395.066 80.3856ZM402.183 77.6996H415.281C415.66 77.6996 415.887 77.5214 415.949 77.1606C415.949 77.0492 415.94 76.9379 415.918 76.8265C414.934 74.1627 412.938 72.6705 409.941 72.3587C409.563 72.3141 409.18 72.2919 408.801 72.2919C406.182 72.2919 404.098 73.2674 402.552 75.214C402.174 75.704 401.849 76.2341 401.577 76.7953C401.399 77.1561 401.488 77.4323 401.844 77.6328C401.956 77.6773 402.067 77.6996 402.183 77.6996Z" fill="#0A69BD"/>
<path d="M134.555 131.296C134.555 127.042 135.967 123.625 138.786 121.051C141.294 118.859 144.193 117.736 147.484 117.692C150.575 117.714 153.127 118.676 155.14 120.578C155.341 120.779 155.532 120.77 155.71 120.543C155.777 120.454 155.813 120.374 155.813 120.307V114.329C155.813 113.211 156.294 112.36 157.256 111.776C157.746 111.487 158.271 111.34 158.837 111.34H158.873C159.99 111.34 160.854 111.808 161.456 112.752C161.723 113.264 161.87 113.794 161.892 114.333V141.305C161.892 142.423 161.411 143.287 160.449 143.893C159.959 144.183 159.429 144.33 158.868 144.33C157.75 144.33 156.9 143.849 156.316 142.886C156.027 142.396 155.88 141.866 155.88 141.305C155.88 141.194 155.822 141.149 155.715 141.171C155.67 141.194 155.635 141.216 155.612 141.238C153.867 143.301 151.551 144.486 148.66 144.797C148.233 144.842 147.81 144.864 147.382 144.864C144.313 144.864 141.583 143.844 139.187 141.808C136.368 139.412 134.832 136.245 134.587 132.303C134.564 131.968 134.551 131.63 134.551 131.296H134.555ZM156.187 131.465C156.254 128.98 155.434 126.922 153.733 125.282C152.232 123.893 150.442 123.198 148.357 123.198C145.939 123.198 143.957 124.106 142.412 125.919C141.133 127.42 140.497 129.189 140.497 131.225C140.497 133.71 141.37 135.746 143.115 137.336C144.616 138.655 146.384 139.318 148.42 139.318C150.705 139.318 152.62 138.423 154.161 136.632C155.439 135.131 156.107 133.407 156.174 131.461L156.187 131.465Z" fill="#0A69BD"/>
<path d="M167.637 130.859C167.727 127.211 169.027 124.097 171.534 121.523C173.975 119.015 176.964 117.647 180.5 117.425C180.99 117.402 181.484 117.389 181.978 117.389C185.786 117.549 188.908 118.926 191.349 121.523C193.745 124.097 194.943 127.256 194.943 130.993V131.26C194.943 132.111 194.56 132.717 193.803 133.073C193.514 133.207 193.22 133.274 192.93 133.274H174.327C173.966 133.274 173.757 133.456 173.69 133.813C173.668 133.946 173.677 134.058 173.726 134.147C174.532 136.566 176.1 138.187 178.429 139.015C179.413 139.35 180.464 139.519 181.586 139.519C184.161 139.497 186.209 138.588 187.733 136.797C188.405 135.969 189.291 135.666 190.387 135.888C190.721 135.955 191.015 136.067 191.26 136.223C192.222 136.762 192.694 137.577 192.672 138.677C192.649 139.416 192.413 140.053 191.964 140.592C189.345 143.434 185.884 144.869 181.586 144.891C178.83 144.891 176.376 144.263 174.216 143.011C172.056 141.755 170.403 140.058 169.263 137.924C168.123 135.786 167.584 133.43 167.651 130.855L167.637 130.859ZM174.759 128.173H187.857C188.24 128.173 188.463 127.995 188.53 127.634C188.53 127.523 188.516 127.412 188.494 127.3C187.51 124.636 185.515 123.149 182.517 122.832C182.134 122.788 181.756 122.766 181.377 122.766C178.758 122.766 176.674 123.741 175.133 125.688C174.75 126.178 174.425 126.708 174.158 127.269C173.975 127.63 174.069 127.906 174.425 128.106C174.536 128.151 174.648 128.173 174.759 128.173Z" fill="#0A69BD"/>
<path d="M213.769 111.326C214.842 111.326 215.648 111.785 216.187 112.703C216.454 113.17 216.593 113.656 216.593 114.146V142.058C216.593 143.131 216.134 143.937 215.216 144.476C214.767 144.744 214.286 144.882 213.773 144.882C212.722 144.882 211.916 144.423 211.355 143.505C211.11 143.055 210.985 142.574 210.985 142.062V114.15C210.985 113.077 211.444 112.266 212.362 111.732C212.807 111.487 213.279 111.349 213.773 111.326H213.769Z" fill="#0A69BD"/>
<path d="M222.663 119.817C222.552 116.774 222.462 114.355 222.396 112.56C222.373 111.709 222.707 111.295 223.402 111.317L225.616 111.353C226.039 111.398 226.422 111.62 226.756 112.026C227.068 112.453 227.201 112.912 227.161 113.402L227.125 113.438V113.705L227.09 113.741V114.008L227.054 114.044V114.347L227.019 114.382V114.649L226.983 114.685V114.952L226.947 114.988V115.255L226.912 115.291V115.558L226.876 115.594V115.897L226.84 115.932V116.2L226.805 116.235V116.271C226.56 118.485 226.4 119.946 226.337 120.636C226.27 121.22 225.99 121.545 225.5 121.612C225.433 121.634 225.375 121.647 225.335 121.647L224.226 121.612C223.821 121.589 223.465 121.411 223.153 121.073C222.863 120.69 222.694 120.28 222.65 119.83L222.663 119.817Z" fill="#0A69BD"/>
<path d="M233.695 111.318H249.145C250.262 111.318 251.113 111.785 251.697 112.73C251.986 113.22 252.133 113.75 252.133 114.311C252.133 115.429 251.665 116.28 250.721 116.864C250.231 117.153 249.701 117.3 249.14 117.3H239.805C239.199 117.3 238.785 117.581 238.563 118.138C238.496 118.32 238.46 118.485 238.46 118.641V123.715C238.46 124.32 238.75 124.735 239.333 124.957C239.489 125.002 239.645 125.024 239.801 125.024H249.136C250.254 125.024 251.104 125.492 251.688 126.436C251.977 126.926 252.124 127.456 252.124 128.013C252.124 129.131 251.656 129.982 250.712 130.566C250.222 130.855 249.692 131.002 249.131 131.002H239.796C239.191 131.002 238.776 131.292 238.554 131.875C238.487 132.031 238.451 132.187 238.451 132.343V137.581C238.451 138.187 238.741 138.597 239.324 138.824C239.48 138.891 239.636 138.927 239.792 138.927H249.127C250.245 138.927 251.095 139.394 251.679 140.339C251.968 140.829 252.115 141.354 252.115 141.92C252.115 143.016 251.648 143.867 250.703 144.472C250.213 144.74 249.683 144.887 249.122 144.909H233.672C233.022 144.909 232.563 144.606 232.296 144C232.229 143.8 232.194 143.608 232.194 143.43V112.797C232.194 112.146 232.497 111.687 233.102 111.42C233.28 111.353 233.472 111.318 233.672 111.318H233.677H233.695Z" fill="#0A69BD"/>
<path d="M258.827 136.944L259.397 136.477C260.314 135.759 261.299 135.639 262.354 136.107C262.737 136.263 263.062 136.477 263.33 136.744C264.897 138.29 266.754 139.06 268.906 139.06C271.057 139.06 272.42 138.33 273.27 136.878C273.676 136.205 273.872 135.479 273.872 134.695C273.872 133.283 272.887 132.156 270.919 131.305C270.246 131.015 268.959 130.579 267.057 129.995C264.194 129.055 262.167 128.147 260.978 127.274C258.871 125.706 257.811 123.514 257.789 120.69C257.789 117.982 258.854 115.732 260.978 113.937C263.062 112.191 265.614 111.318 268.634 111.318C271.698 111.34 274.344 112.071 276.562 113.5C277.501 114.106 277.938 114.979 277.871 116.12C277.782 117.015 277.385 117.732 276.695 118.271C275.778 118.966 274.793 119.077 273.742 118.605C273.497 118.472 273.284 118.338 273.105 118.2C271.894 117.238 270.42 116.743 268.674 116.721C266.523 116.721 265.116 117.452 264.443 118.904C264.243 119.371 264.131 119.888 264.109 120.449C264.109 121.728 264.946 122.757 266.625 123.541C267.164 123.808 268.549 124.311 270.79 125.051C273.947 126.08 276.192 127.189 277.541 128.378C279.332 130.013 280.227 132.129 280.227 134.726C280.227 137.323 279.265 139.755 277.341 141.679C275.19 143.809 272.393 144.882 268.946 144.904C265.071 144.882 261.704 143.764 258.84 141.546C257.945 140.829 257.584 139.911 257.767 138.793C257.901 138.031 258.257 137.417 258.84 136.944H258.836H258.827Z" fill="#0A69BD"/>
<path d="M289.651 111.318C290.818 111.318 291.7 111.808 292.305 112.797C292.622 113.313 292.778 113.861 292.778 114.44V141.782C292.778 142.922 292.297 143.809 291.335 144.437C290.8 144.726 290.239 144.882 289.656 144.904C288.515 144.904 287.629 144.414 287.001 143.426C286.689 142.909 286.533 142.361 286.533 141.782V114.44C286.533 113.3 287.028 112.414 288.012 111.785C288.524 111.474 289.072 111.318 289.656 111.318H289.651Z" fill="#0A69BD"/>
<path d="M103.482 65.3297C103.428 66.3186 103.201 67.2585 102.832 68.1182L102.609 68.5948L102.034 69.8287L101.518 70.9423L92.5301 90.3015L92.4767 90.4173L92.4678 90.4395C92.3564 90.7113 92.2852 91.0053 92.2718 91.3126C92.2718 91.3616 92.2718 91.4062 92.2718 91.4552V102.413C92.2718 102.525 92.2718 102.64 92.2629 102.752C92.2451 103.086 92.2006 103.411 92.1338 103.727C91.7062 105.745 90.3122 107.393 88.4728 108.204C87.5776 108.596 86.5755 108.792 85.5334 108.739C84.6916 108.694 83.8989 108.489 83.1818 108.159C81.5785 107.424 80.3403 106.048 79.7836 104.386C79.6055 103.848 79.4986 103.282 79.4719 102.689V90.9696C79.4719 90.591 79.4808 90.2168 79.503 89.8337C79.5431 89.121 79.6144 88.4217 79.7213 87.7312C80.0063 85.8826 80.5318 84.1142 81.2667 82.4571L81.5607 81.8291L86.1213 72.0114C86.246 71.7486 86.3217 71.4591 86.3395 71.1562C86.4018 69.9668 85.5378 68.9423 84.3709 68.7641L84.2552 68.7463L83.5426 68.6572L39.4197 63.0401L30.3742 61.8908L30.2718 61.8775C26.1299 61.3296 22.941 58.0199 22.5402 53.9663C22.4199 52.6968 22.3576 51.4095 22.3576 50.1088C22.3576 27.489 40.7514 9.14993 63.4385 9.14993C82.3757 9.14993 98.3155 21.9209 103.072 39.2933C103.17 39.6541 103.264 40.0194 103.357 40.3847C103.419 40.7499 103.451 41.1241 103.451 41.5072C103.451 45.1732 100.471 48.1488 96.7923 48.1488C93.7059 48.1488 91.105 46.0508 90.3523 43.2088C90.3345 43.1331 90.3122 43.0529 90.2944 42.9772C87.2792 31.0481 76.4478 22.2193 63.5499 22.2193C49.7167 22.2193 38.2573 32.3755 36.2754 45.6231C36.262 45.7033 36.2487 45.7835 36.2398 45.8637C36.2309 45.9171 36.222 45.9706 36.2175 46.024C36.2175 46.0775 36.2086 46.1265 36.2041 46.1799C36.124 47.6677 37.1216 48.9595 38.5201 49.3292L39.3395 49.4317L39.6335 49.4718L90.4191 55.9352L96.151 56.6658L96.2223 56.6747C99.2463 57.0711 101.727 59.0444 102.849 61.6948C103.326 62.8085 103.558 64.0468 103.491 65.3386H103.482V65.3297Z" fill="#0A69BD"/>
<path d="M66.0217 1.40761C66.0083 1.63034 65.8168 1.80406 65.5897 1.79069C64.8103 1.75506 64.022 1.7417 63.2292 1.7417C32.7347 1.7417 8.01667 26.3883 8.01667 56.79C8.01667 79.8197 22.1973 99.5441 42.328 107.758C42.4794 107.825 42.5819 107.976 42.5685 108.15C42.5551 108.373 42.3636 108.547 42.1365 108.533C42.1231 108.533 42.1098 108.533 42.0964 108.533C42.0741 108.533 42.0519 108.524 42.0341 108.52C42.0341 108.52 42.0251 108.52 42.0207 108.515C17.8994 102.622 0 80.9199 0 55.0483C0 24.6466 24.7181 0 55.2126 0C58.7889 0 62.2851 0.342995 65.6699 0.988893C65.8658 1.02007 66.0173 1.21161 66.0173 1.41206L66.0217 1.40761Z" fill="#0A69BD"/>
<path d="M54.6247 123.166C52.9724 123.166 51.4225 122.151 50.8257 120.516C50.0641 118.422 51.1419 116.111 53.2396 115.349L71.9852 108.547C74.0829 107.785 76.4033 108.863 77.1649 110.957C77.9265 113.05 76.8487 115.362 74.751 116.124L56.0053 122.926C55.551 123.091 55.0834 123.171 54.6247 123.171V123.166Z" fill="#0A69BD"/>
<path d="M64.3381 144.895C62.6858 144.895 61.1359 143.88 60.5391 142.245C59.7775 140.151 60.8553 137.839 62.953 137.078L81.6987 130.276C83.7963 129.514 86.1167 130.592 86.8783 132.686C87.6399 134.779 86.5621 137.091 84.4644 137.853L65.7188 144.655C65.2645 144.82 64.7968 144.9 64.3381 144.9V144.895Z" fill="#0A69BD"/>
<path d="M56.6957 135.024C55.0434 135.024 53.4935 134.008 52.8967 132.374C52.1351 130.28 53.2129 127.968 55.3106 127.206L83.8143 116.863C85.912 116.101 88.2324 117.179 88.994 119.273C89.7556 121.367 88.6778 123.678 86.5801 124.44L58.0764 134.783C57.6221 134.948 57.1545 135.028 56.6957 135.028V135.024Z" fill="#0A69BD"/>
</svg>
