<svg width="481" height="182" viewBox="0 0 481 182" fill="none" xmlns="http://www.w3.org/2000/svg">
<path d="M163.874 38.7387C163.874 34.1951 165.317 30.3554 168.208 27.2194C170.938 24.2394 174.398 22.5155 178.585 22.0478C179.28 21.981 179.974 21.9453 180.669 21.9453C184.833 21.9453 188.472 23.2861 191.581 25.9766C192.004 26.3374 192.409 26.7161 192.788 27.117C193.616 27.99 193.839 29.0101 193.46 30.1727C193.215 30.8899 192.788 31.4511 192.182 31.8521H192.146C191.14 32.5024 190.111 32.547 189.055 31.9857C188.695 31.7852 188.396 31.5492 188.147 31.2774C186.201 29.0636 183.702 27.9499 180.66 27.9499C177.458 27.9499 174.83 29.0457 172.768 31.2418C170.862 33.3042 169.913 35.7987 169.913 38.7298C169.913 41.6608 170.956 44.3602 173.035 46.4182C175.093 48.4093 177.592 49.4071 180.522 49.4071C183.88 49.4071 186.566 48.0886 188.583 45.4426C189.3 44.525 190.24 44.1464 191.403 44.3023C191.786 44.3468 192.142 44.4582 192.476 44.6364C192.721 44.7477 192.939 44.8992 193.131 45.0907C193.322 45.2823 193.482 45.4827 193.616 45.6966C193.75 45.9104 193.861 46.1375 193.95 46.3825C194.039 46.6275 194.088 46.8814 194.101 47.1398C194.115 47.3982 194.101 47.6476 194.066 47.8971C194.03 48.1421 193.959 48.3871 193.848 48.6365C193.736 48.886 193.589 49.1176 193.411 49.3448C190.815 52.5253 187.581 54.4808 183.707 55.2247C182.7 55.4251 181.68 55.5276 180.651 55.5276C175.904 55.5276 171.967 54.0175 168.831 50.9929C165.945 48.1732 164.306 44.6364 163.928 40.3824C163.883 39.8211 163.861 39.2732 163.861 38.7387H163.865H163.874Z" fill="#0A69BD" style="fill:#0A69BD;fill:color(display-p3 0.0392 0.4118 0.7412);fill-opacity:1;"/>
<path d="M202.372 21.9761C203.445 21.9761 204.251 22.4349 204.79 23.3525C205.057 23.8202 205.195 24.3058 205.195 24.7957V52.7075C205.195 53.781 204.737 54.5917 203.819 55.1262C203.369 55.3935 202.888 55.5316 202.376 55.5316C201.321 55.5316 200.519 55.0728 199.958 54.1552C199.713 53.7053 199.588 53.2242 199.588 52.7119V24.8002C199.588 23.7267 200.047 22.9204 200.964 22.3814C201.41 22.1364 201.882 21.9983 202.376 21.9761H202.372Z" fill="#0A69BD" style="fill:#0A69BD;fill:color(display-p3 0.0392 0.4118 0.7412);fill-opacity:1;"/>
<path d="M229.526 54.9569C229.036 54.9569 228.72 54.7342 228.586 54.2843C228.542 54.1729 228.519 54.0615 228.519 53.9502V52.9078C228.519 52.6851 228.408 52.5737 228.185 52.5737C228.074 52.5515 227.972 52.5871 227.883 52.6762C226.092 54.5604 223.75 55.5092 220.864 55.5315C216.878 55.5315 214 54.0437 212.232 51.0637C211.137 49.1839 210.589 46.8631 210.589 44.1102V31.3482C210.589 30.2078 211.079 29.3348 212.068 28.729C212.557 28.4394 213.096 28.2835 213.68 28.2612H213.747C214.909 28.2612 215.795 28.7512 216.401 29.7401C216.69 30.2568 216.837 30.7958 216.837 31.3526V43.4777C216.837 47.1705 218.169 49.3442 220.832 49.9946C221.371 50.1282 221.941 50.1951 222.543 50.1951C224.805 50.1951 226.457 49.2195 227.513 47.2729C228.163 46.0836 228.488 44.6403 228.488 42.9387V31.3526C228.488 30.2123 228.969 29.3392 229.931 28.7334C230.448 28.4439 230.982 28.288 231.544 28.2657C232.706 28.2657 233.592 28.7557 234.198 29.7446C234.487 30.2613 234.634 30.8003 234.634 31.3571V49.861C234.634 51.5403 233.975 52.8945 232.653 53.9234C231.713 54.6183 230.671 54.9658 229.53 54.9658L229.526 54.9569Z" fill="#0A69BD" style="fill:#0A69BD;fill:color(display-p3 0.0392 0.4118 0.7412);fill-opacity:1;"/>
<path d="M246.276 52.6411C246.276 53.5587 245.871 54.2402 245.065 54.6901C244.704 54.8683 244.326 54.9708 243.925 54.993H242.647C241.707 54.993 241.021 54.5788 240.598 53.7502C240.398 53.3894 240.295 53.0197 240.295 52.6411V24.9654C240.295 23.8474 240.776 22.9966 241.738 22.413C242.228 22.1235 242.754 21.9676 243.319 21.9453C244.437 21.9453 245.288 22.4264 245.871 23.3886C246.161 23.8785 246.308 24.4086 246.308 24.9699V31.1527C246.308 31.3977 246.428 31.5358 246.677 31.5581C246.811 31.5358 246.913 31.4912 246.98 31.4244C248.882 29.5001 251.3 28.48 254.235 28.3687C254.413 28.3464 254.596 28.333 254.774 28.333C258.043 28.333 260.876 29.4066 263.272 31.5581C266.091 34.2887 267.534 37.7631 267.605 41.9682C267.605 46.0885 266.229 49.4472 263.472 52.0442C261.188 54.1957 258.515 55.3494 255.447 55.5053C255.246 55.5276 255.041 55.5409 254.841 55.5409C251.594 55.5187 248.962 54.4674 246.949 52.3827C246.749 52.1823 246.557 52.1823 246.379 52.3827C246.312 52.4718 246.276 52.5609 246.276 52.65V52.6411ZM261.655 41.8612C261.655 39.3979 260.769 37.3711 259.001 35.7809C257.5 34.4401 255.709 33.7898 253.625 33.8343C251.34 33.8788 249.439 34.8098 247.915 36.6228C246.682 38.1462 246.058 39.8701 246.036 41.7944C246.036 44.3023 246.9 46.3603 248.624 47.9772C250.08 49.2958 251.812 49.9684 253.83 49.9907C256.021 49.9907 257.878 49.2067 259.388 47.6387C260.898 46.0707 261.655 44.1464 261.655 41.8612Z" fill="#0A69BD" style="fill:#0A69BD;fill:color(display-p3 0.0392 0.4118 0.7412);fill-opacity:1;"/>
<path d="M165.01 98.0631L165.58 97.5954C166.497 96.8782 167.481 96.7579 168.537 97.2257C168.92 97.386 169.245 97.5954 169.512 97.8626C171.08 99.4083 172.937 100.179 175.088 100.179C177.24 100.179 178.602 99.4484 179.453 97.9963C179.858 97.3237 180.059 96.5976 180.059 95.8136C180.059 94.4015 179.074 93.2745 177.101 92.4237C176.429 92.1342 175.142 91.6977 173.24 91.1141C170.376 90.1742 168.35 89.2655 167.161 88.3924C165.054 86.8245 163.994 84.6329 163.972 81.8087C163.972 79.1004 165.036 76.8465 167.161 75.0558C169.245 73.3096 171.797 72.4365 174.817 72.4365C177.881 72.4588 180.526 73.1893 182.744 74.6192C183.684 75.225 184.121 76.0981 184.054 77.2384C183.965 78.1338 183.573 78.851 182.878 79.3899C181.96 80.0848 180.972 80.1962 179.921 79.724C179.676 79.5904 179.462 79.4568 179.284 79.3187C178.072 78.3565 176.598 77.8621 174.852 77.8398C172.701 77.8398 171.294 78.5703 170.621 80.0225C170.421 80.4902 170.31 81.0069 170.287 81.5682C170.287 82.8466 171.125 83.8756 172.804 84.6596C173.343 84.9269 174.728 85.4302 176.968 86.1697C180.126 87.1986 182.375 88.3078 183.72 89.4971C185.51 91.1319 186.405 93.2478 186.405 95.8448C186.405 98.4417 185.443 100.874 183.519 102.798C181.368 104.927 178.571 106.001 175.124 106.023C171.249 106.001 167.882 104.883 165.019 102.665C164.123 101.947 163.763 101.03 163.945 99.9117C164.079 99.15 164.435 98.5353 165.019 98.0631H165.01Z" fill="#0A69BD" style="fill:#0A69BD;fill:color(display-p3 0.0392 0.4118 0.7412);fill-opacity:1;"/>
<path d="M192.917 90.0044C193.456 86.6902 195.046 83.9596 197.687 81.8081C200.305 79.7012 203.272 78.6722 206.585 78.7167C210.371 78.7835 213.524 80.1154 216.054 82.7124C216.343 83.0019 216.615 83.3048 216.86 83.6211C217.599 84.5164 217.746 85.5009 217.296 86.5789C216.985 87.296 216.481 87.7994 215.787 88.0889L215.684 88.1557C214.633 88.6056 213.649 88.4453 212.727 87.688C212.549 87.5321 212.393 87.3762 212.259 87.2203C210.758 85.3628 208.799 84.4318 206.38 84.4318C204.14 84.4095 202.247 85.2381 200.706 86.9174C199.677 88.0578 199.027 89.3718 198.76 90.8463C198.31 93.3541 198.849 95.5502 200.372 97.43C201.984 99.2875 203.998 100.241 206.416 100.285C208.879 100.285 210.847 99.3231 212.326 97.3988C213.043 96.4811 213.947 96.0892 215.047 96.2228C215.314 96.2674 215.573 96.3341 215.818 96.4232L215.92 96.4901C216.927 96.9177 217.501 97.666 217.63 98.7396C217.742 99.5236 217.564 100.227 217.091 100.855C214.762 103.898 211.631 105.591 207.69 105.929C207.222 105.974 206.759 105.996 206.313 105.996C202.666 105.996 199.539 104.762 196.943 102.303C194.435 99.9289 193.037 97.0068 192.743 93.5367C192.654 92.3741 192.707 91.1982 192.908 90.0088H192.912L192.917 90.0044Z" fill="#0A69BD" style="fill:#0A69BD;fill:color(display-p3 0.0392 0.4118 0.7412);fill-opacity:1;"/>
<path d="M225.861 81.5497C226.934 81.5497 227.745 82.0085 228.279 82.9261C228.546 83.3938 228.684 83.8794 228.684 84.3694V103.176C228.684 104.25 228.226 105.056 227.308 105.595C226.858 105.862 226.377 106 225.865 106C224.814 106 224.008 105.541 223.447 104.624C223.202 104.174 223.077 103.693 223.077 103.181V84.3738C223.077 83.3003 223.536 82.494 224.453 81.955C224.899 81.71 225.371 81.572 225.865 81.5497H225.861ZM223.175 75.2021C223.175 74.1508 223.62 73.3445 224.516 72.7833C224.983 72.516 225.478 72.3779 225.994 72.3779C227.045 72.3779 227.852 72.8278 228.413 73.7187C228.68 74.1864 228.818 74.6809 228.818 75.1976C228.818 76.2533 228.368 77.0551 227.477 77.6164C227.01 77.8837 226.515 78.0217 225.999 78.0217C224.943 78.0217 224.142 77.5763 223.58 76.6809C223.313 76.2132 223.175 75.7188 223.175 75.2021Z" fill="#0A69BD" style="fill:#0A69BD;fill:color(display-p3 0.0392 0.4118 0.7412);fill-opacity:1;"/>
<path d="M234.118 91.9781C234.207 88.3299 235.507 85.2162 238.015 82.6415C240.456 80.1337 243.444 78.7662 246.98 78.5435C247.47 78.5212 247.964 78.5078 248.459 78.5078C252.267 78.6637 255.389 80.0401 257.829 82.6415C260.226 85.2162 261.424 88.3745 261.424 92.1118V92.379C261.424 93.2298 261.041 93.8357 260.283 94.192C259.994 94.3256 259.7 94.3924 259.411 94.3924H240.807C240.447 94.3924 240.237 94.5751 240.171 94.9314C240.148 95.0651 240.157 95.1764 240.206 95.2655C241.012 97.6843 242.58 99.3057 244.909 100.134C245.894 100.468 246.945 100.638 248.067 100.638C250.641 100.615 252.69 99.7066 254.213 97.9159C254.886 97.0874 255.772 96.7845 256.867 97.0072C257.201 97.074 257.495 97.1898 257.74 97.3413C258.702 97.8803 259.174 98.6955 259.152 99.7957C259.13 100.535 258.894 101.172 258.444 101.711C255.825 104.553 252.365 105.987 248.067 106.01C245.315 106.01 242.856 105.382 240.696 104.125C238.536 102.869 236.884 101.172 235.744 99.0385C234.603 96.9003 234.064 94.5439 234.131 91.9692H234.127L234.118 91.9781ZM241.235 89.2921H254.333C254.716 89.2921 254.939 89.1139 255.006 88.7531C255.006 88.6417 254.992 88.5304 254.97 88.419C253.986 85.7552 251.991 84.263 248.993 83.9512C248.61 83.9066 248.232 83.8844 247.853 83.8844C245.234 83.8844 243.15 84.8599 241.605 86.8065C241.222 87.2965 240.896 87.8266 240.629 88.3878C240.451 88.7486 240.54 89.0248 240.896 89.2253C241.008 89.2698 241.119 89.2921 241.23 89.2921H241.235Z" fill="#0A69BD" style="fill:#0A69BD;fill:color(display-p3 0.0392 0.4118 0.7412);fill-opacity:1;"/>
<path d="M271.119 79.2919H271.725C272.331 79.2919 272.731 79.5725 272.932 80.1293C272.976 80.2629 272.999 80.3966 272.999 80.5347V81.7106C272.999 81.9334 273.11 82.0358 273.333 82.0135C273.422 81.9913 273.489 81.9556 273.533 81.9111C275.479 79.8041 277.964 78.744 280.989 78.7217C285.309 78.7217 288.342 80.3253 290.087 83.5236C291.072 85.3366 291.566 87.5415 291.566 90.1385V102.901C291.566 104.041 291.085 104.914 290.123 105.52C289.611 105.809 289.072 105.965 288.511 105.988H288.408C287.268 105.988 286.395 105.498 285.79 104.509C285.478 103.996 285.322 103.457 285.322 102.896V90.771C285.322 87.4123 284.115 85.3098 281.697 84.459C280.98 84.1918 280.187 84.0537 279.314 84.0537C277.051 84.0537 275.35 84.9713 274.21 86.811C273.448 88.0449 273.056 89.5416 273.034 91.3145V102.901C273.034 104.041 272.553 104.914 271.591 105.52C271.079 105.809 270.536 105.965 269.979 105.988C268.839 105.988 267.966 105.498 267.36 104.509C267.048 103.992 266.893 103.457 266.893 102.896V83.5147C266.893 82.0358 267.498 80.8821 268.705 80.0536C269.445 79.5368 270.251 79.2829 271.124 79.2829H271.115L271.119 79.2919Z" fill="#0A69BD" style="fill:#0A69BD;fill:color(display-p3 0.0392 0.4118 0.7412);fill-opacity:1;"/>
<path d="M299.93 79.6525H301.173C301.485 79.5634 301.663 79.3852 301.712 79.1135V76.7971C301.734 76.0131 302.059 75.3984 302.687 74.9485L306.045 72.6634C306.54 72.3293 307.007 72.3605 307.457 72.7658C307.702 73.0108 307.836 73.3048 307.858 73.6389V79.1135C307.858 79.403 307.996 79.5723 308.263 79.6168C308.308 79.6168 308.352 79.6302 308.397 79.6525H310.481C311.532 79.6525 312.329 80.1024 312.864 80.9933C313.087 81.4209 313.211 81.8797 313.238 82.3697C313.238 83.3987 312.779 84.1827 311.857 84.7216C311.434 84.9666 310.976 85.0913 310.481 85.0913H308.401C308.085 85.1582 307.907 85.3364 307.867 85.6303V94.9669C307.867 97.163 308.134 98.5706 308.673 99.1987C308.989 99.5818 309.421 99.849 309.982 100.005C311.345 100.388 312.312 101.248 312.868 102.593C313.091 103.154 313.216 103.733 313.242 104.339V106.018H312.365C308.406 106.018 305.662 105.283 304.135 103.818C302.612 102.352 301.805 99.6931 301.716 95.84V85.6303C301.65 85.3408 301.471 85.1626 301.177 85.0913H299.935C298.906 85.0913 298.122 84.6459 297.583 83.7506C297.338 83.3051 297.214 82.8419 297.214 82.3741C297.214 81.3229 297.659 80.5389 298.554 80.0222C299 79.7772 299.463 79.6525 299.93 79.6525Z" fill="#0A69BD" style="fill:#0A69BD;fill:color(display-p3 0.0392 0.4118 0.7412);fill-opacity:1;"/>
<path d="M321.735 81.5497C322.809 81.5497 323.619 82.0085 324.154 82.9261C324.421 83.3938 324.559 83.8794 324.559 84.3694V103.176C324.559 104.25 324.1 105.056 323.183 105.595C322.733 105.862 322.252 106 321.74 106C320.689 106 319.878 105.541 319.322 104.624C319.077 104.174 318.952 103.693 318.952 103.181V84.3738C318.952 83.3003 319.411 82.494 320.328 81.955C320.773 81.71 321.246 81.572 321.735 81.5497ZM319.045 75.2021C319.045 74.1508 319.491 73.3445 320.39 72.7833C320.858 72.516 321.352 72.3779 321.869 72.3779C322.92 72.3779 323.726 72.8278 324.287 73.7187C324.555 74.1864 324.693 74.6809 324.693 75.1976C324.693 76.2533 324.243 77.0551 323.348 77.6164C322.876 77.8837 322.386 78.0217 321.869 78.0217C320.818 78.0217 320.007 77.5763 319.451 76.6809C319.179 76.2132 319.045 75.7188 319.045 75.2021Z" fill="#0A69BD" style="fill:#0A69BD;fill:color(display-p3 0.0392 0.4118 0.7412);fill-opacity:1;"/>
<path d="M329.948 83.8842C329.948 82.8998 330.385 82.1737 331.258 81.7015C331.641 81.5233 332.028 81.4342 332.434 81.4342H334.01V81.3674C334.01 77.4029 335.039 74.708 337.097 73.2736C338.664 72.2001 340.98 71.6611 344.049 71.6611H344.521V75.3539C344.521 76.0265 344.218 76.4853 343.612 76.7303C343.456 76.7749 343.301 76.8105 343.145 76.8328C341.488 76.9441 340.446 77.4609 340.023 78.3785C339.778 78.9397 339.644 79.7415 339.622 80.7973C339.622 81.1581 339.787 81.3585 340.125 81.4031C340.17 81.4253 340.201 81.4387 340.227 81.4387H342.04C343.024 81.4387 343.75 81.8663 344.222 82.7171C344.423 83.1002 344.525 83.4877 344.525 83.8931C344.525 84.8775 344.089 85.6036 343.216 86.0758C342.86 86.2762 342.468 86.3787 342.045 86.3787H340.232C339.871 86.4455 339.671 86.646 339.626 86.9845V103.208C339.626 104.281 339.168 105.092 338.246 105.626C337.778 105.894 337.293 106.032 336.803 106.032C335.752 106.032 334.941 105.573 334.38 104.655C334.135 104.205 334.01 103.724 334.01 103.212V86.989C333.943 86.6549 333.743 86.45 333.404 86.3832H332.429C331.44 86.3832 330.719 85.9466 330.242 85.0735C330.042 84.7127 329.939 84.3252 329.939 83.8975L329.948 83.8842Z" fill="#0A69BD" style="fill:#0A69BD;fill:color(display-p3 0.0392 0.4118 0.7412);fill-opacity:1;"/>
<path d="M353.214 81.5497C354.288 81.5497 355.098 82.0085 355.633 82.9261C355.9 83.3938 356.038 83.8794 356.038 84.3694V103.176C356.038 104.25 355.579 105.056 354.662 105.595C354.212 105.862 353.731 106 353.219 106C352.168 106 351.357 105.541 350.8 104.624C350.555 104.174 350.426 103.693 350.426 103.181V84.3738C350.426 83.3003 350.885 82.494 351.802 81.955C352.252 81.71 352.72 81.572 353.214 81.5497ZM350.529 75.2021C350.529 74.1508 350.974 73.3445 351.869 72.7833C352.341 72.516 352.831 72.3779 353.348 72.3779C354.399 72.3779 355.21 72.8278 355.771 73.7187C356.038 74.1864 356.172 74.6809 356.172 75.1976C356.172 76.2533 355.722 77.0551 354.831 77.6164C354.359 77.8837 353.865 78.0217 353.352 78.0217C352.301 78.0217 351.495 77.5763 350.934 76.6809C350.667 76.2132 350.533 75.7188 350.533 75.2021H350.529Z" fill="#0A69BD" style="fill:#0A69BD;fill:color(display-p3 0.0392 0.4118 0.7412);fill-opacity:1;"/>
<path d="M382.832 81.6258C382.832 80.7082 383.237 80.0266 384.039 79.5767C384.417 79.3986 384.8 79.2961 385.179 79.2738H386.457C387.397 79.2738 388.091 79.6881 388.537 80.5167C388.719 80.8775 388.809 81.2472 388.809 81.6258V110.981C388.809 112.099 388.323 112.963 387.366 113.569C386.871 113.836 386.346 113.983 385.784 114.005C384.667 114.005 383.816 113.524 383.237 112.562C382.943 112.072 382.8 111.542 382.8 110.981V103.123C382.8 102.878 382.676 102.74 382.431 102.718C382.297 102.74 382.195 102.785 382.128 102.851C380.226 104.776 377.808 105.796 374.873 105.907C374.695 105.929 374.526 105.943 374.37 105.943C371.078 105.943 368.237 104.869 365.841 102.718C363.022 100.009 361.574 96.5349 361.507 92.3076C361.507 88.1872 362.884 84.8286 365.636 82.2316C367.921 80.0801 370.597 78.9264 373.661 78.7705C373.862 78.7482 374.067 78.7349 374.267 78.7349C377.536 78.7571 380.168 79.8084 382.159 81.8931C382.36 82.0935 382.551 82.0935 382.729 81.8931C382.796 81.804 382.832 81.7149 382.832 81.6258ZM367.453 92.4101C367.453 94.8957 368.335 96.9225 370.107 98.4904C371.626 99.8312 373.417 100.482 375.479 100.437C377.763 100.392 379.665 99.4615 381.188 97.6485C382.417 96.1251 383.05 94.4012 383.072 92.4769C383.072 89.969 382.213 87.9111 380.489 86.2941C379.033 84.9756 377.309 84.303 375.318 84.2807C372.9 84.2807 370.918 85.1894 369.373 87.0024C368.094 88.5481 367.462 90.3521 367.462 92.4101H367.453Z" fill="#0A69BD" style="fill:#0A69BD;fill:color(display-p3 0.0392 0.4118 0.7412);fill-opacity:1;"/>
<path d="M413.531 105.422C413.037 105.422 412.725 105.199 412.591 104.749C412.547 104.638 412.524 104.526 412.524 104.415V103.373C412.524 103.15 412.413 103.039 412.186 103.039C412.075 103.016 411.977 103.052 411.883 103.141C410.093 105.025 407.755 105.974 404.864 105.996C400.878 105.996 398.001 104.509 396.233 101.529C395.137 99.6487 394.589 97.328 394.589 94.5751V81.813C394.589 80.6727 395.084 79.7996 396.068 79.1938C396.562 78.9042 397.097 78.7483 397.68 78.7261H397.747C398.909 78.7261 399.796 79.2161 400.401 80.205C400.691 80.7172 400.838 81.2607 400.838 81.8175V93.9425C400.838 97.6353 402.17 99.8091 404.833 100.459C405.372 100.593 405.942 100.66 406.543 100.66C408.806 100.66 410.462 99.6844 411.513 97.7378C412.164 96.5529 412.489 95.1052 412.489 93.4036V81.8175C412.489 80.6771 412.965 79.8041 413.932 79.1982C414.444 78.9087 414.983 78.7528 415.54 78.7305C416.706 78.7305 417.588 79.2205 418.194 80.2094C418.488 80.7217 418.63 81.2651 418.63 81.8219V100.326C418.63 102.005 417.967 103.359 416.649 104.388C415.709 105.083 414.667 105.431 413.527 105.431L413.531 105.422Z" fill="#0A69BD" style="fill:#0A69BD;fill:color(display-p3 0.0392 0.4118 0.7412);fill-opacity:1;"/>
<path d="M424.38 91.9781C424.469 88.3299 425.765 85.2162 428.277 82.6415C430.718 80.1337 433.706 78.7662 437.242 78.5435C437.732 78.5212 438.227 78.5078 438.721 78.5078C442.524 78.6637 445.651 80.0401 448.091 82.6415C450.488 85.2162 451.686 88.3745 451.686 92.1118V92.379C451.686 93.2298 451.307 93.8357 450.545 94.192C450.252 94.3256 449.962 94.3924 449.668 94.3924H431.065C430.709 94.3924 430.495 94.5751 430.428 94.9314C430.406 95.0651 430.419 95.1764 430.459 95.2655C431.265 97.6843 432.833 99.3057 435.162 100.134C436.151 100.468 437.202 100.638 438.32 100.638C440.894 100.615 442.943 99.7066 444.466 97.9159C445.134 97.0874 446.021 96.7845 447.121 97.0072C447.455 97.074 447.749 97.1898 447.994 97.3413C448.956 97.8803 449.428 98.6955 449.401 99.7957C449.379 100.535 449.143 101.172 448.697 101.711C446.078 104.553 442.618 105.987 438.32 106.01C435.568 106.01 433.109 105.382 430.949 104.125C428.785 102.869 427.137 101.172 425.997 99.0385C424.857 96.9003 424.318 94.5439 424.384 91.9692L424.38 91.9781ZM431.497 89.2921H444.595C444.974 89.2921 445.201 89.1139 445.263 88.7531C445.263 88.6417 445.254 88.5304 445.232 88.419C444.248 85.7552 442.253 84.263 439.255 83.9512C438.877 83.9066 438.494 83.8844 438.115 83.8844C435.496 83.8844 433.412 84.8599 431.867 86.8065C431.488 87.2965 431.163 87.8266 430.891 88.3878C430.713 88.7486 430.802 89.0248 431.159 89.2253C431.27 89.2698 431.381 89.2921 431.497 89.2921Z" fill="#0A69BD" style="fill:#0A69BD;fill:color(display-p3 0.0392 0.4118 0.7412);fill-opacity:1;"/>
<path d="M163.87 142.888C163.87 138.634 165.282 135.218 168.101 132.643C170.608 130.451 173.508 129.329 176.799 129.284C179.89 129.306 182.442 130.269 184.455 132.171C184.655 132.371 184.847 132.362 185.025 132.135C185.092 132.046 185.127 131.966 185.127 131.899V125.921C185.127 124.803 185.608 123.952 186.57 123.369C187.06 123.079 187.586 122.932 188.151 122.932H188.187C189.305 122.932 190.169 123.4 190.77 124.344C191.037 124.856 191.184 125.387 191.207 125.926V152.897C191.207 154.015 190.726 154.88 189.764 155.485C189.274 155.775 188.744 155.922 188.182 155.922C187.065 155.922 186.214 155.441 185.63 154.479C185.341 153.989 185.194 153.459 185.194 152.897C185.194 152.786 185.136 152.741 185.029 152.764C184.985 152.786 184.949 152.808 184.927 152.831C183.181 154.893 180.865 156.078 177.975 156.39C177.547 156.434 177.124 156.456 176.696 156.456C173.628 156.456 170.898 155.436 168.502 153.401C165.682 151.004 164.146 147.837 163.901 143.895C163.879 143.561 163.865 143.222 163.865 142.888H163.87ZM185.501 143.057C185.568 140.572 184.749 138.514 183.047 136.875C181.546 135.485 179.756 134.79 177.672 134.79C175.253 134.79 173.271 135.699 171.726 137.512C170.448 139.013 169.811 140.781 169.811 142.817C169.811 145.302 170.684 147.338 172.43 148.928C173.931 150.247 175.699 150.911 177.734 150.911C180.019 150.911 181.934 150.015 183.475 148.225C184.753 146.723 185.421 145 185.488 143.053L185.501 143.057Z" fill="#0A69BD" style="fill:#0A69BD;fill:color(display-p3 0.0392 0.4118 0.7412);fill-opacity:1;"/>
<path d="M196.952 142.452C197.041 138.804 198.341 135.69 200.849 133.115C203.29 130.607 206.278 129.24 209.814 129.017C210.304 128.995 210.798 128.981 211.293 128.981C215.101 129.142 218.223 130.518 220.663 133.115C223.06 135.69 224.258 138.848 224.258 142.585V142.853C224.258 143.703 223.875 144.309 223.117 144.666C222.828 144.799 222.534 144.866 222.244 144.866H203.641C203.281 144.866 203.071 145.049 203.004 145.405C202.982 145.539 202.991 145.65 203.04 145.739C203.846 148.158 205.414 149.779 207.743 150.608C208.728 150.942 209.779 151.111 210.901 151.111C213.475 151.089 215.524 150.18 217.047 148.39C217.72 147.561 218.606 147.258 219.701 147.481C220.035 147.548 220.329 147.659 220.574 147.815C221.536 148.354 222.008 149.169 221.986 150.269C221.964 151.009 221.728 151.646 221.278 152.185C218.659 155.027 215.199 156.461 210.901 156.483C208.144 156.483 205.69 155.855 203.53 154.604C201.37 153.347 199.718 151.65 198.578 149.517C197.437 147.378 196.898 145.022 196.965 142.447L196.952 142.452ZM204.073 139.766H217.172C217.555 139.766 217.777 139.588 217.844 139.227C217.844 139.115 217.831 139.004 217.809 138.893C216.824 136.229 214.829 134.741 211.832 134.425C211.449 134.38 211.07 134.358 210.692 134.358C208.073 134.358 205.988 135.334 204.447 137.28C204.064 137.77 203.739 138.3 203.472 138.861C203.29 139.222 203.383 139.498 203.739 139.699C203.851 139.743 203.962 139.766 204.073 139.766Z" fill="#0A69BD" style="fill:#0A69BD;fill:color(display-p3 0.0392 0.4118 0.7412);fill-opacity:1;"/>
<path d="M243.083 122.918C244.156 122.918 244.963 123.377 245.501 124.295C245.769 124.763 245.907 125.248 245.907 125.738V153.65C245.907 154.723 245.448 155.53 244.531 156.069C244.081 156.336 243.6 156.474 243.088 156.474C242.037 156.474 241.23 156.015 240.669 155.098C240.424 154.648 240.3 154.167 240.3 153.654V125.743C240.3 124.669 240.758 123.858 241.676 123.324C242.121 123.079 242.593 122.941 243.088 122.918H243.083Z" fill="#0A69BD" style="fill:#0A69BD;fill:color(display-p3 0.0392 0.4118 0.7412);fill-opacity:1;"/>
<path d="M251.977 131.409C251.866 128.367 251.777 125.948 251.71 124.153C251.688 123.302 252.022 122.888 252.717 122.91L254.93 122.946C255.353 122.99 255.736 123.213 256.07 123.618C256.382 124.046 256.516 124.505 256.475 124.995L256.44 125.03V125.298L256.404 125.333V125.601L256.369 125.636V125.939L256.333 125.975V126.242L256.297 126.278V126.545L256.262 126.581V126.848L256.226 126.883V127.151L256.19 127.186V127.489L256.155 127.525V127.792L256.119 127.828V127.863C255.874 130.077 255.714 131.538 255.652 132.229C255.585 132.812 255.304 133.137 254.814 133.204C254.747 133.227 254.69 133.24 254.649 133.24L253.541 133.204C253.135 133.182 252.779 133.004 252.467 132.665C252.178 132.282 252.008 131.872 251.964 131.423L251.977 131.409Z" fill="#0A69BD" style="fill:#0A69BD;fill:color(display-p3 0.0392 0.4118 0.7412);fill-opacity:1;"/>
<path d="M263.009 122.91H278.459C279.577 122.91 280.427 123.378 281.011 124.322C281.3 124.812 281.447 125.342 281.447 125.904C281.447 127.022 280.98 127.872 280.035 128.456C279.546 128.746 279.016 128.893 278.454 128.893H269.119C268.514 128.893 268.1 129.173 267.877 129.73C267.81 129.913 267.774 130.077 267.774 130.233V135.307C267.774 135.913 268.064 136.327 268.647 136.55C268.803 136.594 268.959 136.617 269.115 136.617H278.45C279.568 136.617 280.418 137.084 281.002 138.029C281.291 138.519 281.438 139.049 281.438 139.606C281.438 140.724 280.971 141.574 280.027 142.158C279.537 142.447 279.007 142.594 278.446 142.594H269.111C268.505 142.594 268.091 142.884 267.868 143.468C267.801 143.623 267.766 143.779 267.766 143.935V149.174C267.766 149.78 268.055 150.189 268.638 150.417C268.794 150.483 268.95 150.519 269.106 150.519H278.441C279.559 150.519 280.41 150.987 280.993 151.931C281.282 152.421 281.429 152.947 281.429 153.512C281.429 154.608 280.962 155.459 280.018 156.065C279.528 156.332 278.998 156.479 278.437 156.501H262.987C262.336 156.501 261.878 156.198 261.611 155.593C261.544 155.392 261.508 155.201 261.508 155.022V124.389C261.508 123.739 261.811 123.28 262.417 123.013C262.595 122.946 262.786 122.91 262.987 122.91H262.991H263.009Z" fill="#0A69BD" style="fill:#0A69BD;fill:color(display-p3 0.0392 0.4118 0.7412);fill-opacity:1;"/>
<path d="M288.141 148.537L288.711 148.069C289.629 147.352 290.613 147.232 291.669 147.699C292.052 147.855 292.377 148.069 292.644 148.336C294.212 149.882 296.069 150.653 298.22 150.653C300.371 150.653 301.734 149.922 302.585 148.47C302.99 147.797 303.186 147.071 303.186 146.287C303.186 144.875 302.202 143.748 300.233 142.897C299.56 142.608 298.273 142.171 296.372 141.588C293.508 140.648 291.481 139.739 290.292 138.866C288.186 137.298 287.126 135.106 287.103 132.282C287.103 129.574 288.168 127.325 290.292 125.529C292.377 123.783 294.929 122.91 297.948 122.91C301.012 122.932 303.658 123.663 305.876 125.093C306.816 125.699 307.252 126.572 307.185 127.712C307.096 128.607 306.7 129.325 306.009 129.864C305.092 130.558 304.108 130.67 303.057 130.198C302.812 130.064 302.598 129.93 302.42 129.792C301.208 128.83 299.734 128.336 297.988 128.313C295.837 128.313 294.43 129.044 293.757 130.496C293.557 130.964 293.446 131.481 293.423 132.042C293.423 133.32 294.261 134.349 295.94 135.133C296.479 135.4 297.864 135.904 300.104 136.643C303.262 137.672 305.506 138.781 306.856 139.971C308.646 141.606 309.541 143.721 309.541 146.318C309.541 148.915 308.579 151.347 306.655 153.272C304.504 155.401 301.707 156.475 298.26 156.497C294.385 156.475 291.018 155.357 288.155 153.138C287.259 152.421 286.899 151.503 287.081 150.385C287.215 149.624 287.571 149.009 288.155 148.537H288.15H288.141Z" fill="#0A69BD" style="fill:#0A69BD;fill:color(display-p3 0.0392 0.4118 0.7412);fill-opacity:1;"/>
<path d="M318.965 122.91C320.132 122.91 321.014 123.4 321.62 124.389C321.936 124.906 322.092 125.454 322.092 126.033V153.374C322.092 154.515 321.611 155.401 320.649 156.029C320.115 156.319 319.553 156.475 318.97 156.497C317.83 156.497 316.944 156.007 316.316 155.018C316.004 154.501 315.848 153.953 315.848 153.374V126.033C315.848 124.892 316.342 124.006 317.327 123.378C317.839 123.066 318.387 122.91 318.97 122.91H318.965Z" fill="#0A69BD" style="fill:#0A69BD;fill:color(display-p3 0.0392 0.4118 0.7412);fill-opacity:1;"/>
<path d="M132.796 76.922C132.743 77.9109 132.516 78.8508 132.146 79.7105L131.923 80.1871L131.349 81.421L130.832 82.5346L121.844 101.894L121.791 102.01L121.782 102.032C121.671 102.304 121.599 102.598 121.586 102.905C121.586 102.954 121.586 102.998 121.586 103.047V114.005C121.586 114.117 121.586 114.233 121.577 114.344C121.559 114.678 121.515 115.003 121.448 115.32C121.021 117.337 119.626 118.986 117.787 119.796C116.892 120.188 115.89 120.384 114.848 120.331C114.006 120.286 113.213 120.081 112.496 119.752C110.893 119.017 109.655 117.64 109.098 115.979C108.92 115.44 108.813 114.874 108.786 114.282V102.562C108.786 102.183 108.795 101.809 108.817 101.426C108.857 100.713 108.929 100.014 109.036 99.3235C109.321 97.4749 109.846 95.7065 110.581 94.0494L110.875 93.4213L115.436 83.6037C115.56 83.3409 115.636 83.0513 115.654 82.7484C115.716 81.5591 114.852 80.5345 113.685 80.3563L113.569 80.3385L112.857 80.2494L68.734 74.6324L59.6885 73.4831L59.5861 73.4697C55.4442 72.9218 52.2553 69.6122 51.8545 65.5586C51.7342 64.2891 51.6719 63.0017 51.6719 61.701C51.6719 39.0812 70.0657 20.7422 92.7528 20.7422C111.69 20.7422 127.63 33.5131 132.386 50.8856C132.484 51.2464 132.578 51.6117 132.671 51.9769C132.734 52.3422 132.765 52.7164 132.765 53.0995C132.765 56.7655 129.785 59.7411 126.107 59.7411C123.02 59.7411 120.419 57.643 119.667 54.8011C119.649 54.7253 119.626 54.6451 119.609 54.5694C116.594 42.6404 105.762 33.8116 92.8642 33.8116C79.031 33.8116 67.5716 43.9678 65.5897 57.2154C65.5763 57.2956 65.563 57.3757 65.5541 57.4559C65.5452 57.5094 65.5363 57.5628 65.5318 57.6163C65.5318 57.6697 65.5229 57.7187 65.5184 57.7722C65.4383 59.26 66.4359 60.5518 67.8344 60.9215L68.6538 61.024L68.9478 61.064L119.733 67.5275L125.465 68.258L125.537 68.2669C128.561 68.6634 131.041 70.6367 132.164 73.2871C132.64 74.4007 132.872 75.6391 132.805 76.9309H132.796V76.922Z" fill="#0A69BD" style="fill:#0A69BD;fill:color(display-p3 0.0392 0.4118 0.7412);fill-opacity:1;"/>
<path d="M95.3362 12.9999C95.3228 13.2226 95.1313 13.3963 94.9041 13.383C94.1247 13.3473 93.3364 13.334 92.5437 13.334C62.0492 13.334 37.3311 37.9806 37.3311 68.3823C37.3311 91.4119 51.5117 111.136 71.6425 119.35C71.7939 119.417 71.8963 119.569 71.8829 119.742C71.8696 119.965 71.6781 120.139 71.4509 120.125C71.4376 120.125 71.4242 120.125 71.4109 120.125C71.3886 120.125 71.3663 120.117 71.3485 120.112C71.3485 120.112 71.3396 120.112 71.3351 120.108C47.2139 114.214 29.3145 92.5122 29.3145 66.6406C29.3145 36.2389 54.0325 11.5923 84.527 11.5923C88.1033 11.5923 91.5995 11.9353 94.9843 12.5812C95.1803 12.6124 95.3317 12.8039 95.3317 13.0043L95.3362 12.9999Z" fill="#0A69BD" style="fill:#0A69BD;fill:color(display-p3 0.0392 0.4118 0.7412);fill-opacity:1;"/>
<path d="M83.9391 134.759C82.2868 134.759 80.7369 133.743 80.1401 132.109C79.3785 130.015 80.4563 127.703 82.554 126.941L101.3 120.139C103.397 119.378 105.718 120.456 106.479 122.549C107.241 124.643 106.163 126.955 104.065 127.716L85.3197 134.518C84.8655 134.683 84.3978 134.763 83.9391 134.763V134.759Z" fill="#0A69BD" style="fill:#0A69BD;fill:color(display-p3 0.0392 0.4118 0.7412);fill-opacity:1;"/>
<path d="M93.6525 156.488C92.0001 156.488 90.4502 155.472 89.8535 153.837C89.0919 151.744 90.1697 149.432 92.2674 148.67L111.013 141.868C113.111 141.106 115.431 142.184 116.193 144.278C116.954 146.371 115.876 148.683 113.779 149.445L95.0331 156.247C94.5788 156.412 94.1112 156.492 93.6525 156.492V156.488Z" fill="#0A69BD" style="fill:#0A69BD;fill:color(display-p3 0.0392 0.4118 0.7412);fill-opacity:1;"/>
<path d="M86.0101 146.616C84.3578 146.616 82.8079 145.601 82.2111 143.966C81.4495 141.872 82.5273 139.56 84.625 138.799L113.129 128.455C115.226 127.694 117.547 128.772 118.308 130.865C119.07 132.959 117.992 135.271 115.894 136.032L87.3908 146.376C86.9365 146.54 86.4689 146.621 86.0101 146.621V146.616Z" fill="#0A69BD" style="fill:#0A69BD;fill:color(display-p3 0.0392 0.4118 0.7412);fill-opacity:1;"/>
</svg>
