<svg width="912" height="194" viewBox="0 0 912 194" fill="none" xmlns="http://www.w3.org/2000/svg">
<g clip-path="url(#clip0_78_36)">
<path d="M185.337 192.877C178.459 192.877 171.862 192.273 165.545 191.062C159.369 189.853 153.895 187.567 149.122 184.207C144.49 180.712 140.77 175.738 137.963 169.285C135.296 162.698 133.963 154.095 133.963 143.475C133.963 133.931 135.296 125.731 137.963 118.875C140.63 112.019 143.788 106.575 147.438 102.543C151.228 98.5097 154.667 96.0223 157.755 95.0812L156.702 91.2502H153.123C146.666 91.2502 141.542 89.3008 137.752 85.4024C134.103 81.3699 132.208 75.9258 132.068 69.0698C131.927 62.3486 133.752 56.9719 137.542 52.939C141.472 48.9061 146.666 46.8893 153.123 46.8893H228.711C243.73 46.8893 251.24 53.6111 251.24 67.0537C251.24 73.103 249.415 77.9421 245.766 81.5714C242.116 85.2012 236.431 87.0161 228.711 87.0161H185.127C179.933 87.0161 177.336 89.9065 177.336 95.6868V110.81C184.355 109.331 191.654 107.583 199.234 105.567C206.954 103.55 214.253 102.543 221.131 102.543C227.728 102.543 232.641 103.954 235.87 106.777C239.239 109.465 240.923 113.162 240.923 117.867C240.923 122.706 239.239 126.537 235.87 129.36C232.641 132.049 227.728 133.46 221.131 133.595C214.253 133.728 206.954 132.787 199.234 130.772C191.513 128.756 184.144 127.008 177.126 125.529V151.944C177.126 154.499 177.828 156.313 179.231 157.388C180.775 158.33 183.162 157.926 186.39 156.178C193.408 152.28 200.286 149.189 207.024 146.904C213.762 144.484 220.359 143.274 226.816 143.274C235.94 143.274 242.818 145.559 247.45 150.13C252.223 154.7 254.609 160.682 254.609 168.075C254.609 176.007 252.082 182.123 247.029 186.425C242.116 190.727 234.115 192.877 223.026 192.877H185.337ZM314.195 193.885C303.246 193.885 293.561 191.734 285.139 187.433C276.717 182.997 270.12 176.746 265.347 168.68C260.575 160.615 258.188 151.137 258.188 140.249C258.188 129.36 260.575 119.883 265.347 111.818C270.12 103.752 276.717 97.5018 285.139 93.0658C293.701 88.6294 303.527 86.4112 314.616 86.4112C323.319 86.4112 330.969 87.2851 337.566 89.0329C344.304 90.7804 349.568 93.4015 353.358 96.8968C357.288 100.392 359.253 104.76 359.253 110.003C359.253 116.321 357.569 121.295 354.2 124.924C350.831 128.419 345.989 130.167 339.672 130.167C335.461 130.167 331.25 129.562 327.039 128.352C322.968 127.142 317.704 126.537 311.247 126.537C305.913 126.537 301.422 127.344 297.772 128.957C294.123 130.57 292.298 133.528 292.298 137.829C292.298 142.265 294.123 145.491 297.772 147.508C301.422 149.39 305.913 150.331 311.247 150.331C315.599 150.331 319.248 149.928 322.196 149.121C325.144 148.315 327.951 147.508 330.618 146.702C333.285 145.895 336.303 145.492 339.672 145.492C346.831 145.492 352.095 147.508 355.463 151.541C358.973 155.439 360.727 160.48 360.727 166.664C360.727 171.906 358.692 176.611 354.621 180.779C350.55 184.812 345.006 188.038 337.988 190.458C330.969 192.743 323.038 193.885 314.195 193.885ZM420.103 193.686C403.68 193.686 390.555 189.048 380.729 179.773C371.044 170.363 366.201 157.122 366.201 140.05C366.201 129.564 368.447 120.356 372.939 112.425C377.431 104.494 383.677 98.3101 391.678 93.874C399.82 89.3035 409.294 87.0182 420.103 87.0182C432.174 87.0182 442.211 89.3035 450.212 93.874C458.213 98.3101 464.178 104.494 468.109 112.425C472.179 120.356 474.215 129.564 474.215 140.05C474.215 157.122 469.723 170.363 460.739 179.773C451.896 189.048 438.351 193.686 420.103 193.686ZM391.257 136.622C391.257 140.789 393.433 143.746 397.784 145.494C402.136 147.107 409.575 147.914 420.103 147.914C430.63 147.914 438.07 147.107 442.421 145.494C446.773 143.746 448.948 140.789 448.948 136.622C448.948 132.589 446.773 129.766 442.421 128.152C438.07 126.539 430.63 125.733 420.103 125.733C409.575 125.733 402.136 126.539 397.784 128.152C393.433 129.766 391.257 132.589 391.257 136.622ZM502.859 91.2523C495.841 91.2523 490.086 89.3036 485.594 85.4052C481.242 81.5068 479.067 76.1294 479.067 69.2737C479.067 62.5522 481.032 57.1755 484.962 53.1429C489.033 48.9755 494.999 46.8914 502.859 46.8914H593.607C601.468 46.8914 607.363 48.9755 611.294 53.1429C615.364 57.1755 617.4 62.5522 617.4 69.2737C617.4 76.1294 615.154 81.5068 610.662 85.4052C606.31 89.3036 600.626 91.2523 593.607 91.2523C588.835 91.2523 584.975 90.7819 582.027 89.8412C579.219 88.7655 576.903 87.556 575.079 86.2121C573.254 84.7332 571.499 83.5234 569.815 82.5823C568.13 81.507 566.025 80.9693 563.498 80.9693L561.603 84.5984C562.165 85.8081 563.147 87.5557 564.551 89.8412C565.955 91.9921 567.288 95.151 568.551 99.318C569.815 103.351 570.446 108.862 570.446 115.853V174.127C570.446 179.638 568.271 184.209 563.919 187.839C559.708 191.468 554.515 193.283 548.338 193.283C542.022 193.283 536.688 191.468 532.336 187.839C528.125 184.209 526.02 179.638 526.02 174.127V115.853C526.02 108.862 526.652 103.351 527.915 99.318C529.178 95.151 530.512 91.9921 531.915 89.8412C533.459 87.5557 534.512 85.8081 535.074 84.5984L532.968 80.9693C530.442 80.9693 528.336 81.507 526.652 82.5823C524.967 83.5234 523.213 84.7332 521.388 86.2121C519.563 87.556 517.247 88.7655 514.44 89.8412C511.632 90.7819 507.772 91.2523 502.859 91.2523ZM588.343 140.856C588.343 130.236 590.519 120.894 594.87 112.828C599.362 104.763 605.679 98.4446 613.82 93.874C622.102 89.3035 631.927 87.0182 643.297 87.0182C652.14 87.0182 660.071 88.5643 667.09 91.656C674.248 94.7478 679.863 98.915 683.934 104.158C688.004 109.266 690.04 114.912 690.04 121.095C690.04 127.548 688.075 132.119 684.144 134.807C680.214 137.496 674.389 138.84 666.669 138.84H622.453C622.453 142.335 623.856 145.225 626.664 147.51C629.611 149.795 634.524 150.938 641.402 150.938C644.912 150.938 648.14 150.603 651.088 149.93C654.176 149.258 657.264 148.653 660.352 148.116C663.58 147.443 667.16 147.107 671.09 147.107C676.705 147.107 681.337 149.056 684.987 152.955C688.636 156.718 690.461 161.961 690.461 168.682C690.461 176.614 686.18 182.798 677.617 187.234C669.195 191.67 658.106 193.888 644.35 193.888C634.665 193.888 625.541 192.073 616.978 188.444C608.556 184.814 601.678 179.101 596.344 171.304C591.01 163.373 588.343 153.223 588.343 140.856ZM656.562 132.186C658.668 132.186 659.369 131.245 658.668 129.363C658.106 127.481 656.422 125.532 653.614 123.515C650.807 121.499 646.736 120.49 641.402 120.49C635.226 120.49 630.594 121.767 627.506 124.321C624.558 126.875 623.084 129.497 623.084 132.186H656.562ZM751.942 193.888C740.994 193.888 731.308 191.736 722.886 187.435C714.464 182.999 707.867 176.748 703.094 168.682C698.322 160.617 695.935 151.14 695.935 140.252C695.935 129.363 698.322 119.885 703.094 111.82C707.867 103.754 714.464 97.5039 722.886 93.0679C731.449 88.6314 741.274 86.4132 752.363 86.4132C761.066 86.4132 768.716 87.2872 775.314 89.035C782.051 90.7824 787.315 93.4036 791.105 96.8988C795.035 100.394 797 104.763 797 110.006C797 116.323 795.316 121.297 791.947 124.927C788.578 128.422 783.736 130.169 777.419 130.169C773.208 130.169 768.997 129.564 764.786 128.354C760.715 127.144 755.451 126.54 748.995 126.54C743.661 126.54 739.169 127.346 735.519 128.959C731.87 130.573 730.045 133.53 730.045 137.831C730.045 142.267 731.87 145.493 735.519 147.51C739.169 149.392 743.661 150.333 748.995 150.333C753.346 150.333 756.995 149.93 759.943 149.124C762.891 148.317 765.698 147.51 768.365 146.704C771.032 145.897 774.05 145.494 777.419 145.494C784.578 145.494 789.842 147.51 793.21 151.543C796.72 155.441 798.474 160.482 798.474 166.666C798.474 171.908 796.439 176.613 792.368 180.781C788.298 184.814 782.753 188.04 775.735 190.46C768.716 192.745 760.786 193.888 751.942 193.888ZM826.899 193.283C820.723 193.283 815.81 191.535 812.16 188.04C808.651 184.411 806.896 179.975 806.896 174.732V57.982C806.896 52.3358 808.651 47.5638 812.16 43.6654C815.81 39.767 820.933 37.8176 827.53 37.8176C833.987 37.8176 838.83 39.767 842.058 43.6654C845.427 47.5638 847.112 52.4028 847.112 58.1832V118.474H850.902C850.902 110.812 852.305 104.763 855.113 100.327C858.06 95.8907 861.78 92.7311 866.272 90.8492C870.904 88.8327 875.606 87.8251 880.379 87.8251C888.801 87.8251 895.188 89.8411 899.539 93.874C904.031 97.7724 907.049 103.015 908.593 109.602C910.277 116.189 911.12 123.38 911.12 131.177V174.732C911.12 180.244 909.225 184.747 905.435 188.242C901.785 191.602 896.872 193.283 890.696 193.283C884.379 193.283 879.396 191.602 875.747 188.242C872.097 184.747 870.272 180.244 870.272 174.732V139.042C870.272 134.203 869.29 130.439 867.325 127.75C865.36 125.061 862.482 123.717 858.692 123.717C854.902 123.717 852.025 125.195 850.06 128.152C848.094 131.11 847.112 134.874 847.112 139.445V174.732C847.112 179.975 845.287 184.411 841.637 188.04C838.128 191.535 833.215 193.283 826.899 193.283Z" fill="#0A69BD" style="fill:#0A69BD;fill:color(display-p3 0.0392 0.4118 0.7412);fill-opacity:1;"/>
<path d="M220.488 0.362265C215.207 -0.397132 209.815 0.038606 204.742 1.63533C199.669 3.23205 195.058 5.94531 191.277 9.55676C187.506 13.1771 184.674 17.5932 183.006 22.4511C181.339 27.3091 180.884 32.4732 181.677 37.5302C186.957 38.2894 192.35 37.8532 197.423 36.2564C202.495 34.6596 207.107 31.9472 210.887 28.3357C214.658 24.7154 217.491 20.2992 219.158 15.4413C220.825 10.5834 221.281 5.41913 220.488 0.362265Z" fill="#5DCB21" style="fill:#5DCB21;fill:color(display-p3 0.3647 0.7961 0.1294);fill-opacity:1;"/>
<path d="M5.56738 117.968L17.2188 188.817C17.2064 188.874 17.1999 188.931 17.1992 188.988C17.1991 189.631 17.953 190.267 19.4178 190.861C20.8826 191.455 23.0296 191.995 25.7364 192.45C28.4431 192.904 31.6564 193.265 35.1929 193.511C38.7295 193.757 42.5199 193.883 46.3478 193.883C50.1756 193.883 53.966 193.757 57.5025 193.511C61.0389 193.265 64.2522 192.904 66.9589 192.449C69.6656 191.994 71.8126 191.455 73.2773 190.861C74.7421 190.267 75.496 189.631 75.4959 188.988L87.1756 117.964L5.56738 117.968Z" fill="#CC8939" style="fill:#CC8939;fill:color(display-p3 0.8000 0.5373 0.2235);fill-opacity:1;"/>
<path d="M46.3487 111.976C41.6639 111.976 37.025 112.132 32.6968 112.433C28.3686 112.734 24.4358 113.175 21.1232 113.732C17.8105 114.288 15.1827 114.948 13.3899 115.675C11.5971 116.402 10.6743 117.181 10.6743 117.968C10.6739 118.754 11.5963 119.533 13.3889 120.26C15.1816 120.987 17.8093 121.647 21.122 122.204C24.4347 122.76 28.3675 123.201 32.696 123.503C37.0244 123.804 41.6636 123.959 46.3487 123.959C51.0337 123.959 55.6729 123.804 60.0013 123.503C64.3297 123.201 68.2625 122.76 71.5751 122.204C74.8878 121.647 77.5154 120.987 79.308 120.26C81.1006 119.533 82.0231 118.754 82.0226 117.968C82.0226 116.379 78.2641 114.855 71.5739 113.732C64.8838 112.608 55.81 111.976 46.3487 111.976Z" fill="#AD6F24" style="fill:#AD6F24;fill:color(display-p3 0.6784 0.4353 0.1412);fill-opacity:1;"/>
<path d="M86.2142 123.82L6.88037 125.952L9.4239 141.419C22.3799 145.934 52.4411 150.506 82.2514 147.917L86.2142 123.82Z" fill="#AD6F24" style="fill:#AD6F24;fill:color(display-p3 0.6784 0.4353 0.1412);fill-opacity:1;"/>
<path d="M11.5863 66.8926C5.23209 66.8926 0 71.9035 0 77.9887C0 84.0744 5.23209 89.0848 11.5863 89.0848C16.4024 89.0848 20.5742 86.2062 22.3116 82.1631H28.4377L43.6649 96.7482C44.0146 97.0831 44.4299 97.3487 44.8868 97.53C45.3438 97.7113 45.8336 97.8048 46.3283 97.8048C46.8229 97.8048 47.3127 97.7113 47.7697 97.53C48.2267 97.3487 48.6419 97.0831 48.9917 96.7482C49.3415 96.4132 49.6189 96.0154 49.8083 95.5778C49.9976 95.1401 50.095 94.6709 50.095 94.1972C50.095 93.7235 49.9976 93.2549 49.8083 92.8173C49.6189 92.3796 49.3415 91.9818 48.9917 91.6469L32.6602 76.0066C31.9543 75.3301 30.9969 74.95 29.9982 74.9493H22.7251C21.3302 70.3208 16.8419 66.8926 11.5863 66.8926ZM11.5863 74.1064C13.8694 74.1064 15.6399 75.8023 15.6399 77.9887C15.6399 80.1751 13.8694 81.8696 11.5863 81.8696C9.3032 81.8696 7.53273 80.1751 7.53273 77.9887C7.53273 75.8023 9.3032 74.1064 11.5863 74.1064Z" fill="#0A69BD" style="fill:#0A69BD;fill:color(display-p3 0.0392 0.4118 0.7412);fill-opacity:1;"/>
<path d="M19.7035 38.8345C13.3493 38.8345 8.11719 43.8447 8.11719 49.9299C8.11719 56.015 13.3493 61.026 19.7035 61.026C22.8316 61.026 25.6885 59.8118 27.7824 57.8527L44.643 67.1776C45.0715 67.4148 45.5445 67.5687 46.0351 67.6307C46.5258 67.6927 47.0243 67.6617 47.5024 67.5391C47.9804 67.4165 48.4285 67.2046 48.8211 66.9161C49.2137 66.6275 49.543 66.2679 49.7904 65.8574C50.0379 65.447 50.1986 64.9939 50.2632 64.524C50.3278 64.0541 50.295 63.5769 50.1669 63.1191C50.0387 62.6613 49.8175 62.2323 49.5161 61.8564C49.2147 61.4806 48.8388 61.1649 48.4101 60.9282L31.1863 51.4055C31.2546 50.9225 31.2907 50.4295 31.2907 49.9299C31.2907 43.8447 26.0577 38.8345 19.7035 38.8345ZM19.7035 46.049C21.9866 46.049 23.7571 47.7429 23.7571 49.9299C23.7571 52.1163 21.9866 53.8122 19.7035 53.8122C17.4204 53.8122 15.6506 52.1163 15.6506 49.9299C15.6506 47.7429 17.4204 46.049 19.7035 46.049Z" fill="#0A69BD" style="fill:#0A69BD;fill:color(display-p3 0.0392 0.4118 0.7412);fill-opacity:1;"/>
<path d="M46.3491 110.467C37.0591 110.467 28.5034 111.007 21.6741 111.913C16.924 112.543 13.0132 113.349 10.2374 114.296C8.84958 114.768 7.74469 115.274 6.93853 115.85C6.13238 116.427 5.56967 117.133 5.56958 117.968C5.56958 118.025 5.57093 118.047 5.57391 118.087C5.56987 118.049 5.56769 118.011 5.56738 117.973V135.076C5.56695 135.976 6.62148 136.866 8.67076 137.697C10.72 138.528 13.7239 139.283 17.5109 139.919C21.2979 140.555 25.7938 141.06 30.7418 141.404C35.6899 141.748 40.9932 141.925 46.349 141.925C51.7047 141.925 57.0079 141.748 61.9559 141.404C66.9039 141.06 71.3997 140.555 75.1866 139.919C78.9735 139.283 81.9773 138.528 84.0266 137.697C86.0758 136.866 87.1303 135.976 87.1299 135.076V117.966C87.1298 118.006 87.1276 118.046 87.1233 118.086C87.1276 118.029 87.1299 118.001 87.1299 117.966C87.1298 117.249 86.7006 116.617 86.0807 116.099C85.4608 115.582 84.6194 115.131 83.5641 114.704C81.4537 113.852 78.4821 113.111 74.8242 112.486C67.5087 111.235 57.4555 110.467 46.3491 110.467ZM46.3491 112.294C55.3097 112.294 63.9033 112.892 70.2396 113.956C76.5758 115.02 80.1358 116.463 80.1363 117.968C80.1349 119.472 76.5745 120.916 70.2384 121.98C63.9022 123.044 55.3091 123.641 46.3491 123.641C37.3889 123.641 28.7956 123.044 22.4593 121.98C16.123 120.916 12.5625 119.473 12.5611 117.968C12.5616 116.463 16.1217 115.02 22.4581 113.956C28.7945 112.892 37.3883 112.294 46.3491 112.294Z" fill="#CC8939" style="fill:#CC8939;fill:color(display-p3 0.8000 0.5373 0.2235);fill-opacity:1;"/>
<path d="M46.5274 -0.000732422C42.8105 2.62929 39.7889 6.05672 37.7048 10.0069C35.6206 13.957 34.532 18.3201 34.5261 22.7458C34.5354 29.9859 37.4392 36.9474 42.6412 42.2011V111.148V123.544C42.6412 123.565 42.6415 123.586 42.6419 123.606C43.8703 123.637 45.1078 123.656 46.3486 123.663C47.7092 123.658 49.0667 123.639 50.4136 123.606C50.414 123.587 50.4142 123.568 50.4143 123.55V111.159V97.6671L62.2347 86.3476C69.7902 86.1539 76.9816 83.1975 82.3326 78.0855C85.5963 74.9522 88.048 71.1301 89.491 66.9256C90.934 62.7211 91.3282 58.2512 90.642 53.8745C86.0718 53.2172 81.4044 53.5943 77.0141 54.9762C72.6237 56.358 68.6325 58.7064 65.3606 61.832C59.9356 67.0401 56.8392 74.0649 56.7263 81.4205L50.4143 87.4646V67.9017L62.0318 56.7758C69.6586 56.6306 76.9318 53.6694 82.3326 48.5103C85.5963 45.3769 88.048 41.5541 89.491 37.3496C90.934 33.1451 91.3282 28.6759 90.642 24.2992C86.0718 23.6419 81.4044 24.019 77.0141 25.4009C72.6237 26.7827 68.6325 29.1304 65.3606 32.256C59.9849 37.4168 56.8937 44.3638 56.7299 51.6516L50.4143 57.6999V42.2067C55.6157 36.9527 58.519 29.9906 58.5279 22.7507C58.5222 18.325 57.4336 13.9625 55.3496 10.0124C53.2656 6.06227 50.2441 2.62937 46.5274 -0.000732422Z" fill="#5DCB21" style="fill:#5DCB21;fill:color(display-p3 0.3647 0.7961 0.1294);fill-opacity:1;"/>
</g>
<defs>
<clipPath id="clip0_78_36">
<rect width="911.12" height="193.888" fill="white" style="fill:white;fill-opacity:1;"/>
</clipPath>
</defs>
</svg>
