<svg width="229" height="139" viewBox="0 0 229 139" fill="none" xmlns="http://www.w3.org/2000/svg">
<g clip-path="url(#clip0_114_58)">
<path d="M91.7528 72.6983C89.2592 72.6983 86.8675 72.4703 84.5775 72.0143C82.3383 71.5583 80.3537 70.6969 78.6235 69.4302C76.9441 68.1129 75.5956 66.2384 74.5778 63.8064C73.6109 61.3238 73.1275 58.081 73.1275 54.0784C73.1275 50.4811 73.6109 47.3905 74.5778 44.8065C75.5447 42.2226 76.6897 40.1706 78.0128 38.6507C79.3868 37.1306 80.6336 36.1932 81.7531 35.8386L81.3715 34.3947H80.0738C77.7329 34.3947 75.8755 33.66 74.5015 32.1907C73.1784 30.6708 72.4914 28.6187 72.4405 26.0346C72.3896 23.5013 73.0512 21.4748 74.4251 19.9548C75.85 18.4349 77.7329 17.6748 80.0738 17.6748H107.477C112.923 17.6748 115.645 20.2081 115.645 25.2748C115.645 27.5547 114.984 29.3788 113.66 30.7468C112.337 32.1148 110.276 32.7987 107.477 32.7987H91.6765C89.7936 32.7987 88.8521 33.8879 88.8521 36.0666V41.7666C91.3966 41.2093 94.0428 40.5506 96.7908 39.7907C99.5897 39.0307 102.236 38.6507 104.729 38.6507C107.121 38.6507 108.902 39.1826 110.073 40.2465C111.294 41.2599 111.905 42.6533 111.905 44.4266C111.905 46.2506 111.294 47.6946 110.073 48.7586C108.902 49.7719 107.121 50.3038 104.729 50.3545C102.236 50.4049 99.5897 50.0503 96.7908 49.2905C93.9919 48.5305 91.3202 47.8719 88.7758 47.3146V57.2704C88.7758 58.2331 89.0302 58.9171 89.5391 59.3224C90.0989 59.6771 90.964 59.5251 92.1344 58.8664C94.6789 57.3971 97.1724 56.2318 99.6151 55.3705C102.058 54.4585 104.45 54.0025 106.79 54.0025C110.098 54.0025 112.592 54.8638 114.271 56.5864C116.001 58.3091 116.866 60.5638 116.866 63.3504C116.866 66.3397 115.95 68.6449 114.118 70.2662C112.337 71.8875 109.437 72.6983 105.416 72.6983H91.7528ZM138.469 73.0783C134.499 73.0783 130.988 72.2675 127.935 70.6463C124.881 68.9743 122.49 66.6183 120.759 63.5784C119.029 60.5384 118.164 56.9664 118.164 52.8625C118.164 48.7585 119.029 45.1866 120.759 42.1466C122.49 39.1067 124.881 36.7507 127.935 35.0787C131.039 33.4067 134.601 32.5707 138.621 32.5707C141.777 32.5707 144.55 32.9 146.942 33.5587C149.384 34.2174 151.293 35.2055 152.667 36.5228C154.092 37.8401 154.804 39.4866 154.804 41.4626C154.804 43.8439 154.193 45.7186 152.972 47.0866C151.751 48.404 149.995 49.0625 147.705 49.0625C146.178 49.0625 144.652 48.8346 143.125 48.3785C141.649 47.9226 139.741 47.6945 137.4 47.6945C135.466 47.6945 133.838 47.9986 132.515 48.6065C131.192 49.2145 130.53 50.3292 130.53 51.9505C130.53 53.6225 131.192 54.8385 132.515 55.5985C133.838 56.3078 135.466 56.6623 137.4 56.6623C138.978 56.6623 140.301 56.5104 141.369 56.2065C142.438 55.9024 143.456 55.5985 144.423 55.2945C145.39 54.9905 146.484 54.8385 147.705 54.8385C150.3 54.8385 152.209 55.5985 153.43 57.1185C154.702 58.5878 155.338 60.4877 155.338 62.8184C155.338 64.7944 154.601 66.5677 153.125 68.1383C151.649 69.6583 149.639 70.8743 147.094 71.7863C144.55 72.6476 141.675 73.0783 138.469 73.0783ZM176.864 73.0026C170.91 73.0026 166.152 71.2547 162.59 67.7587C159.079 64.2121 157.323 59.2215 157.323 52.7868C157.323 48.8349 158.137 45.3643 159.766 42.3749C161.394 39.3857 163.659 37.0551 166.559 35.3831C169.511 33.6604 172.946 32.799 176.864 32.799C181.241 32.799 184.879 33.6604 187.78 35.3831C190.681 37.0551 192.843 39.3857 194.268 42.3749C195.744 45.3643 196.482 48.8349 196.482 52.7868C196.482 59.2215 194.854 64.2121 191.597 67.7587C188.391 71.2547 183.48 73.0026 176.864 73.0026ZM166.407 51.4949C166.407 53.0654 167.195 54.1801 168.773 54.8388C170.351 55.4468 173.048 55.7507 176.864 55.7507C180.681 55.7507 183.378 55.4468 184.956 54.8388C186.533 54.1801 187.322 53.0654 187.322 51.4949C187.322 49.9748 186.533 48.9108 184.956 48.3028C183.378 47.6949 180.681 47.391 176.864 47.391C173.048 47.391 170.351 47.6949 168.773 48.3028C167.195 48.9108 166.407 49.9748 166.407 51.4949Z" fill="#0A69BD" style="fill:#0A69BD;fill:color(display-p3 0.0392 0.4118 0.7412);fill-opacity:1;"/>
<path d="M80.9899 100.316C78.4455 100.316 76.359 99.5819 74.7306 98.1125C73.153 96.6432 72.3643 94.6165 72.3643 92.0325C72.3643 89.4992 73.0767 87.4726 74.5016 85.9527C75.9774 84.382 78.1401 83.5966 80.9899 83.5966H113.89C116.739 83.5966 118.877 84.382 120.302 85.9527C121.777 87.4726 122.515 89.4992 122.515 92.0325C122.515 94.6165 121.701 96.6432 120.073 98.1125C118.495 99.5819 116.434 100.316 113.89 100.316C112.159 100.316 110.76 100.139 109.691 99.7846C108.673 99.3792 107.834 98.9232 107.172 98.4166C106.511 97.8593 105.875 97.4032 105.264 97.0486C104.653 96.6432 103.89 96.4404 102.974 96.4404L102.287 97.8085C102.49 98.2645 102.847 98.9232 103.356 99.7846C103.864 100.595 104.348 101.786 104.806 103.357C105.264 104.877 105.493 106.954 105.493 109.588V131.552C105.493 133.63 104.704 135.352 103.127 136.72C101.6 138.088 99.717 138.772 97.4779 138.772C95.1879 138.772 93.2541 138.088 91.6766 136.72C90.1499 135.352 89.3866 133.63 89.3866 131.552V109.588C89.3866 106.954 89.6156 104.877 90.0736 103.357C90.5316 101.786 91.015 100.595 91.5239 99.7846C92.0837 98.9232 92.4654 98.2645 92.6689 97.8085L91.9056 96.4404C90.9896 96.4404 90.2263 96.6432 89.6156 97.0486C89.0049 97.4032 88.3688 97.8593 87.7073 98.4166C87.0457 98.9232 86.206 99.3792 85.1883 99.7846C84.1705 100.139 82.771 100.316 80.9899 100.316ZM111.981 119.012C111.981 115.01 112.77 111.488 114.347 108.448C115.976 105.408 118.266 103.027 121.217 101.304C124.22 99.5818 127.782 98.7205 131.904 98.7205C135.11 98.7205 137.985 99.3031 140.53 100.468C143.125 101.634 145.161 103.205 146.636 105.18C148.112 107.106 148.85 109.234 148.85 111.564C148.85 113.996 148.138 115.719 146.713 116.732C145.288 117.746 143.176 118.252 140.377 118.252H124.347C124.347 119.57 124.856 120.659 125.874 121.52C126.943 122.382 128.724 122.812 131.217 122.812C132.489 122.812 133.66 122.686 134.728 122.432C135.848 122.179 136.968 121.951 138.087 121.748C139.258 121.495 140.555 121.368 141.98 121.368C144.016 121.368 145.695 122.103 147.018 123.572C148.341 124.991 149.003 126.967 149.003 129.5C149.003 132.489 147.451 134.82 144.346 136.492C141.293 138.164 137.273 139 132.286 139C128.774 139 125.467 138.316 122.362 136.948C119.309 135.58 116.816 133.427 114.882 130.488C112.948 127.499 111.981 123.674 111.981 119.012ZM136.713 115.744C137.476 115.744 137.731 115.39 137.476 114.68C137.273 113.971 136.662 113.236 135.644 112.476C134.627 111.716 133.151 111.336 131.217 111.336C128.978 111.336 127.299 111.818 126.179 112.78C125.11 113.743 124.576 114.731 124.576 115.744H136.713ZM171.292 139C167.323 139 163.812 138.189 160.758 136.568C157.705 134.896 155.313 132.54 153.583 129.5C151.853 126.46 150.988 122.888 150.988 118.784C150.988 114.68 151.853 111.108 153.583 108.068C155.313 105.028 157.705 102.672 160.758 101C163.862 99.3285 167.425 98.4925 171.445 98.4925C174.6 98.4925 177.373 98.8218 179.765 99.4804C182.208 100.139 184.116 101.127 185.49 102.444C186.915 103.762 187.627 105.408 187.627 107.384C187.627 109.766 187.017 111.64 185.796 113.008C184.574 114.326 182.819 114.984 180.529 114.984C179.002 114.984 177.475 114.756 175.949 114.3C174.473 113.844 172.564 113.616 170.224 113.616C168.29 113.616 166.661 113.92 165.338 114.528C164.015 115.136 163.354 116.251 163.354 117.872C163.354 119.544 164.015 120.76 165.338 121.52C166.661 122.23 168.29 122.584 170.224 122.584C171.801 122.584 173.124 122.432 174.193 122.128C175.261 121.824 176.279 121.52 177.246 121.216C178.213 120.912 179.307 120.76 180.529 120.76C183.124 120.76 185.032 121.52 186.253 123.04C187.526 124.51 188.162 126.41 188.162 128.74C188.162 130.716 187.424 132.489 185.948 134.06C184.472 135.58 182.462 136.796 179.918 137.708C177.373 138.569 174.498 139 171.292 139ZM198.467 138.772C196.228 138.772 194.447 138.113 193.123 136.796C191.851 135.428 191.215 133.756 191.215 131.78V87.7767C191.215 85.6487 191.851 83.85 193.123 82.3807C194.447 80.9114 196.304 80.1768 198.696 80.1768C201.037 80.1768 202.792 80.9114 203.963 82.3807C205.184 83.85 205.795 85.6739 205.795 87.8526V110.576H207.169C207.169 107.688 207.678 105.408 208.695 103.737C209.764 102.065 211.113 100.874 212.741 100.165C214.42 99.4046 216.125 99.0245 217.855 99.0245C220.909 99.0245 223.224 99.7844 224.802 101.304C226.43 102.774 227.524 104.75 228.084 107.232C228.695 109.715 229 112.426 229 115.364V131.78C229 133.858 228.313 135.555 226.939 136.872C225.616 138.139 223.835 138.772 221.596 138.772C219.306 138.772 217.499 138.139 216.176 136.872C214.853 135.555 214.191 133.858 214.191 131.78V118.328C214.191 116.504 213.835 115.086 213.123 114.072C212.41 113.059 211.367 112.552 209.993 112.552C208.619 112.552 207.576 113.11 206.863 114.224C206.151 115.339 205.795 116.758 205.795 118.48V131.78C205.795 133.756 205.133 135.428 203.81 136.796C202.538 138.113 200.757 138.772 198.467 138.772Z" fill="#0A69BD" style="fill:#0A69BD;fill:color(display-p3 0.0392 0.4118 0.7412);fill-opacity:1;"/>
<path d="M104.496 0.138259C102.582 -0.147962 100.627 0.0163606 98.7877 0.618169C96.9486 1.21998 95.2768 2.24258 93.9063 3.60375C92.5392 4.96827 91.5122 6.63271 90.9078 8.4637C90.3033 10.2947 90.1382 12.2411 90.4257 14.1471C92.3401 14.4333 94.2951 14.269 96.1342 13.6672C97.9732 13.0653 99.6449 12.0428 101.015 10.6816C102.383 9.31711 103.41 7.65261 104.014 5.82166C104.618 3.9907 104.784 2.04422 104.496 0.138259Z" fill="#5DCB21" style="fill:#5DCB21;fill:color(display-p3 0.3647 0.7961 0.1294);fill-opacity:1;"/>
<path d="M3.83911 84.5729L11.8736 135.365C11.8649 135.407 11.8605 135.449 11.8602 135.49C11.8601 135.951 12.3799 136.407 13.39 136.833C14.4 137.259 15.8806 137.646 17.747 137.972C19.6135 138.298 21.8294 138.556 24.2681 138.732C26.7069 138.909 29.3207 138.999 31.9603 138.999C34.6 138.999 37.2138 138.909 39.6524 138.732C42.0911 138.556 44.3069 138.298 46.1734 137.972C48.0398 137.646 49.5204 137.259 50.5304 136.833C51.5404 136.407 52.0602 135.951 52.0601 135.49L60.1142 84.5728L3.83911 84.5729Z" fill="#CC8939" style="fill:#CC8939;fill:color(display-p3 0.8000 0.5373 0.2235);fill-opacity:1;"/>
<path d="M31.9608 80.2783C25.4365 80.2783 19.1794 80.7308 14.566 81.5362C9.95259 82.3416 7.36073 83.434 7.3606 84.5731C7.36055 85.1371 7.99683 85.6956 9.23308 86.2167C10.4693 86.7378 12.2814 87.2113 14.5657 87.6101C16.8501 88.0089 19.562 88.3251 22.5466 88.5409C25.5312 88.7568 28.7302 88.868 31.9608 88.868C35.1913 88.868 38.3902 88.7568 41.3748 88.5409C44.3594 88.3251 47.0713 88.0087 49.3556 87.6099C51.6399 87.2111 53.4519 86.7376 54.6881 86.2165C55.9244 85.6954 56.5606 85.1371 56.5606 84.5731C56.5604 83.434 53.9686 82.3416 49.3553 81.5362C44.7419 80.7308 38.485 80.2783 31.9608 80.2783Z" fill="#AD6F24" style="fill:#AD6F24;fill:color(display-p3 0.6784 0.4353 0.1412);fill-opacity:1;"/>
<path d="M59.451 88.769L4.74438 90.2973L6.49832 101.386C15.4325 104.622 36.1619 107.9 56.7183 106.044L59.451 88.769Z" fill="#AD6F24" style="fill:#AD6F24;fill:color(display-p3 0.6784 0.4353 0.1412);fill-opacity:1;"/>
<path d="M7.98963 47.9575C3.60792 47.9575 0 51.5499 0 55.9122C0 60.2749 3.60792 63.8668 7.98963 63.8668C11.3107 63.8668 14.1874 61.8031 15.3855 58.9047H19.61L30.1102 69.3609C30.3514 69.6011 30.6377 69.7915 30.9528 69.9214C31.268 70.0514 31.6057 70.1185 31.9468 70.1185C32.2879 70.1185 32.6256 70.0514 32.9408 69.9214C33.2559 69.7915 33.5422 69.6011 33.7834 69.3609C34.0246 69.1208 34.2159 68.8357 34.3465 68.5219C34.477 68.2082 34.5442 67.872 34.5442 67.5324C34.5442 67.1928 34.477 66.8564 34.3465 66.5427C34.2159 66.229 34.0246 65.944 33.7834 65.7039L22.5216 54.4912C22.0349 54.0062 21.3746 53.7336 20.686 53.7331H15.6707C14.7088 50.4148 11.6138 47.9575 7.98963 47.9575ZM7.98963 53.1291C9.56402 53.1291 10.7849 54.3449 10.7849 55.9122C10.7849 57.4798 9.56402 58.6948 7.98963 58.6948C6.41525 58.6948 5.19438 57.4798 5.19438 55.9122C5.19438 54.3449 6.41525 53.1291 7.98963 53.1291Z" fill="#0A69BD" style="fill:#0A69BD;fill:color(display-p3 0.0392 0.4118 0.7412);fill-opacity:1;"/>
<path d="M13.5871 27.8418C9.20534 27.8418 5.59741 31.434 5.59741 35.7965C5.59741 40.1589 9.20534 43.7513 13.5871 43.7513C15.7441 43.7513 17.7141 42.881 19.158 41.4765L30.7847 48.1612C31.0801 48.3312 31.4063 48.4418 31.7446 48.4862C32.0829 48.5307 32.4267 48.5084 32.7564 48.4205C33.086 48.3326 33.395 48.1809 33.6657 47.9741C33.9365 47.7673 34.1636 47.5092 34.3342 47.2149C34.5048 46.9207 34.6156 46.5959 34.6601 46.2591C34.7047 45.9223 34.6821 45.58 34.5937 45.2518C34.5053 44.9237 34.3528 44.6162 34.145 44.3467C33.9371 44.0772 33.678 43.8512 33.3824 43.6815L21.5053 36.8547C21.5524 36.5083 21.5772 36.1548 21.5772 35.7965C21.5772 31.434 17.9688 27.8418 13.5871 27.8418ZM13.5871 33.0138C15.1614 33.0138 16.3823 34.229 16.3823 35.7965C16.3823 37.364 15.1614 38.5795 13.5871 38.5795C12.0127 38.5795 10.7923 37.364 10.7923 35.7965C10.7923 34.229 12.0127 33.0138 13.5871 33.0138Z" fill="#0A69BD" style="fill:#0A69BD;fill:color(display-p3 0.0392 0.4118 0.7412);fill-opacity:1;"/>
<path d="M31.9611 79.1958C25.5549 79.1958 19.6552 79.5817 14.9459 80.2317C11.6703 80.6837 8.97352 81.2614 7.05943 81.9409C6.1024 82.2806 5.3405 82.6417 4.7846 83.055C4.22869 83.4683 3.84065 83.974 3.84059 84.5726C3.84059 84.6008 3.84153 84.6304 3.84359 84.6586C3.84085 84.6319 3.83935 84.6053 3.83911 84.5786V96.8398C3.83909 97.4846 4.56648 98.123 5.97973 98.7187C7.39299 99.3144 9.46442 99.8556 12.0758 100.311C14.6872 100.767 17.7873 101.129 21.1993 101.376C24.6112 101.623 28.268 101.75 31.9611 101.75C35.654 101.75 39.3108 101.623 42.7227 101.376C46.1346 101.129 49.2347 100.767 51.846 100.311C54.4573 99.8556 56.5287 99.3144 57.942 98.7187C59.3552 98.123 60.0825 97.4846 60.0825 96.8398V84.5737C60.0825 84.6024 60.081 84.631 60.0781 84.6597C60.081 84.6315 60.0825 84.6004 60.0825 84.5737C60.0825 84.059 59.7866 83.6059 59.3591 83.2348C58.9316 82.8636 58.3514 82.5407 57.6237 82.235C56.1684 81.6238 54.1193 81.0924 51.5969 80.6442C46.5523 79.748 39.6198 79.1958 31.9611 79.1958ZM31.9611 80.5055C38.1401 80.5055 44.066 80.934 48.4354 81.6968C52.8047 82.4596 55.2596 83.4942 55.2599 84.573C55.2591 85.6517 52.8041 86.6861 48.4348 87.4488C44.0655 88.2115 38.1398 88.6401 31.9611 88.6401C25.7823 88.6401 19.8565 88.2115 15.4871 87.4488C11.1177 86.6861 8.66259 85.6517 8.66178 84.573C8.66214 83.4942 11.117 82.4596 15.4865 81.6968C19.8559 80.934 25.782 80.5055 31.9611 80.5055Z" fill="#CC8939" style="fill:#CC8939;fill:color(display-p3 0.8000 0.5373 0.2235);fill-opacity:1;"/>
<path d="M32.0841 0.00144878C29.521 1.88695 27.4374 4.34409 26.0002 7.17601C24.563 10.0079 23.8123 13.1357 23.8083 16.3086C23.8148 21.499 25.8172 26.49 29.4043 30.2564V79.684V88.5708C29.4043 88.5857 29.4045 88.6004 29.4048 88.6152C30.2537 88.6313 31.107 88.6392 31.9609 88.6389C32.8978 88.6389 33.8339 88.6291 34.764 88.6094C34.7642 88.5961 34.7644 88.5826 34.7645 88.5692V79.6865V70.0148L42.9155 61.8993C48.1255 61.7604 53.0846 59.641 56.7745 55.9763C59.0251 53.73 60.7157 50.99 61.7107 47.9757C62.7058 44.9615 62.9776 41.757 62.5044 38.6193C59.3529 38.1482 56.1344 38.4187 53.1069 39.4095C50.0794 40.4002 47.3272 42.0835 45.071 44.3243C41.3301 48.058 39.1949 53.0941 39.1171 58.3673L34.7645 62.7005V48.6757L42.7756 40.6996C48.0348 40.5954 53.0503 38.4722 56.7745 34.7735C59.0251 32.5272 60.7157 29.787 61.7107 26.7728C62.7058 23.7586 62.9776 20.5542 62.5044 17.4166C59.3529 16.9454 56.1344 17.216 53.1069 18.2067C50.0794 19.1974 47.3272 20.8805 45.071 23.1213C41.3641 26.8211 39.2325 31.8012 39.1195 37.0258L34.7645 41.3619V30.2546C38.3511 26.4881 40.3531 21.4973 40.3594 16.3071C40.3554 13.1343 39.6048 10.0066 38.1677 7.17474C36.7307 4.34285 34.6471 1.88698 32.0841 0.00144878Z" fill="#5DCB21" style="fill:#5DCB21;fill:color(display-p3 0.3647 0.7961 0.1294);fill-opacity:1;"/>
</g>
<defs>
<clipPath id="clip0_114_58">
<rect width="229" height="139" fill="white" style="fill:white;fill-opacity:1;"/>
</clipPath>
</defs>
</svg>
