<svg width="163" height="100" viewBox="0 0 163 100" fill="none" xmlns="http://www.w3.org/2000/svg">
<g clip-path="url(#clip0_78_134)">
<path d="M65.3142 52.3001C63.5394 52.3001 61.837 52.1361 60.2071 51.808C58.6134 51.4799 57.2008 50.8604 55.9693 49.9491C54.7741 49.0014 53.8143 47.6527 53.0898 45.9032C52.4017 44.1171 52.0576 41.7841 52.0576 38.9044C52.0576 36.3164 52.4017 34.0931 53.0898 32.2341C53.778 30.3751 54.593 28.8987 55.5347 27.8052C56.5126 26.7116 57.4 26.0374 58.1969 25.7823L57.9252 24.7432H57.0016C55.3355 24.7432 54.0134 24.2147 53.0355 23.1577C52.0938 22.0642 51.6048 20.588 51.5686 18.729C51.5323 16.9065 52.0032 15.4484 52.9812 14.3549C53.9954 13.2614 55.3355 12.7148 57.0016 12.7148H76.5062C80.3818 12.7148 82.3195 14.5373 82.3195 18.1823C82.3195 19.8226 81.8487 21.1346 80.9069 22.1189C79.9652 23.1031 78.4983 23.5953 76.5062 23.5953H65.2598C63.9197 23.5953 63.2496 24.379 63.2496 25.9463V30.0471C65.0606 29.6461 66.944 29.1723 68.8999 28.6255C70.892 28.0787 72.7755 27.8052 74.5503 27.8052C76.2527 27.8052 77.5203 28.1879 78.3534 28.9534C79.2227 29.6824 79.6573 30.6847 79.6573 31.9605C79.6573 33.2727 79.2227 34.3118 78.3534 35.0773C77.5203 35.8063 76.2527 36.189 74.5503 36.2255C72.7755 36.2623 70.892 36.0071 68.8999 35.46C66.9078 34.9133 65.0063 34.4394 63.1953 34.0384V41.2009C63.1953 41.8934 63.3764 42.3854 63.7386 42.677C64.137 42.9322 64.7527 42.8229 65.5858 42.3491C67.3968 41.2919 69.1716 40.4537 70.9102 39.8341C72.6488 39.1779 74.3511 38.8499 76.0172 38.8499C78.3715 38.8499 80.1463 39.4696 81.3416 40.709C82.5731 41.9483 83.1888 43.5702 83.1888 45.575C83.1888 47.7255 82.5368 49.3842 81.2329 50.5506C79.9652 51.7171 77.9007 52.3001 75.0393 52.3001H65.3142ZM98.5643 52.5737C95.7391 52.5737 93.2399 51.9905 91.0667 50.824C88.8935 49.6212 87.1912 47.9261 85.9597 45.7389C84.7282 43.5519 84.1124 40.982 84.1124 38.0295C84.1124 35.077 84.7282 32.5074 85.9597 30.3204C87.1912 28.1334 88.8935 26.4385 91.0667 25.2357C93.2761 24.0327 95.8116 23.431 98.673 23.431C100.919 23.431 102.893 23.668 104.595 24.142C106.334 24.6158 107.692 25.3267 108.67 26.2745C109.684 27.2222 110.191 28.4067 110.191 29.8283C110.191 31.5415 109.756 32.8901 108.887 33.8742C108.018 34.8219 106.768 35.2958 105.138 35.2958C104.052 35.2958 102.965 35.132 101.878 34.8039C100.828 34.4759 99.4698 34.3118 97.8037 34.3118C96.4273 34.3118 95.2682 34.5306 94.3265 34.9679C93.3848 35.4053 92.914 36.2073 92.914 37.3737C92.914 38.5765 93.3848 39.4513 94.3265 39.9981C95.2682 40.5084 96.4273 40.7633 97.8037 40.7633C98.9265 40.7633 99.8682 40.6542 100.629 40.4357C101.389 40.2169 102.114 39.998 102.802 39.7793C103.49 39.5605 104.269 39.4514 105.138 39.4514C106.985 39.4514 108.344 39.9979 109.213 41.0915C110.119 42.1485 110.571 43.5155 110.571 45.1922C110.571 46.6139 110.046 47.8897 108.996 49.0197C107.945 50.1132 106.515 50.988 104.704 51.644C102.893 52.2637 100.846 52.5737 98.5643 52.5737ZM125.892 52.5183C121.655 52.5183 118.268 51.2607 115.733 48.7457C113.233 46.194 111.984 42.6038 111.984 37.9747C111.984 35.1314 112.563 32.6346 113.722 30.4841C114.881 28.3333 116.493 26.6566 118.558 25.4538C120.659 24.2146 123.103 23.595 125.892 23.595C129.007 23.595 131.597 24.2146 133.662 25.4538C135.726 26.6566 137.265 28.3333 138.28 30.4841C139.33 32.6346 139.855 35.1314 139.855 37.9747C139.855 42.6038 138.696 46.194 136.378 48.7457C134.096 51.2607 130.601 52.5183 125.892 52.5183ZM118.449 37.0449C118.449 38.1749 119.011 38.977 120.133 39.4508C121.256 39.8883 123.176 40.1069 125.892 40.1069C128.609 40.1069 130.529 39.8883 131.651 39.4508C132.774 38.977 133.336 38.1749 133.336 37.0449C133.336 35.9514 132.774 35.1859 131.651 34.7485C130.529 34.3112 128.609 34.0927 125.892 34.0927C123.176 34.0927 121.256 34.3112 120.133 34.7485C119.011 35.1859 118.449 35.9514 118.449 37.0449Z" fill="white" style="fill:white;fill-opacity:1;"/>
<path d="M57.6535 72.1695C55.8425 72.1695 54.3575 71.641 53.1984 70.584C52.0756 69.5269 51.5142 68.0692 51.5142 66.2102C51.5142 64.3876 52.0213 62.9296 53.0355 61.836C54.0858 60.706 55.6252 60.1411 57.6535 60.1411H81.0699C83.0982 60.1411 84.6194 60.706 85.6336 61.836C86.684 62.9296 87.2092 64.3876 87.2092 66.2102C87.2092 68.0692 86.6296 69.5269 85.4706 70.584C84.3478 71.641 82.8809 72.1695 81.0699 72.1695C79.8384 72.1695 78.8423 72.0421 78.0817 71.7871C77.3573 71.4954 76.7596 71.1673 76.2888 70.8028C75.8179 70.4018 75.3652 70.0738 74.9306 69.8188C74.4959 69.5271 73.9526 69.3812 73.3006 69.3812L72.8116 70.3655C72.9565 70.6935 73.2101 71.1673 73.5723 71.7871C73.9345 72.3703 74.2786 73.2267 74.6045 74.3566C74.9305 75.4501 75.0935 76.9446 75.0935 78.8401V94.6416C75.0935 96.1361 74.5321 97.3753 73.4093 98.3594C72.3227 99.3436 70.9825 99.8358 69.3888 99.8358C67.7589 99.8358 66.3826 99.3436 65.2597 98.3594C64.1731 97.3753 63.6298 96.1361 63.6298 94.6416V78.8401C63.6298 76.9446 63.7928 75.4501 64.1188 74.3566C64.4448 73.2267 64.7889 72.3703 65.1511 71.7871C65.5495 71.1673 65.8211 70.6935 65.966 70.3655L65.4227 69.3812C64.7708 69.3812 64.2275 69.5271 63.7928 69.8188C63.3582 70.0738 62.9054 70.4018 62.4346 70.8028C61.9637 71.1673 61.3661 71.4954 60.6416 71.7871C59.9172 72.0421 58.9212 72.1695 57.6535 72.1695ZM79.7115 85.62C79.7115 82.7403 80.273 80.2071 81.3958 78.02C82.5548 75.833 84.1847 74.1197 86.2855 72.8804C88.4225 71.641 90.9579 71.0213 93.8917 71.0213C96.1736 71.0213 98.2201 71.4407 100.031 72.2792C101.878 73.1175 103.327 74.2473 104.378 75.669C105.428 77.0541 105.953 78.5849 105.953 80.2616C105.953 82.0114 105.446 83.251 104.432 83.98C103.418 84.709 101.915 85.0734 99.9224 85.0734H88.5131C88.5131 86.0209 88.8753 86.8046 89.5997 87.4244C90.3603 88.0441 91.628 88.3538 93.4028 88.3538C94.3083 88.3538 95.1414 88.2627 95.902 88.0805C96.6988 87.8982 97.4956 87.7342 98.2925 87.5883C99.1256 87.4061 100.049 87.315 101.063 87.315C102.512 87.315 103.707 87.8436 104.649 88.9008C105.591 89.9213 106.062 91.3427 106.062 93.1652C106.062 95.3159 104.957 96.9926 102.748 98.1954C100.574 99.3984 97.713 100 94.1634 100C91.6642 100 89.3099 99.5078 87.1005 98.5236C84.9273 97.5394 83.1525 95.9902 81.7761 93.8761C80.3997 91.7254 79.7115 88.9734 79.7115 85.62ZM97.3146 83.269C97.8579 83.269 98.0389 83.0138 97.8578 82.5036C97.713 81.9933 97.2784 81.4648 96.5539 80.918C95.8295 80.3713 94.7791 80.0977 93.4028 80.0977C91.8091 80.0977 90.6138 80.444 89.817 81.1365C89.0564 81.8291 88.676 82.54 88.676 83.269H97.3146ZM121.926 100C119.101 100 116.602 99.4167 114.429 98.2503C112.255 97.0473 110.553 95.3522 109.322 93.1652C108.09 90.9782 107.474 88.4083 107.474 85.4558C107.474 82.5033 108.09 79.9337 109.322 77.7467C110.553 75.5597 112.255 73.8647 114.429 72.6619C116.638 71.459 119.173 70.8576 122.035 70.8576C124.281 70.8576 126.255 71.0946 127.957 71.5686C129.695 72.0424 131.054 72.753 132.032 73.7008C133.046 74.6485 133.553 75.833 133.553 77.2546C133.553 78.9678 133.118 80.3164 132.249 81.3005C131.38 82.2482 130.13 82.722 128.5 82.722C127.414 82.722 126.327 82.5582 125.24 82.2302C124.19 81.9022 122.832 81.7381 121.166 81.7381C119.789 81.7381 118.63 81.9569 117.688 82.3942C116.747 82.8316 116.276 83.6335 116.276 84.8C116.276 86.0028 116.747 86.8776 117.688 87.4244C118.63 87.9346 119.789 88.1898 121.166 88.1898C122.288 88.1898 123.23 88.0805 123.991 87.862C124.751 87.6432 125.476 87.4243 126.164 87.2056C126.852 86.9868 127.631 86.8777 128.5 86.8777C130.347 86.8777 131.706 87.4242 132.575 88.5177C133.48 89.5748 133.933 90.9418 133.933 92.6185C133.933 94.0402 133.408 95.3158 132.358 96.4456C131.307 97.5392 129.877 98.4141 128.066 99.0703C126.255 99.69 124.208 100 121.926 100ZM141.268 99.8367C139.674 99.8367 138.406 99.3629 137.465 98.4151C136.559 97.4311 136.106 96.2282 136.106 94.8065V63.1491C136.106 61.6182 136.559 60.3242 137.465 59.2672C138.406 58.2101 139.728 57.6816 141.431 57.6816C143.097 57.6816 144.346 58.2101 145.18 59.2672C146.049 60.3242 146.484 61.6365 146.484 63.204V79.5522H147.461C147.461 77.4745 147.824 75.8341 148.548 74.6311C149.309 73.4283 150.269 72.5716 151.428 72.0613C152.623 71.5146 153.836 71.2413 155.068 71.2413C157.241 71.2413 158.889 71.7881 160.012 72.8817C161.171 73.9387 161.949 75.36 162.348 77.1461C162.783 78.9323 163 80.8826 163 82.9966V94.8065C163 96.301 162.511 97.5222 161.533 98.47C160.591 99.3812 159.324 99.8367 157.73 99.8367C156.1 99.8367 154.814 99.3812 153.872 98.47C152.931 97.5222 152.46 96.301 152.46 94.8065V85.1288C152.46 83.8167 152.206 82.7961 151.699 82.0669C151.192 81.3379 150.45 80.9735 149.472 80.9735C148.494 80.9735 147.751 81.3743 147.244 82.1763C146.737 82.9783 146.484 83.9989 146.484 85.2382V94.8065C146.484 96.2282 146.013 97.4311 145.071 98.4151C144.165 99.3629 142.898 99.8367 141.268 99.8367Z" fill="white" style="fill:white;fill-opacity:1;"/>
<path d="M74.3842 0.0983929C73.0216 -0.107537 71.6301 0.0108098 70.3212 0.44375C69.0122 0.876691 67.8223 1.61234 66.8468 2.59159C65.8738 3.57326 65.1428 4.77049 64.7126 6.08775C64.2824 7.40502 64.1649 8.80567 64.3695 10.1769C65.7321 10.3828 67.1236 10.2642 68.4325 9.83122C69.7414 9.39824 70.9313 8.66266 71.9067 7.68339C72.8798 6.70174 73.6107 5.50443 74.041 4.18722C74.4712 2.87 74.5887 1.46957 74.3842 0.0983929Z" fill="white" style="fill:white;fill-opacity:1;"/>
<path d="M2.73242 60.8467L3.37689 64.9649L9.08231 64.8038C6.94828 63.7957 4.82416 62.4907 2.73242 60.8467ZM42.7832 60.8467C41.0539 61.987 39.1597 63.0645 37.1365 64.0112L42.3109 63.8652L42.7832 60.8467ZM42.3109 63.8652L40.3659 76.2922C25.7362 77.6272 10.9838 75.2697 4.62528 72.9413L8.45044 97.3856C8.4444 97.4154 8.44122 97.4453 8.44111 97.4752C8.4407 98.8694 14.8458 99.9994 22.7466 99.9994C30.6473 99.9994 37.0519 98.8694 37.0515 97.4752L42.3109 63.8652Z" fill="white" style="fill:white;fill-opacity:1;"/>
<path d="M5.68619 34.5068C2.56774 34.5068 0 37.0911 0 40.2292C0 43.3676 2.56774 45.9515 5.68619 45.9515C8.04975 45.9515 10.0971 44.467 10.9498 42.3819H13.9563L21.4293 49.9039C21.6009 50.0766 21.8047 50.2137 22.029 50.3072C22.2533 50.4007 22.4936 50.4488 22.7364 50.4488C22.9792 50.4488 23.2195 50.4007 23.4438 50.3072C23.6681 50.2137 23.8719 50.0766 24.0435 49.9039C24.2152 49.7311 24.3513 49.526 24.4442 49.3003C24.5371 49.0746 24.5849 48.8328 24.5849 48.5885C24.5849 48.3442 24.5371 48.1022 24.4442 47.8765C24.3513 47.6508 24.2152 47.4458 24.0435 47.2731L16.0285 39.207C15.6821 38.8581 15.2122 38.662 14.7221 38.6616H11.1527C10.4682 36.2746 8.26546 34.5068 5.68619 34.5068ZM5.68619 38.2272C6.80668 38.2272 7.67557 39.1017 7.67557 40.2292C7.67557 41.3569 6.80668 42.231 5.68619 42.231C4.56571 42.231 3.69681 41.3569 3.69681 40.2292C3.69681 39.1017 4.56571 38.2272 5.68619 38.2272Z" fill="white" style="fill:white;fill-opacity:1;"/>
<path d="M9.66983 20.0361C6.55139 20.0361 3.98364 22.6203 3.98364 25.7585C3.98364 28.8967 6.55139 31.481 9.66983 31.481C11.205 31.481 12.6071 30.8549 13.6347 29.8445L21.9093 34.6533C22.1196 34.7757 22.3517 34.8552 22.5925 34.8872C22.8333 34.9192 23.078 34.9031 23.3126 34.8399C23.5472 34.7767 23.7671 34.6675 23.9598 34.5188C24.1524 34.37 24.3141 34.1843 24.4355 33.9726C24.5569 33.761 24.6358 33.5273 24.6675 33.285C24.6992 33.0427 24.6831 32.7965 24.6202 32.5604C24.5573 32.3244 24.4488 32.1031 24.3008 31.9093C24.1529 31.7155 23.9685 31.5529 23.7581 31.4308L15.3052 26.5198C15.3387 26.2706 15.3564 26.0163 15.3564 25.7585C15.3564 22.6203 12.7883 20.0361 9.66983 20.0361ZM9.66983 23.7567C10.7903 23.7567 11.6592 24.6309 11.6592 25.7585C11.6592 26.8862 10.7903 27.7605 9.66983 27.7605C8.54935 27.7605 7.6808 26.8862 7.6808 25.7585C7.6808 24.6309 8.54935 23.7567 9.66983 23.7567Z" fill="white" style="fill:white;fill-opacity:1;"/>
<path d="M19.3171 57.0322C16.0888 57.1336 13.1288 57.3767 10.637 57.7243C8.30583 58.0494 6.38649 58.4649 5.02424 58.9537C4.34312 59.1981 3.80048 59.4582 3.40485 59.7555C3.00921 60.0529 2.73356 60.4162 2.73352 60.8469C2.73352 60.8671 2.73381 60.8885 2.73522 60.9087C2.7332 60.8895 2.73215 60.8704 2.73193 60.8512V69.6714C2.7322 71.622 11.6928 73.2031 22.7461 73.2031C33.7994 73.2031 42.76 71.622 42.7603 69.6714V60.8473C42.76 60.8675 42.7588 60.889 42.7565 60.9093C42.7583 60.889 42.7587 60.8665 42.7587 60.8473C42.7587 60.477 42.5489 60.1513 42.2447 59.8844C41.9404 59.6174 41.5273 59.3851 41.0094 59.1651C39.9737 58.7254 38.5158 58.3432 36.7206 58.0208C33.9413 57.5217 30.357 57.1714 26.351 57.0386C25.6264 57.3521 26.0922 58.0267 26.351 57.9909C33.9344 58.289 39.3284 59.4762 39.3281 60.8473C39.3266 62.4631 31.9033 63.773 22.7467 63.773C13.5899 63.773 6.1663 62.4631 6.16477 60.8473C6.16472 59.4643 11.6504 58.2704 19.3172 57.9844C19.6635 57.9054 20.0483 57.2869 19.3171 57.0322Z" fill="white" style="fill:white;fill-opacity:1;"/>
<path d="M22.8342 0.00885472C19.1351 2.75942 16.9501 7.1112 16.9443 11.7398C16.9489 15.4736 18.374 19.064 20.9269 21.7734V57.3303V62.8668C20.927 62.8775 20.9271 62.8882 20.9273 62.8988C21.5166 63.0002 22.1387 62.9907 22.7464 62.9907C23.4133 62.9907 24.109 63.0173 24.7414 62.8945C24.7416 62.8839 24.7417 62.8754 24.7417 62.8658V57.3321V50.3745L30.5428 44.5364C34.2508 44.4361 37.7801 42.9119 40.4062 40.2756C43.6543 36.9987 45.1671 32.3666 44.4842 27.7895C39.9359 27.1022 35.3331 28.6247 32.0769 31.8935C29.4145 34.5795 27.8949 38.2023 27.8395 41.9957L24.7417 45.1128V35.0238L30.4432 29.286C34.1862 29.2113 37.7557 27.6836 40.4062 25.0229C43.6543 21.746 45.1671 17.1139 44.4842 12.5368C39.9359 11.8495 35.3331 13.3718 32.0769 16.6407C29.4387 19.3021 27.9216 22.8847 27.8412 26.6432L24.7417 29.7624V21.7721C27.2944 19.0626 28.7192 15.4724 28.7236 11.7387C28.7179 7.11026 26.5331 2.75942 22.8342 0.00885472Z" fill="white" style="fill:white;fill-opacity:1;"/>
</g>
<defs>
<clipPath id="clip0_78_134">
<rect width="163" height="100" fill="white" style="fill:white;fill-opacity:1;"/>
</clipPath>
</defs>
</svg>
