<svg width="108" height="67" viewBox="0 0 108 67" fill="none" xmlns="http://www.w3.org/2000/svg">
<path d="M43.2755 34.6527C42.0996 34.6527 40.9717 34.544 39.8917 34.3266C38.8358 34.1093 37.8998 33.6987 37.0839 33.0949C36.2919 32.467 35.656 31.5734 35.176 30.4142C34.72 29.2308 34.492 27.685 34.492 25.777C34.492 24.0622 34.72 22.5891 35.176 21.3574C35.632 20.1256 36.1719 19.1474 36.7959 18.4228C37.4439 17.6983 38.0318 17.2516 38.5598 17.0826L38.3798 16.3941H37.7678C36.6639 16.3941 35.7879 16.0439 35.14 15.3435C34.516 14.619 34.192 13.6409 34.168 12.4092C34.144 11.2016 34.456 10.2355 35.104 9.51099C35.7759 8.78645 36.6639 8.42432 37.7678 8.42432H50.6911C53.259 8.42432 54.5429 9.63184 54.5429 12.047C54.5429 13.1338 54.2309 14.0031 53.6069 14.6552C52.983 15.3073 52.011 15.6335 50.6911 15.6335H43.2395C42.3516 15.6335 41.9076 16.1527 41.9076 17.1912V19.9083C43.1075 19.6426 44.3555 19.3286 45.6514 18.9664C46.9713 18.6041 48.2193 18.4228 49.3952 18.4228C50.5231 18.4228 51.3631 18.6764 51.915 19.1836C52.491 19.6667 52.779 20.3308 52.779 21.1761C52.779 22.0455 52.491 22.734 51.915 23.2412C51.3631 23.7242 50.5231 23.9778 49.3952 24.002C48.2193 24.0264 46.9713 23.8573 45.6514 23.4948C44.3315 23.1325 43.0715 22.8186 41.8716 22.5529V27.2986C41.8716 27.7574 41.9916 28.0834 42.2316 28.2766C42.4956 28.4457 42.9035 28.3733 43.4555 28.0593C44.6554 27.3589 45.8314 26.8035 46.9833 26.393C48.1353 25.9582 49.2632 25.7408 50.3671 25.7408C51.927 25.7408 53.103 26.1514 53.8949 26.9727C54.7109 27.7938 55.1189 28.8684 55.1189 30.1968C55.1189 31.6217 54.6869 32.7206 53.8229 33.4935C52.983 34.2664 51.6151 34.6527 49.7192 34.6527H43.2755ZM65.3063 34.834C63.4344 34.834 61.7785 34.4475 60.3386 33.6746C58.8986 32.8777 57.7707 31.7546 56.9548 30.3054C56.1388 28.8563 55.7308 27.1536 55.7308 25.1973C55.7308 23.241 56.1388 21.5385 56.9548 20.0894C57.7707 18.6403 58.8986 17.5173 60.3386 16.7203C61.8025 15.9233 63.4824 15.5246 65.3783 15.5246C66.8662 15.5246 68.1741 15.6817 69.3021 15.9957C70.454 16.3096 71.3539 16.7807 72.0019 17.4087C72.6739 18.0366 73.0099 18.8214 73.0099 19.7633C73.0099 20.8985 72.7219 21.792 72.1459 22.4441C71.5699 23.072 70.742 23.386 69.662 23.386C68.9421 23.386 68.2221 23.2774 67.5022 23.0601C66.8062 22.8427 65.9063 22.734 64.8023 22.734C63.8904 22.734 63.1224 22.879 62.4984 23.1687C61.8745 23.4586 61.5625 23.9899 61.5625 24.7628C61.5625 25.5597 61.8745 26.1393 62.4984 26.5016C63.1224 26.8397 63.8904 27.0086 64.8023 27.0086C65.5463 27.0086 66.1702 26.9364 66.6742 26.7916C67.1782 26.6466 67.6581 26.5016 68.1141 26.3566C68.5701 26.2117 69.0861 26.1394 69.662 26.1394C70.886 26.1394 71.7859 26.5015 72.3619 27.2261C72.9619 27.9264 73.2618 28.8322 73.2618 29.9432C73.2618 30.8851 72.9138 31.7304 72.2179 32.4791C71.5219 33.2037 70.574 33.7833 69.374 34.218C68.1741 34.6286 66.8182 34.834 65.3063 34.834ZM83.4133 34.7972C80.6054 34.7972 78.3615 33.964 76.6816 32.2976C75.0257 30.6069 74.1978 28.2281 74.1978 25.1609C74.1978 23.2771 74.5818 21.6227 75.3497 20.1978C76.1177 18.7728 77.1856 17.6619 78.5535 16.8649C79.9454 16.0438 81.5654 15.6333 83.4133 15.6333C85.4771 15.6333 87.193 16.0438 88.561 16.8649C89.9289 17.6619 90.9488 18.7728 91.6208 20.1978C92.3167 21.6227 92.6647 23.2771 92.6647 25.1609C92.6647 28.2281 91.8968 30.6069 90.3608 32.2976C88.8489 33.964 86.5331 34.7972 83.4133 34.7972ZM78.4815 24.5449C78.4815 25.2936 78.8535 25.8251 79.5975 26.139C80.3414 26.4288 81.6133 26.5737 83.4133 26.5737C85.2132 26.5737 86.4851 26.4288 87.229 26.139C87.973 25.8251 88.3449 25.2936 88.3449 24.5449C88.3449 23.8204 87.973 23.3132 87.229 23.0233C86.4851 22.7336 85.2132 22.5888 83.4133 22.5888C81.6133 22.5888 80.3414 22.7336 79.5975 23.0233C78.8535 23.3132 78.4815 23.8204 78.4815 24.5449Z" fill="#0A69BD" style="fill:#0A69BD;fill:color(display-p3 0.0392 0.4118 0.7412);fill-opacity:1;"/>
<path d="M38.2001 47.8176C37.0002 47.8176 36.0162 47.4674 35.2483 46.7671C34.5043 46.0667 34.1323 45.1008 34.1323 43.8691C34.1323 42.6615 34.4683 41.6954 35.1403 40.9709C35.8363 40.2222 36.8562 39.8479 38.2001 39.8479H53.7152C55.0592 39.8479 56.0671 40.2222 56.7391 40.9709C57.435 41.6954 57.783 42.6615 57.783 43.8691C57.783 45.1008 57.399 46.0667 56.6311 46.7671C55.8871 47.4674 54.9152 47.8176 53.7152 47.8176C52.8993 47.8176 52.2393 47.7332 51.7354 47.5642C51.2554 47.3709 50.8594 47.1536 50.5474 46.912C50.2354 46.6464 49.9355 46.4291 49.6475 46.2601C49.3595 46.0668 48.9995 45.9701 48.5675 45.9701L48.2435 46.6223C48.3395 46.8396 48.5075 47.1536 48.7475 47.5642C48.9875 47.9507 49.2155 48.5181 49.4315 49.2667C49.6475 49.9912 49.7555 50.9815 49.7555 52.2374V62.7072C49.7555 63.6974 49.3835 64.5184 48.6395 65.1705C47.9195 65.8226 47.0316 66.1487 45.9757 66.1487C44.8957 66.1487 43.9838 65.8226 43.2398 65.1705C42.5198 64.5184 42.1599 63.6974 42.1599 62.7072V52.2374C42.1599 50.9815 42.2679 49.9912 42.4839 49.2667C42.6999 48.5181 42.9279 47.9507 43.1678 47.5642C43.4318 47.1536 43.6118 46.8396 43.7078 46.6223L43.3478 45.9701C42.9158 45.9701 42.5559 46.0668 42.2679 46.2601C41.9799 46.4291 41.6799 46.6464 41.3679 46.912C41.0559 47.1536 40.66 47.3709 40.18 47.5642C39.7 47.7332 39.0401 47.8176 38.2001 47.8176ZM52.8153 56.7297C52.8153 54.8216 53.1872 53.1431 53.9312 51.6941C54.6992 50.245 55.7791 49.1098 57.171 48.2887C58.5869 47.4674 60.2668 47.0568 62.2107 47.0568C63.7226 47.0568 65.0786 47.3348 66.2785 47.8903C67.5024 48.4457 68.4624 49.1943 69.1583 50.1363C69.8543 51.054 70.2023 52.0683 70.2023 53.1793C70.2023 54.3386 69.8663 55.16 69.1944 55.643C68.5224 56.126 67.5264 56.3674 66.2065 56.3674H58.6469C58.6469 56.9953 58.8869 57.5146 59.3669 57.9252C59.8709 58.3358 60.7108 58.541 61.8868 58.541C62.4867 58.541 63.0387 58.4806 63.5427 58.3599C64.0706 58.2391 64.5986 58.1305 65.1265 58.0338C65.6785 57.913 66.2905 57.8527 66.9625 57.8527C67.9224 57.8527 68.7144 58.2029 69.3383 58.9034C69.9623 59.5796 70.2743 60.5214 70.2743 61.7289C70.2743 63.1539 69.5423 64.2649 68.0784 65.0618C66.6385 65.8589 64.7426 66.2575 62.3907 66.2575C60.7348 66.2575 59.1749 65.9314 57.711 65.2793C56.2711 64.6272 55.0951 63.6007 54.1832 62.2C53.2712 60.775 52.8153 58.9515 52.8153 56.7297ZM64.4786 55.1719C64.8386 55.1719 64.9586 55.0028 64.8386 54.6647C64.7426 54.3266 64.4546 53.9765 63.9746 53.6142C63.4946 53.2519 62.7987 53.0707 61.8868 53.0707C60.8308 53.0707 60.0389 53.3001 59.5109 53.759C59.0069 54.2178 58.7549 54.6889 58.7549 55.1719H64.4786ZM80.7857 66.2575C78.9138 66.2575 77.2579 65.8711 75.818 65.0982C74.3781 64.3011 73.2501 63.178 72.4342 61.7289C71.6182 60.2799 71.2102 58.5771 71.2102 56.6208C71.2102 54.6646 71.6182 52.962 72.4342 51.5129C73.2501 50.0639 74.3781 48.9408 75.818 48.1439C77.2819 47.3468 78.9618 46.9484 80.8577 46.9484C82.3456 46.9484 83.6535 47.1054 84.7815 47.4194C85.9334 47.7334 86.8334 48.2042 87.4813 48.8322C88.1533 49.4602 88.4893 50.245 88.4893 51.1869C88.4893 52.322 88.2013 53.2156 87.6253 53.8676C87.0494 54.4956 86.2214 54.8095 85.1415 54.8095C84.4215 54.8095 83.7015 54.701 82.9816 54.4836C82.2856 54.2663 81.3857 54.1575 80.2817 54.1575C79.3698 54.1575 78.6018 54.3025 77.9779 54.5923C77.3539 54.8821 77.0419 55.4134 77.0419 56.1863C77.0419 56.9833 77.3539 57.5629 77.9779 57.9252C78.6018 58.2633 79.3698 58.4324 80.2817 58.4324C81.0257 58.4324 81.6497 58.3599 82.1536 58.2151C82.6576 58.0702 83.1376 57.9251 83.5935 57.7802C84.0495 57.6353 84.5655 57.5629 85.1415 57.5629C86.3654 57.5629 87.2654 57.9251 87.8413 58.6496C88.4413 59.35 88.7413 60.2557 88.7413 61.3667C88.7413 62.3087 88.3933 63.1539 87.6973 63.9025C87.0014 64.627 86.0534 65.2067 84.8535 65.6415C83.6536 66.0521 82.2976 66.2575 80.7857 66.2575ZM93.601 66.1493C92.545 66.1493 91.7051 65.8354 91.0811 65.2074C90.4811 64.5554 90.1812 63.7584 90.1812 62.8164V41.8409C90.1812 40.8265 90.4811 39.9692 91.0811 39.2688C91.7051 38.5684 92.581 38.2183 93.709 38.2183C94.8129 38.2183 95.6409 38.5684 96.1928 39.2688C96.7688 39.9692 97.0568 40.8387 97.0568 41.8773V52.7093H97.7047C97.7047 51.3326 97.9447 50.2457 98.4247 49.4486C98.9287 48.6517 99.5647 48.084 100.333 47.7459C101.125 47.3837 101.928 47.2026 102.744 47.2026C104.184 47.2026 105.276 47.5649 106.02 48.2895C106.788 48.9898 107.304 49.9316 107.568 51.115C107.856 52.2985 108 53.5907 108 54.9914V62.8164C108 63.8066 107.676 64.6158 107.028 65.2438C106.404 65.8475 105.564 66.1493 104.508 66.1493C103.428 66.1493 102.576 65.8475 101.953 65.2438C101.329 64.6158 101.017 63.8066 101.017 62.8164V56.4042C101.017 55.5348 100.849 54.8585 100.513 54.3754C100.177 53.8924 99.6846 53.651 99.0367 53.651C98.3887 53.651 97.8967 53.9165 97.5607 54.4479C97.2248 54.9793 97.0568 55.6556 97.0568 56.4767V62.8164C97.0568 63.7584 96.7448 64.5554 96.1208 65.2074C95.5209 65.8354 94.6809 66.1493 93.601 66.1493Z" fill="#0A69BD" style="fill:#0A69BD;fill:color(display-p3 0.0392 0.4118 0.7412);fill-opacity:1;"/>
<path d="M49.2852 0.0651931C48.3824 -0.0712515 47.4604 0.00716236 46.5932 0.29402C45.7259 0.580877 44.9375 1.0683 44.2912 1.71713C43.6464 2.36757 43.1621 3.16083 42.8771 4.03362C42.592 4.90641 42.5142 5.83446 42.6498 6.74299C43.5525 6.8794 44.4745 6.80085 45.3418 6.51396C46.209 6.22708 46.9974 5.7397 47.6437 5.09085C48.2885 4.44044 48.7728 3.64712 49.0578 2.77436C49.3429 1.9016 49.4208 0.973709 49.2852 0.0651931Z" fill="#0A69BD" style="fill:#0A69BD;fill:color(display-p3 0.0392 0.4118 0.7412);fill-opacity:1;"/>
<path d="M1.81055 40.3159L2.23756 43.0445L6.01783 42.9378C4.60388 42.2699 3.19649 41.4052 1.81055 40.3159ZM28.3473 40.3159C27.2015 41.0715 25.9464 41.7854 24.6059 42.4127L28.0343 42.3159L28.3473 40.3159ZM28.0343 42.3159L26.7456 50.5498C17.0523 51.4343 7.27771 49.8723 3.06471 48.3296L5.59918 64.5258C5.59517 64.5456 5.59306 64.5654 5.59299 64.5852C5.59272 65.509 9.83659 66.2577 15.0715 66.2577C20.3063 66.2577 24.5498 65.509 24.5496 64.5852L28.0343 42.3159Z" fill="#0A69BD" style="fill:#0A69BD;fill:color(display-p3 0.0392 0.4118 0.7412);fill-opacity:1;"/>
<path d="M3.76754 22.8635C1.70133 22.8635 0 24.5758 0 26.6551C0 28.7345 1.70133 30.4465 3.76754 30.4465C5.33358 30.4465 6.69013 29.4629 7.25507 28.0814H9.24713L14.1985 33.0653C14.3123 33.1797 14.4473 33.2706 14.5959 33.3325C14.7445 33.3945 14.9038 33.4263 15.0646 33.4263C15.2255 33.4263 15.3847 33.3945 15.5333 33.3325C15.6819 33.2706 15.8169 33.1797 15.9307 33.0653C16.0444 32.9508 16.1346 32.8149 16.1962 32.6654C16.2577 32.5158 16.2894 32.3556 16.2894 32.1937C16.2894 32.0319 16.2577 31.8715 16.1962 31.722C16.1346 31.5724 16.0444 31.4366 15.9307 31.3222L10.6201 25.9777C10.3906 25.7466 10.0793 25.6166 9.75454 25.6164H7.38954C6.93598 24.0348 5.4765 22.8635 3.76754 22.8635ZM3.76754 25.3285C4.50995 25.3285 5.08566 25.908 5.08566 26.6551C5.08566 27.4022 4.50995 27.9814 3.76754 27.9814C3.02513 27.9814 2.44942 27.4022 2.44942 26.6551C2.44942 25.908 3.02513 25.3285 3.76754 25.3285Z" fill="#0A69BD" style="fill:#0A69BD;fill:color(display-p3 0.0392 0.4118 0.7412);fill-opacity:1;"/>
<path d="M6.40718 13.2756C4.34098 13.2756 2.63965 14.9878 2.63965 17.0672C2.63965 19.1465 4.34098 20.8587 6.40718 20.8587C7.42436 20.8587 8.35332 20.4439 9.0342 19.7745L14.5168 22.9607C14.6561 23.0417 14.8099 23.0944 14.9694 23.1156C15.129 23.1368 15.2911 23.1262 15.4465 23.0843C15.602 23.0424 15.7477 22.9701 15.8754 22.8715C16.003 22.7729 16.1101 22.6499 16.1906 22.5097C16.271 22.3694 16.3233 22.2146 16.3443 22.0541C16.3653 21.8935 16.3546 21.7304 16.3129 21.574C16.2713 21.4176 16.1994 21.271 16.1013 21.1426C16.0033 21.0141 15.8811 20.9064 15.7417 20.8255L10.141 17.5715C10.1633 17.4064 10.175 17.238 10.175 17.0672C10.175 14.9878 8.47339 13.2756 6.40718 13.2756ZM6.40718 15.7408C7.14959 15.7408 7.7253 16.32 7.7253 17.0672C7.7253 17.8143 7.14959 18.3936 6.40718 18.3936C5.66478 18.3936 5.0893 17.8143 5.0893 17.0672C5.0893 16.32 5.66478 15.7408 6.40718 15.7408Z" fill="#0A69BD" style="fill:#0A69BD;fill:color(display-p3 0.0392 0.4118 0.7412);fill-opacity:1;"/>
<path d="M12.799 37.7883C10.66 37.8555 8.6988 38.0165 7.0478 38.2469C5.50319 38.4623 4.23148 38.7376 3.32889 39.0614C2.87759 39.2234 2.51805 39.3957 2.25592 39.5927C1.99378 39.7897 1.81114 40.0305 1.81111 40.3158C1.81111 40.3293 1.8113 40.3434 1.81224 40.3568C1.8109 40.3441 1.8102 40.3314 1.81006 40.3187V46.1628C1.81023 47.4552 7.74732 48.5028 15.071 48.5028C22.3946 48.5028 28.3317 47.4552 28.3319 46.1628V40.3161C28.3318 40.3295 28.3309 40.3437 28.3294 40.3572C28.3306 40.3437 28.3309 40.3288 28.3309 40.3161C28.3308 40.0708 28.1918 39.855 27.9903 39.6781C27.7887 39.5012 27.515 39.3473 27.1718 39.2015C26.4856 38.9102 25.5196 38.6569 24.3302 38.4433C22.4887 38.1127 20.1138 37.8805 17.4595 37.7926C16.9794 38.0002 17.2881 38.4472 17.4595 38.4235C22.4841 38.621 26.058 39.4076 26.0578 40.3161C26.0568 41.3867 21.1384 42.2546 15.0714 42.2546C9.00427 42.2546 4.08559 41.3867 4.08458 40.3161C4.08454 39.3998 7.71921 38.6087 12.7991 38.4192C13.0285 38.3669 13.2835 37.957 12.799 37.7883Z" fill="#0A69BD" style="fill:#0A69BD;fill:color(display-p3 0.0392 0.4118 0.7412);fill-opacity:1;"/>
<path d="M15.1293 0.00532922C12.6783 1.8278 11.2306 4.71119 11.2268 7.77799C11.2298 10.2519 12.1741 12.6308 13.8656 14.4261V37.9853V41.6537C13.8656 41.6608 13.8657 41.6678 13.8658 41.6749C14.2563 41.7421 14.6685 41.7358 15.0711 41.7358C15.513 41.7358 15.974 41.7534 16.393 41.6721C16.3931 41.665 16.3932 41.6594 16.3932 41.653V37.9865V33.3766L20.2368 29.5084C22.6936 29.4419 25.0321 28.432 26.7721 26.6852C28.9242 24.514 29.9266 21.4449 29.474 18.4122C26.4605 17.9568 23.4108 18.9656 21.2533 21.1314C19.4893 22.9111 18.4824 25.3115 18.4457 27.8249L16.3932 29.8903V23.2055L20.1709 19.4037C22.6509 19.3542 25.0159 18.3421 26.7721 16.5791C28.9242 14.4079 29.9266 11.3388 29.474 8.30608C26.4605 7.8507 23.4108 8.85936 21.2533 11.0252C19.5053 12.7886 18.5001 15.1624 18.4468 17.6527L16.3932 19.7194V14.4252C18.0845 12.63 19.0286 10.2512 19.0315 7.7773C19.0277 4.71057 17.5801 1.8278 15.1293 0.00532922Z" fill="#0A69BD" style="fill:#0A69BD;fill:color(display-p3 0.0392 0.4118 0.7412);fill-opacity:1;"/>
</svg>
