<svg width="36" height="36" viewBox="0 0 36 36" fill="none" xmlns="http://www.w3.org/2000/svg">
<path fill-rule="evenodd" clip-rule="evenodd" d="M11.8159 3.09C13.4155 3.01636 13.9255 3 18 3C22.0745 3 22.5845 3.01773 24.1827 3.09C25.7809 3.16227 26.8718 3.41727 27.8264 3.78682C28.8259 4.16455 29.7327 4.755 30.4827 5.51864C31.2464 6.26727 31.8355 7.17273 32.2118 8.17364C32.5827 9.12818 32.8364 10.2191 32.91 11.8145C32.9836 13.4168 33 13.9268 33 18C33 22.0745 32.9823 22.5845 32.91 24.1841C32.8377 25.7795 32.5827 26.8705 32.2118 27.825C31.8354 28.826 31.2454 29.733 30.4827 30.4827C29.7327 31.2464 28.8259 31.8355 27.8264 32.2118C26.8718 32.5827 25.7809 32.8364 24.1855 32.91C22.5845 32.9836 22.0745 33 18 33C13.9255 33 13.4155 32.9823 11.8159 32.91C10.2205 32.8377 9.12955 32.5827 8.175 32.2118C7.17398 31.8354 6.26703 31.2453 5.51727 30.4827C4.75415 29.7336 4.16361 28.8271 3.78682 27.8264C3.41727 26.8718 3.16364 25.7809 3.09 24.1855C3.01636 22.5832 3 22.0732 3 18C3 13.9255 3.01773 13.4155 3.09 11.8173C3.16227 10.2191 3.41727 9.12818 3.78682 8.17364C4.16417 7.17284 4.75516 6.26634 5.51864 5.51727C6.26733 4.75432 7.17337 4.16379 8.17364 3.78682C9.12818 3.41727 10.2191 3.16364 11.8145 3.09H11.8159ZM24.0614 5.79C22.4795 5.71773 22.005 5.70273 18 5.70273C13.995 5.70273 13.5205 5.71773 11.9386 5.79C10.4755 5.85682 9.68182 6.10091 9.15273 6.30682C8.45318 6.57955 7.95273 6.90273 7.42773 7.42773C6.93006 7.91189 6.54706 8.50129 6.30682 9.15273C6.10091 9.68182 5.85682 10.4755 5.79 11.9386C5.71773 13.5205 5.70273 13.995 5.70273 18C5.70273 22.005 5.71773 22.4795 5.79 24.0614C5.85682 25.5245 6.10091 26.3182 6.30682 26.8473C6.54682 27.4977 6.93 28.0882 7.42773 28.5723C7.91182 29.07 8.50227 29.4532 9.15273 29.6932C9.68182 29.8991 10.4755 30.1432 11.9386 30.21C13.5205 30.2823 13.9936 30.2973 18 30.2973C22.0064 30.2973 22.4795 30.2823 24.0614 30.21C25.5245 30.1432 26.3182 29.8991 26.8473 29.6932C27.5468 29.4205 28.0473 29.0973 28.5723 28.5723C29.07 28.0882 29.4532 27.4977 29.6932 26.8473C29.8991 26.3182 30.1432 25.5245 30.21 24.0614C30.2823 22.4795 30.2973 22.005 30.2973 18C30.2973 13.995 30.2823 13.5205 30.21 11.9386C30.1432 10.4755 29.8991 9.68182 29.6932 9.15273C29.4205 8.45318 29.0973 7.95273 28.5723 7.42773C28.0881 6.9301 27.4987 6.54711 26.8473 6.30682C26.3182 6.10091 25.5245 5.85682 24.0614 5.79ZM16.0841 22.6241C17.1541 23.0695 18.3455 23.1296 19.4549 22.7942C20.5643 22.4587 21.5228 21.7485 22.1667 20.7849C22.8107 19.8212 23.1001 18.6639 22.9855 17.5106C22.871 16.3573 22.3596 15.2795 21.5386 14.4614C21.0153 13.9384 20.3826 13.5379 19.6859 13.2888C18.9893 13.0397 18.246 12.9482 17.5098 13.0208C16.7735 13.0935 16.0625 13.3284 15.4279 13.7088C14.7933 14.0892 14.251 14.6056 13.84 15.2207C13.4289 15.8359 13.1593 16.5345 13.0507 17.2663C12.9421 17.9981 12.997 18.7449 13.2116 19.453C13.4263 20.161 13.7952 20.8127 14.2919 21.361C14.7886 21.9093 15.4007 22.3407 16.0841 22.6241ZM12.5482 12.5482C13.2641 11.8322 14.1141 11.2643 15.0495 10.8769C15.9849 10.4894 16.9875 10.29 18 10.29C19.0125 10.29 20.0151 10.4894 20.9505 10.8769C21.8859 11.2643 22.7359 11.8322 23.4518 12.5482C24.1678 13.2641 24.7357 14.1141 25.1231 15.0495C25.5106 15.9849 25.71 16.9875 25.71 18C25.71 19.0125 25.5106 20.0151 25.1231 20.9505C24.7357 21.8859 24.1678 22.7359 23.4518 23.4518C22.0059 24.8977 20.0448 25.71 18 25.71C15.9552 25.71 13.9941 24.8977 12.5482 23.4518C11.1023 22.0059 10.29 20.0448 10.29 18C10.29 15.9552 11.1023 13.9941 12.5482 12.5482ZM27.42 11.4382C27.5974 11.2708 27.7394 11.0696 27.8377 10.8463C27.9359 10.6231 27.9884 10.3824 27.9919 10.1385C27.9955 9.89467 27.9501 9.65257 27.8584 9.42656C27.7667 9.20055 27.6306 8.99524 27.4581 8.82278C27.2857 8.65032 27.0804 8.51421 26.8544 8.42252C26.6283 8.33083 26.3862 8.28542 26.1424 8.28898C25.8985 8.29253 25.6578 8.34498 25.4346 8.44322C25.2113 8.54146 25.0101 8.68349 24.8427 8.86091C24.5172 9.20595 24.339 9.66426 24.346 10.1385C24.3529 10.6128 24.5444 11.0657 24.8798 11.4011C25.2152 11.7366 25.6681 11.928 26.1424 11.935C26.6167 11.9419 27.075 11.7637 27.42 11.4382Z" fill="white" style="fill:white;fill-opacity:1;"/>
</svg>
