<svg width="228" height="227" viewBox="0 0 228 227" fill="none" xmlns="http://www.w3.org/2000/svg">
<path d="M37.6643 226.707C37.4762 226.682 36.7579 226.605 36.0681 226.536C35.3782 226.468 34.1212 226.286 33.2746 226.133C15.1868 222.854 1.56309 207.833 0.0872868 189.542C-0.0820441 187.443 0.00546837 183.236 0.259375 181.271C1.23164 173.747 4.17292 166.888 9.03454 160.808C10.3096 159.213 13.328 156.22 15.0349 154.858C16.8785 153.386 19.1361 151.881 21.1684 150.768C22.0574 150.281 22.7847 149.849 22.7847 149.807C22.7847 149.765 22.4384 149.561 22.0151 149.354C18.0184 147.399 13.4201 143.855 10.2632 140.297C4.61124 133.925 1.2805 126.509 0.188964 117.864C0.0943666 117.115 0.0377793 115.429 0.0377793 113.36C0.0377793 109.999 0.116092 108.959 0.565998 106.346C2.14572 97.1717 7.08076 88.6061 14.313 82.486C16.5059 80.6303 19.3065 78.7451 21.597 77.5828C22.2497 77.2516 22.784 76.9483 22.7842 76.909C22.7845 76.8696 22.1049 76.4657 21.274 76.0115C12.7521 71.3531 6.20623 63.9743 2.73548 55.1141C1.53711 52.055 0.707275 48.7971 0.244322 45.3342C-0.0137007 43.4041 -0.0468405 37.7364 0.188992 35.8688C1.37522 26.4743 5.30629 18.3327 11.7801 11.8624C18.3535 5.29249 26.5019 1.35522 36.0111 0.154061C37.8345 -0.0762661 43.7549 -0.0411145 45.6458 0.2113C59.0318 1.99805 70.2378 9.71763 76.5898 21.5281C76.9187 22.1396 77.2228 22.6398 77.2656 22.6395C77.3083 22.6392 77.5903 22.1534 77.8922 21.5599C79.6094 18.1844 82.7642 14.0005 85.6773 11.2354C91.3041 5.89455 98.2486 2.25118 105.659 0.752236C108.782 0.120511 110.074 0.00284117 113.887 0.00284117C116.593 0.00284117 117.706 0.0484835 118.904 0.208467C122.256 0.656366 125.441 1.45034 128.456 2.58995C130.293 3.28452 133.857 5.05534 135.532 6.106C141.466 9.82753 146.779 15.5369 149.829 21.4687C150.16 22.1114 150.465 22.6378 150.508 22.6386C150.551 22.6394 150.855 22.1396 151.184 21.5281C154.943 14.5384 160.457 8.91136 167.314 5.06686C170.924 3.0432 174.931 1.55896 178.992 0.741844C182.049 0.126705 183.293 0.0139351 187.087 0.00814653C190.623 0.00277676 191.635 0.0758069 194.214 0.522589C210.614 3.36388 223.733 16.094 226.996 32.3335C227.527 34.9722 227.684 36.4276 227.756 39.347C227.898 45.0828 227.054 49.9671 225.029 55.1367C222.039 62.7694 216.665 69.4247 209.774 74.0281C207.036 75.857 204.547 77.1254 201.283 78.3546L199.687 78.9558L199.657 88.0893C199.641 93.1128 199.602 97.2229 199.571 97.2229C199.539 97.2229 199.142 96.9098 198.688 96.5273C196.216 94.4453 192.072 92.7898 188.418 92.4243C186.178 92.2003 183.062 92.5909 180.634 93.4C176.045 94.9294 172.037 98.0776 169.517 102.131C167.199 105.86 166.187 109.967 166.463 114.517C166.9 121.707 171.24 128.219 177.794 131.519C180.794 133.03 183.733 133.716 187.201 133.716C191.586 133.716 195.323 132.583 199.002 130.138C200.897 128.88 203.224 126.559 204.452 124.703C206.363 121.816 207.493 118.696 207.832 115.372C207.912 114.597 207.953 108.079 207.953 96.4125C207.953 86.6344 207.994 78.6342 208.043 78.6342C208.196 78.6342 211.032 80.5557 212.058 81.3548C219.932 87.4863 225.19 96.0069 227.093 105.719C227.624 108.425 227.727 109.672 227.727 113.36C227.727 116.138 227.683 117.212 227.522 118.377C226.33 126.995 222.938 134.299 217.169 140.676C214.173 143.987 209.755 147.368 205.971 149.245C205.431 149.513 204.988 149.768 204.988 149.811C204.988 149.854 205.54 150.184 206.214 150.543C209.615 152.355 212.612 154.531 215.412 157.222C222.078 163.628 226.256 171.931 227.514 181.271C227.764 183.126 227.854 187.454 227.687 189.542C226.92 199.104 222.774 208.08 215.993 214.857C209.54 221.306 201.369 225.306 192.218 226.495C190.296 226.745 185.828 226.838 183.888 226.669C176.746 226.047 170.5 223.88 164.625 219.986C159.104 216.325 154.753 211.593 151.455 205.661L150.504 203.951L149.911 205.106C145.308 214.069 136.683 221.411 126.924 224.672C122.437 226.171 118.96 226.717 113.886 226.717C109.687 226.717 107.506 226.465 103.928 225.569C92.8351 222.789 83.2779 215.326 77.9738 205.303L77.2634 203.96L76.3153 205.666C71.4691 214.383 63.9759 220.842 54.6931 224.306C52.1269 225.263 48.7211 226.092 45.7027 226.494C44.3582 226.673 38.5467 226.827 37.6643 226.707ZM42.9422 206.923C49.002 206.257 54.4907 202.919 57.907 197.822C61.4024 192.606 62.3227 186.035 60.4029 180.001C59.9632 178.618 58.8249 176.282 57.9387 174.942C54.2989 169.44 48.4273 166.021 41.9984 165.661C37.4045 165.404 33.3501 166.405 29.6304 168.716C25.1727 171.486 21.7136 176.207 20.4637 181.227C19.9561 183.265 19.8782 183.96 19.8829 186.403C19.8864 188.323 19.9325 188.981 20.1396 190.08C21.8014 198.901 28.9154 205.655 37.8248 206.872C39.1961 207.059 41.495 207.082 42.9422 206.923ZM38.9281 198.593C34.0734 197.885 30.0379 194.332 28.6461 189.539C28.2843 188.293 28.141 185.693 28.3628 184.397C29.3906 178.396 34.5699 173.973 40.5695 173.973C43.9548 173.973 47.0109 175.257 49.4223 177.692C54.2526 182.57 54.1401 190.409 49.1711 195.18C46.3851 197.855 42.574 199.125 38.9281 198.593ZM117.737 206.71C121.299 206.047 125.06 204.197 127.762 201.779C131.1 198.793 133.427 194.716 134.301 190.324C134.615 188.747 134.73 185.548 134.53 183.931C133.785 177.889 130.512 172.522 125.527 169.167C121.589 166.517 117.422 165.403 112.433 165.667C107.274 165.941 101.924 168.534 98.4761 172.432C94.934 176.437 93.1436 181.092 93.1371 186.314C93.13 192.168 95.26 197.151 99.5421 201.295C102.711 204.362 106.927 206.362 111.417 206.927C112.799 207.101 116.277 206.982 117.737 206.71ZM111.948 198.545C110.975 198.392 109.32 197.866 108.471 197.438C105.972 196.18 103.719 193.854 102.592 191.368C101.149 188.184 101.15 184.393 102.595 181.309C104.349 177.565 107.543 175.014 111.498 174.196C113.147 173.855 115.485 173.927 117.073 174.366C118.439 174.744 120.047 175.53 121.167 176.366C127.398 181.019 128.019 189.745 122.501 195.127C119.645 197.914 115.819 199.153 111.948 198.545ZM77.5399 168.182C77.9497 167.297 79.1323 165.262 79.9365 164.057C81.481 161.744 82.8866 160.043 85.038 157.883C88.2764 154.632 91.0529 152.562 94.9179 150.516C95.5678 150.172 96.0974 149.856 96.0947 149.815C96.0921 149.773 95.7239 149.559 95.2766 149.34C94.1364 148.78 91.7979 147.373 90.4865 146.457C86.8205 143.897 83.1271 140.204 80.5276 136.497C79.5622 135.121 78.3079 133.044 77.7288 131.863C77.5212 131.44 77.3172 131.093 77.2755 131.093C77.2337 131.093 76.8691 131.696 76.4652 132.433C74.3024 136.379 72.1746 139.18 68.9474 142.327C66.0693 145.134 63.1849 147.239 59.5846 149.162C58.9105 149.522 58.3589 149.835 58.3589 149.858C58.3589 149.883 58.9176 150.186 59.6004 150.536C66.5493 154.091 72.91 160.432 76.5936 167.477C76.92 168.102 77.2223 168.611 77.2652 168.61C77.3081 168.608 77.4317 168.416 77.5399 168.182ZM151.18 167.477C153.651 162.751 157.381 158.246 161.695 154.779C163.625 153.228 166.403 151.42 168.401 150.417C168.958 150.137 169.414 149.887 169.414 149.862C169.414 149.837 168.877 149.529 168.221 149.179C164.56 147.223 161.731 145.16 158.826 142.327C155.599 139.18 153.471 136.379 151.308 132.433C150.904 131.696 150.54 131.093 150.498 131.093C150.456 131.093 150.252 131.44 150.044 131.863C148.39 135.229 145.726 138.848 142.632 141.932C140.435 144.121 138.926 145.36 136.463 146.996C134.749 148.134 132.064 149.682 131.802 149.682C131.439 149.682 131.803 149.958 133.01 150.598C136.798 152.605 139.969 155.002 143.133 158.251C145.754 160.943 147.718 163.589 149.575 166.931C150.089 167.856 150.526 168.613 150.548 168.613C150.569 168.613 150.853 168.102 151.18 167.477ZM117.193 133.645C121.796 133.01 125.473 131.244 128.552 128.188C130.587 126.169 132.016 124.107 133.137 121.571C133.603 120.516 134.296 118.629 134.296 118.413C134.296 118.362 132.231 118.321 129.707 118.321L125.118 118.321L124.91 118.826C124.292 120.329 122.359 122.581 120.807 123.606C119.846 124.241 118.574 124.8 117.321 125.137C116.324 125.406 116.021 125.434 114.001 125.44C111.909 125.448 111.71 125.429 110.652 125.134C105.588 123.718 101.917 119.428 101.501 114.437L101.426 113.532L134.68 113.474L134.653 112.732C134.592 111.03 134.081 108.416 133.429 106.466C133.02 105.243 131.696 102.583 130.929 101.442C128.081 97.2062 123.869 94.2499 119.052 93.1056C114.97 92.136 110.177 92.4224 106.46 93.8582C99.7393 96.4544 94.9939 102.011 93.4578 109.083C93.2252 110.154 93.1978 110.587 93.1978 113.189C93.1978 115.789 93.2253 116.223 93.4576 117.294C94.8806 123.853 99.0888 129.163 105.096 131.977C108.786 133.706 112.767 134.255 117.193 133.645ZM103.055 106.28C103.055 106.127 103.931 104.911 104.45 104.343C105.263 103.453 106.262 102.738 107.559 102.116C109.467 101.201 111.58 100.76 114.058 100.76C118.719 100.76 122.248 102.457 124.308 105.691L124.726 106.346H113.89C107.931 106.346 103.055 106.317 103.055 106.28ZM28.2612 122.683C28.2632 116.894 28.3116 112.2 28.3743 111.717C29.0261 106.695 32.7121 102.511 37.5938 101.253C41.6685 100.203 46.0304 101.344 49.1508 104.275C50.988 106.001 52.2449 108.244 52.8207 110.824L52.891 111.139L61.2664 111.079L61.2392 110.508C61.168 109.016 60.4161 106.392 59.5071 104.464C56.675 98.457 51.219 94.1955 44.6576 92.8659C43.5144 92.6343 43.043 92.6044 40.5718 92.6075C37.9793 92.6107 37.6754 92.6329 36.3464 92.9173C32.9204 93.6504 29.8036 95.1638 27.1206 97.3973C23.65 100.286 21.2392 104.372 20.2581 109.026L19.9937 110.28L19.9271 132.803H28.2579L28.2612 122.683ZM77.7295 94.8567C78.7115 92.8576 80.3493 90.3372 82.1201 88.0997C83.4863 86.3736 86.5745 83.2688 88.2892 81.8975C89.9934 80.5346 92.5182 78.8583 94.4761 77.7898C95.369 77.3025 96.0995 76.8834 96.0995 76.8584C96.0995 76.8334 95.7788 76.6516 95.3869 76.4544C91.7046 74.6019 88.264 72.0762 85.0889 68.8949C82.8489 66.6506 81.6203 65.1571 79.9667 62.6686C78.8736 61.0237 77.4003 58.4679 77.4003 58.2167C77.4003 57.8726 77.1104 58.2667 76.4185 59.5516C72.5991 66.6447 66.2925 72.8225 59.2621 76.358C58.7654 76.6078 58.3589 76.8328 58.3589 76.8581C58.3589 76.8831 58.8907 77.1854 59.5405 77.5294C63.429 79.5879 66.6192 81.9835 69.7628 85.2057C72.6447 88.1598 74.6994 90.9594 76.6096 94.5352C76.9302 95.1354 77.2283 95.6264 77.2719 95.6264C77.3156 95.6264 77.5215 95.28 77.7295 94.8567ZM151.164 94.5352C155.021 87.3152 160.942 81.3895 168.075 77.6129C168.811 77.2227 169.414 76.8856 169.414 76.8637C169.414 76.8419 168.858 76.5348 168.177 76.1812C162.682 73.3255 157.62 68.901 153.989 63.7795C152.985 62.3641 151.871 60.5653 151.18 59.2423C150.853 58.6178 150.569 58.1069 150.548 58.1069C150.526 58.1069 150.089 58.8639 149.575 59.789C147.723 63.1227 145.774 65.7473 143.133 68.467C139.966 71.7277 136.778 74.1272 132.855 76.2039C132.205 76.5479 131.674 76.8446 131.674 76.8631C131.674 76.8818 132.402 77.2959 133.293 77.7837C135.251 78.8559 137.785 80.539 139.484 81.8964C141.101 83.1882 144.347 86.4356 145.627 88.0427C147.264 90.0988 149.054 92.8482 149.987 94.7426C150.227 95.2287 150.458 95.6264 150.502 95.6264C150.545 95.6264 150.843 95.1354 151.164 94.5352ZM116.951 60.8943C119.157 60.5707 120.707 60.0975 122.778 59.1149C129.269 56.035 133.64 50.0139 134.518 42.9424C134.765 40.9547 134.647 38.1853 134.226 36.097C133.81 34.0373 132.739 31.4435 131.436 29.3422C129.029 25.4605 125.14 22.3482 120.785 20.818C116.437 19.2904 111.324 19.2909 106.988 20.8193C103.936 21.8954 101.122 23.7334 98.8194 26.1566C97.419 27.6299 96.3984 29.0772 95.4284 30.9651C94.4866 32.798 93.921 34.3732 93.5061 36.3184C93.2241 37.6405 93.2006 37.9565 93.2006 40.4305C93.2006 42.9045 93.2243 43.2206 93.5061 44.5427C95.0263 51.6699 99.8931 57.3065 106.734 59.8628C107.976 60.3269 109.297 60.6635 110.784 60.8952C112.185 61.1135 115.459 61.1129 116.951 60.8943ZM111.492 52.5296C108.929 51.9616 106.764 50.7574 104.997 48.9174C100.283 44.006 100.35 36.4783 105.151 31.6969C107.506 29.3509 110.696 28.0014 113.887 28.0014C117.962 28.0014 121.967 30.1955 124.23 33.6677C127.028 37.9618 126.948 43.2032 124.019 47.4531C123.348 48.427 121.851 49.9042 120.857 50.5741C119.821 51.2721 117.981 52.114 116.851 52.4077C115.46 52.7692 112.843 52.8288 111.492 52.5296ZM191.235 60.7394C199.691 59.0245 206.18 52.3791 207.671 43.9088C208.082 41.5729 208.005 38.4313 207.478 35.9829C206.36 30.7893 203.012 25.9436 198.515 23.0095C196.371 21.6109 193.328 20.4019 190.85 19.9643C189.2 19.6728 186.184 19.6109 184.5 19.8339C177.327 20.7832 171.312 25.2337 168.252 31.8546C166.834 34.9215 166.229 38.3259 166.462 41.9114C166.797 47.0413 169.072 51.8444 172.87 55.4395C175.485 57.9155 179.012 59.8024 182.527 60.6071C184.243 60.9999 184.934 61.0573 187.544 61.0231C189.528 60.997 190.231 60.9431 191.235 60.7394ZM185.254 52.6317C178.505 51.4893 173.813 45.0209 174.947 38.4212C175.386 35.8704 176.501 33.6953 178.347 31.7927C179.931 30.1601 181.98 28.9661 184.205 28.3784C185.167 28.1243 185.563 28.0832 187.087 28.0785C188.328 28.0746 189.094 28.1281 189.657 28.2579C194.712 29.4231 198.487 33.3356 199.397 38.3527C199.575 39.3348 199.555 41.574 199.359 42.5973C198.389 47.6607 194.31 51.6964 189.267 52.5796C188.266 52.755 186.145 52.7826 185.254 52.6317ZM185.129 125.228C182.016 124.677 178.913 122.735 177.111 120.208C172.741 114.084 174.786 105.625 181.478 102.145C183.328 101.183 185.062 100.758 187.129 100.759C189.289 100.761 190.733 101.093 192.617 102.024C196.1 103.743 198.553 106.922 199.341 110.737C199.582 111.903 199.582 114.087 199.342 115.356C198.934 117.503 197.756 119.785 196.187 121.463C194.669 123.085 192.376 124.442 190.193 125.009C188.816 125.367 186.483 125.468 185.129 125.228Z" fill="#0A69BD" style="fill:#0A69BD;fill:color(display-p3 0.0392 0.4118 0.7412);fill-opacity:1;"/>
</svg>
