<svg width="200" height="260" viewBox="0 0 200 260" fill="none" xmlns="http://www.w3.org/2000/svg">
<path d="M133.95 243.05C132.381 243.05 130.969 243.255 129.717 243.655C128.467 244.064 127.305 244.704 126.292 245.543C125.338 246.305 124.6 247.204 124.091 248.221C123.578 249.232 123.325 250.313 123.325 251.441C123.325 253.856 124.351 255.879 126.399 257.502C128.446 259.124 130.998 259.936 134.057 259.936C135.695 259.936 137.038 259.75 138.084 259.374C139.13 258.993 139.937 258.397 140.514 257.596V259.575L145.172 259.574V243.46H140.46V245.41C139.805 244.613 138.925 244.023 137.84 243.636C136.755 243.245 135.456 243.05 133.95 243.05ZM134.155 246.769C135.71 246.769 137.072 247.244 138.231 248.187C139.394 249.126 139.971 250.249 139.971 251.564C139.971 252.79 139.395 253.865 138.241 254.784C137.088 255.698 135.753 256.157 134.243 256.157C132.567 256.157 131.154 255.704 129.995 254.79C128.832 253.876 128.256 252.742 128.256 251.383C128.256 250.093 128.833 249.002 129.986 248.108C131.139 247.214 132.533 246.769 134.155 246.769Z" fill="#0A69BD"/>
<path d="M79.0053 243.05C77.4317 243.05 76.0195 243.255 74.7683 243.655C73.5175 244.063 72.3552 244.703 71.3426 245.543C70.3798 246.305 69.6554 247.204 69.1421 248.221C68.6288 249.232 68.3647 250.313 68.3647 251.441C68.3647 253.856 69.4022 255.879 71.4498 257.502C73.4974 259.124 76.0491 259.936 79.1084 259.936C80.7409 259.936 82.0845 259.75 83.1351 259.374C84.1762 258.993 84.987 258.397 85.5636 257.596V259.574H90.2171V243.46H85.5107V245.41C84.8462 244.613 83.9709 244.023 82.8909 243.636C81.801 243.245 80.5059 243.05 79.0053 243.05ZM79.2061 246.769C80.7604 246.769 82.1181 247.244 83.2762 248.187C84.4444 249.126 85.0223 250.249 85.0223 251.564C85.0223 252.79 84.4445 253.865 83.2912 254.784C82.1327 255.698 80.7937 256.157 79.2834 256.157C77.6168 256.157 76.1953 255.704 75.0464 254.79C73.8783 253.876 73.3017 252.742 73.3017 251.383C73.3017 250.093 73.8782 249.002 75.0315 248.108C76.1849 247.214 77.5836 246.769 79.2061 246.769Z" fill="#0A69BD"/>
<path d="M197.262 79.5943L197.315 40.9642L16.495 40.3823C4.22733 40.9642 0.239278 44.9519 0.239278 56.9264V116.475C0.239278 124.803 3.92417 130.292 18.9728 130.292H155.142C158.441 130.292 158.675 137.344 155.142 137.344H0.239258V177.324H76.9132V187.993H0.239258L0.776645 226.482L197.315 226.721V187.993H122.582V177.324H184.852C192.511 177.324 197.316 173.331 197.316 165.012V104.071C197.316 92.2674 193.303 88.1474 181.91 88.1474H44.6122C40.7024 88.1474 40.6683 80.9092 44.6306 80.9092H197.314L197.262 79.5943Z" fill="#0A69BD"/>
<path d="M153.606 11.0341C145.772 11.0341 139.517 11.0345 138.471 15.2575C137.708 19.4216 139.975 23.6488 147.219 23.6488C151.182 23.9908 154.912 23.6971 158.485 22.9541C157.742 28.1448 154.843 31.2139 149.75 32.812L149.769 36.9567C155.477 34.9035 159.993 31.6983 161.356 26.9523C164.147 26.9523 167.04 26.2193 169.01 23.7804H173.145C176.444 26.1704 179.318 26.0293 182.236 23.6488H186.233C186.761 23.6488 186.463 25.3254 192.03 25.2131C199.205 25.0908 199.42 20.8925 199.42 20.6627L199.421 11.0342H195.497V20.6465C195.497 23.6472 186.69 23.6478 186.69 20.6622V11.0337H182.236V20.6622C182.236 23.6482 173.146 23.6482 173.146 20.6622V11.0337H168.953V20.6622C168.782 21.9082 165.986 23.8876 162.199 23.7216C162.106 19.1565 161.407 11.0341 153.606 11.0341ZM149.882 13.4871C154.207 13.4871 157.728 15.1001 157.728 17.0891C157.728 19.0489 154.207 20.6613 149.882 20.6613C145.572 20.6613 142.052 19.0489 142.052 17.0891C142.052 15.1001 145.572 13.4871 149.882 13.4871Z" fill="#0A69BD"/>
<path d="M69.5382 2.12744L65.525 2.18703L65.5101 20.6613H59.6315L59.6071 11.0287H56.2343L56.2831 20.6463C54.7729 26.7605 51.7527 30.8805 46.9775 32.6545L47.0467 36.8047C52.5108 34.8302 56.3321 31.2518 58.5068 26.027H96.6736C111.17 23.647 104.425 9.37628 99.3762 9.10757C89.3814 8.59467 79.1713 11.8889 69.4405 18.7755L69.5382 2.12744ZM95.0903 12.1711C100.798 11.9144 105.67 21.767 97.3085 22.4549H73.052C78.6481 17.8706 85.5741 14.8455 93.9412 12.3624C94.3255 12.2498 94.7098 12.1885 95.0903 12.1711Z" fill="#0A69BD"/>
<path d="M4.4083 254.228V254.453C4.4083 255.157 4.64302 255.743 5.10246 256.183C5.57682 256.628 6.17757 256.853 6.911 256.853C7.61959 256.853 8.19624 256.687 8.64098 256.349C9.08086 256.017 9.30546 255.592 9.30546 255.078C9.30546 254.605 9.14427 254.204 8.81182 253.901C8.49422 253.598 7.90756 253.285 7.05738 252.972C6.3577 252.733 5.65549 252.502 4.95088 252.278C4.02217 251.99 3.42587 251.76 3.1668 251.599C2.39486 251.105 1.83746 250.563 1.47576 249.961C1.10923 249.36 0.923567 248.671 0.923567 247.899C0.923567 246.54 1.53466 245.397 2.76135 244.458C3.98806 243.52 5.46898 243.051 7.20859 243.051C9.05158 243.051 10.5081 243.466 11.588 244.297C12.6583 245.128 13.2498 246.291 13.3476 247.787H9.01713V247.694C9.01713 247.18 8.84621 246.775 8.49903 246.481C8.15214 246.183 7.67332 246.042 7.05738 246.042C6.52482 246.042 6.07011 246.183 5.71841 246.472C5.35671 246.76 5.18064 247.122 5.18064 247.552C5.18064 248.256 6.1042 248.911 7.96166 249.517C8.45048 249.673 8.82665 249.791 9.0957 249.884C10.8746 250.504 12.0913 251.173 12.7461 251.897C13.3965 252.61 13.7238 253.578 13.7238 254.8C13.7238 256.305 13.0641 257.547 11.764 258.529C10.464 259.512 8.81181 260 6.83242 260C4.83858 260 3.23016 259.487 2.00868 258.451C0.786798 257.42 0.12229 256.012 0 254.248L4.4083 254.228Z" fill="#0A69BD"/>
<path d="M28.6553 242.981C27.2474 242.981 25.8934 243.196 24.5933 243.631C23.2836 244.066 22.1108 244.691 21.0645 245.498C20.0528 246.289 19.2753 247.194 18.7527 248.215C18.2149 249.232 17.9414 250.313 17.9414 251.441C17.9414 252.571 18.2007 253.635 18.7188 254.647C19.2273 255.654 19.9898 256.583 20.9967 257.423C22.057 258.278 23.2158 258.93 24.5011 259.355C25.7719 259.79 27.1942 259.999 28.753 259.999C30.2928 259.999 31.7297 259.788 33.0442 259.363C34.3588 258.938 35.5308 258.308 36.5622 257.477C37.5936 256.661 38.3655 255.742 38.874 254.726C39.3873 253.709 39.6419 252.59 39.6419 251.359C39.6419 250.249 39.3539 249.159 38.7627 248.098C38.1809 247.038 37.3399 246.105 36.2596 245.298C35.21 244.527 34.0363 243.94 32.7892 243.563C31.5232 243.172 30.1455 242.981 28.6553 242.981ZM28.7815 246.667C30.4629 246.667 31.8713 247.102 32.9805 247.982C34.0901 248.857 34.6465 249.971 34.6465 251.33C34.6465 252.84 34.109 254.047 33.0483 254.942C31.9876 255.836 30.5704 256.281 28.7815 256.281C26.9781 256.281 25.5461 255.851 24.4902 254.971C23.4396 254.097 22.9124 252.914 22.9124 251.418C22.9124 250.026 23.4596 248.881 24.5499 248.001C25.6443 247.111 27.0563 246.667 28.7815 246.667Z" fill="#0A69BD"/>
<path d="M49.6416 243.46V245.288C50.3198 244.577 51.1456 244.023 52.0609 243.665C52.97 243.313 54.001 243.137 55.1739 243.137C56.6649 243.137 57.9646 243.362 59.0838 243.802C60.1934 244.242 61.1125 244.897 61.8503 245.771C62.3343 246.358 62.6712 247.028 62.8769 247.77C63.0867 248.518 63.1893 249.613 63.1893 251.05V259.574H58.3704V252.438C58.3704 250.278 58.048 248.802 57.4124 248C56.7723 247.199 55.6631 246.798 54.0988 246.798C52.4908 246.798 51.3375 247.243 50.6385 248.127C49.9396 249.012 49.5879 250.527 49.5879 252.672V259.574H44.9301V243.46L49.6416 243.46Z" fill="#0A69BD"/>
<path d="M98.1789 259.574V246.798H95.017V243.46H98.1789V238.246H102.998V243.46H106.175V246.799H102.998V259.574L98.1789 259.574Z" fill="#0A69BD"/>
<path d="M120.397 246.725C118.525 246.837 117.225 247.228 116.482 247.868C115.749 248.518 115.373 249.677 115.373 251.353V259.574H110.554V243.46H115.069V245.322C115.798 244.594 116.59 244.066 117.46 243.728C118.324 243.396 119.302 243.225 120.397 243.225V246.725Z" fill="#0A69BD"/>
<path d="M166.54 249.188C165.985 248.372 165.223 247.719 164.331 247.297C163.431 246.881 162.366 246.666 161.134 246.666C159.502 246.666 158.133 247.13 157.038 248.039C155.939 248.963 155.391 250.117 155.391 251.504C155.391 252.873 155.948 254.007 157.073 254.921C158.202 255.825 159.604 256.28 161.305 256.28C162.605 256.28 163.695 256.06 164.56 255.63C165.425 255.194 166.075 254.544 166.5 253.675H171.637C171.007 255.644 169.795 257.198 167.967 258.318C166.144 259.442 163.94 259.999 161.339 259.999C159.814 259.999 158.397 259.789 157.087 259.364C155.777 258.939 154.6 258.308 153.549 257.477C152.571 256.7 151.809 255.786 151.256 254.735C150.704 253.684 150.421 252.619 150.421 251.539C150.421 250.405 150.675 249.345 151.178 248.357C151.677 247.37 152.42 246.48 153.397 245.689C154.477 244.799 155.694 244.129 157.053 243.675C158.412 243.211 159.863 242.981 161.418 242.981C163.954 242.981 166.154 243.543 168.006 244.667C169.873 245.782 171.085 247.297 171.681 249.188H166.54Z" fill="#0A69BD"/>
<path d="M181.974 238.245V245.288C182.652 244.579 183.476 244.025 184.389 243.665C185.303 243.313 186.344 243.137 187.506 243.137C190.087 243.137 192.072 243.753 193.459 244.994C194.833 246.226 195.527 248.005 195.527 250.332V259.574H190.708V252.468C190.708 250.263 190.39 248.768 189.755 247.981C189.12 247.194 188.015 246.798 186.436 246.798C184.828 246.798 183.67 247.243 182.971 248.128C182.272 249.012 181.916 250.527 181.916 252.673V259.574H177.267V238.245H181.974Z" fill="#0A69BD"/>
<path d="M128.871 6.83951H132.879V2.99268H128.871V6.83951Z" fill="#0A69BD"/>
<path d="M38.2147 0.0653159L38.2586 3.56453C27.384 3.54878 18.9435 3.89216 16.0551 10.407C23.4693 11.1937 30.4437 13.5252 36.9341 16.5552C39.7299 18.5009 41.3083 23.6423 33.029 26.0223L5.99657 25.9196C3.9049 26.0861 0.747348 22.831 0.239258 20.6656H3.39159C4.23731 22.3715 5.48364 22.2592 6.63697 22.6401H31.3821C36.6261 21.7118 35.9961 19.5464 33.9674 18.4079C27.6723 16.0375 21.5044 13.9459 12.9468 12.4794C10.6836 12.0884 9.92643 11.6629 10.1951 10.4855C14.9018 1.13523 24.5492 -0.364958 38.2147 0.0653159Z" fill="#0A69BD"/>
<path d="M45.0328 2.27441H49.324L49.2652 23.6422H45.0229L45.0328 2.27441Z" fill="#0A69BD"/>
<path d="M132.821 10.9985L128.999 11.0169L129.033 20.6644C128.995 23.6411 113.672 23.6411 113.721 20.6644L113.74 1.52539L110.197 1.60836L110.202 23.6407C110.22 27.8148 132.787 27.6876 132.909 23.6407L132.821 10.9985Z" fill="#0A69BD"/>
</svg>
