<svg width="36" height="36" viewBox="0 0 36 36" fill="none" xmlns="http://www.w3.org/2000/svg">
<path d="M29.055 12.4127V13.1627C29.055 20.7152 23.325 29.3702 12.84 29.3702C9.74471 29.3768 6.71515 28.4774 4.125 26.7827C4.57483 26.8437 5.02858 26.8713 5.4825 26.8652C8.04826 26.8722 10.5419 26.0164 12.5625 24.4352C11.3705 24.4176 10.2144 24.0248 9.25842 23.3125C8.30246 22.6003 7.59532 21.6048 7.2375 20.4677C7.59256 20.5429 7.95455 20.5806 8.3175 20.5802C8.82432 20.5803 9.32885 20.5122 9.8175 20.3777C8.52644 20.1203 7.36494 19.4223 6.53175 18.403C5.69856 17.3837 5.24547 16.1066 5.25 14.7902V14.7152C6.0399 15.1564 6.92548 15.3984 7.83 15.4202C6.62595 14.6278 5.76988 13.4056 5.43673 12.0033C5.10357 10.601 5.31846 9.12436 6.0375 7.87516C7.47019 9.63728 9.25769 11.0782 11.2838 12.1041C13.3099 13.1301 15.5292 13.7182 17.7975 13.8302C17.6852 13.4045 17.6322 12.9653 17.64 12.5252C17.5978 11.3618 17.9151 10.2138 18.5488 9.23728C19.1825 8.26079 20.1017 7.50332 21.1813 7.06802C22.261 6.63273 23.4485 6.54075 24.5823 6.80462C25.7161 7.06849 26.741 7.67538 27.5175 8.54266C28.7938 8.28509 30.0182 7.81613 31.14 7.15516C30.7146 8.49868 29.8095 9.63864 28.5975 10.3577C29.7297 10.2017 30.8335 9.88338 31.875 9.41266C31.1202 10.5719 30.1654 11.5877 29.055 12.4127V12.4127Z" stroke="#E1FFED" style="stroke:#E1FFED;stroke:color(display-p3 0.8824 1.0000 0.9294);stroke-opacity:1;" stroke-width="2" stroke-linecap="round" stroke-linejoin="round"/>
</svg>
