<svg width="36" height="36" viewBox="0 0 36 36" fill="none" xmlns="http://www.w3.org/2000/svg">
<path d="M32.3339 10.7953C32.163 10.1603 31.8283 9.58124 31.3633 9.11622C30.8983 8.65119 30.3192 8.31647 29.6842 8.14556C27.9487 7.47506 11.1352 7.14655 6.25719 8.1643C5.62205 8.33528 5.04297 8.67012 4.57794 9.13528C4.11291 9.60045 3.77824 10.1796 3.60744 10.8148C2.82369 14.2521 2.76444 21.6831 3.62694 25.1976C3.79785 25.8326 4.13257 26.4116 4.5976 26.8766C5.06263 27.3417 5.64164 27.6764 6.27669 27.8473C9.71394 28.6386 26.0549 28.7496 29.7037 27.8473C30.3387 27.6764 30.9178 27.3417 31.3828 26.8766C31.8478 26.4116 32.1825 25.8326 32.3534 25.1976C33.1889 21.4528 33.2482 14.4823 32.3339 10.7953V10.7953Z" stroke="#E1FFED" style="stroke:#E1FFED;stroke:color(display-p3 0.8824 1.0000 0.9294);stroke-opacity:1;" stroke-width="2" stroke-linecap="round" stroke-linejoin="round"/>
<path d="M22.9253 17.9962L15.0901 13.5029V22.4894L22.9253 17.9962Z" stroke="#E1FFED" style="stroke:#E1FFED;stroke:color(display-p3 0.8824 1.0000 0.9294);stroke-opacity:1;" stroke-width="2" stroke-linecap="round" stroke-linejoin="round"/>
</svg>
